<?xml version="1.0" encoding="UTF-8" standalone="no"?>
<!-- Created with Inkscape (http://www.inkscape.org/) -->

<svg
   width="100mm"
   height="100mm"
   viewBox="0 0 100 100"
   version="1.1"
   id="svg5"
   xml:space="preserve"
   inkscape:version="1.2.2 (b0a8486541, 2022-12-01)"
   sodipodi:docname="fastflx1.svg"
   xmlns:inkscape="http://www.inkscape.org/namespaces/inkscape"
   xmlns:sodipodi="http://sodipodi.sourceforge.net/DTD/sodipodi-0.dtd"
   xmlns="http://www.w3.org/2000/svg"
   xmlns:svg="http://www.w3.org/2000/svg"><sodipodi:namedview
     id="namedview7"
     pagecolor="#ffffff"
     bordercolor="#000000"
     borderopacity="0.25"
     inkscape:showpageshadow="2"
     inkscape:pageopacity="0.0"
     inkscape:pagecheckerboard="0"
     inkscape:deskcolor="#d1d1d1"
     inkscape:document-units="mm"
     showgrid="false"
     showguides="true"
     inkscape:zoom="1"
     inkscape:cx="226"
     inkscape:cy="222.5"
     inkscape:window-width="1440"
     inkscape:window-height="831"
     inkscape:window-x="0"
     inkscape:window-y="0"
     inkscape:window-maximized="1"
     inkscape:current-layer="layer1"><sodipodi:guide
       position="220.69515,788.4839"
       orientation="0,-1"
       id="guide5724"
       inkscape:locked="false" /></sodipodi:namedview><defs
     id="defs2" /><g
     inkscape:label="Taso 1"
     inkscape:groupmode="layer"
     id="layer1"><g
       id="g5720"
       transform="matrix(0.2804965,-0.33101815,0.3313769,0.28019283,153.97847,11.579996)"><rect
         style="fill:#ffffff;fill-opacity:1;stroke:#000000;stroke-width:0.103913"
         id="rect5686"
         width="213.24825"
         height="100.26181"
         x="-327.54016"
         y="-174.55971"
         rx="10.323757"
         ry="10.459213" /><g
         id="g4954"
         transform="translate(-374.24149,-224.42253)"><path
           style="fill:#000000;fill-opacity:1;stroke-width:0.264583"
           d="m 54.436133,153.92798 c -5.86586,-1.15207 -10.82415,-5.59692 -12.7301,-11.41187 -0.98734,-3.01234 -1.2457,-82.904049 -0.27919,-86.335059 1.75283,-6.22239 6.46465,-10.93181 12.62641,-12.61999 2.13785,-0.58573 189.643457,-0.90829 193.396407,-0.3327 7.7447,1.1878 13.69359,6.66705 15.06837,13.87873 0.5874,3.08136 0.25985,83.829049 -0.34666,85.460419 -2.30912,6.21088 -6.91324,10.20443 -13.0973,11.36045 -3.14036,0.58704 -191.648977,0.58707 -194.637937,2e-5 z m 192.627217,-7.93465 c 3.23231,-0.84169 5.70563,-2.86644 7.20338,-5.89694 l 0.98814,-1.9994 V 98.131211 58.165421 l -0.90151,-1.8448 c -1.67886,-3.43555 -4.94721,-5.88907 -8.65336,-6.49601 -2.19281,-0.3591 -185.386967,-0.34541 -187.691987,0.014 -3.87188,0.60377 -7.15359,3.04158 -8.8146,6.5479 l -0.8427,1.77889 v 40.08438 c 0,40.084369 0,40.084369 0.71329,41.606429 1.36636,2.91561 4.77129,5.69326 7.68249,6.26715 2.3202,0.45739 188.549647,0.33013 190.316857,-0.13005 z m -119.1392,-10.95932 c -0.61847,-0.28073 -1.12448,-0.69209 -1.12448,-0.91414 0,-0.73569 -1.17571,-1.19091 -3.84434,-1.48848 -2.56035,-0.2855 -3.23578,-0.46789 -2.59002,-0.69942 0.22437,-0.0804 0.26951,-0.77583 0.16004,-2.46549 -0.15248,-2.35345 -0.15248,-2.35345 0.61352,-2.65812 1.26707,-0.50396 1.56343,-0.71263 1.48433,-1.04512 -0.0415,-0.17438 0.0332,-0.45335 0.16589,-0.61994 0.13272,-0.16658 0.38019,-1.13631 0.54993,-2.15496 0.4746,-2.84826 0.46903,-2.838 1.42602,-2.62781 0.45649,0.10026 1.30938,0.48576 1.89532,0.85667 6.85368,4.3385 14.7856,6.51847 23.75264,6.52806 2.87363,0.003 5.22512,0.0777 5.22552,0.16575 0.003,0.69033 -4.64584,1.16275 -11.4425,1.16275 -7.0776,0 -7.0776,0 -7.0776,0.67958 0,2.69564 -1.57469,4.74035 -3.65832,4.75026 -0.81815,0.004 -1.46026,0.18093 -1.89793,0.52328 -0.84134,0.65811 -2.19803,0.66076 -3.63802,0.007 z m 38.39826,-9.58466 c -0.0721,-0.11663 0.91777,-0.19824 2.19966,-0.18136 2.5881,0.0341 2.48018,0.15552 -0.26582,0.29913 -0.99153,0.0519 -1.86176,-0.001 -1.93384,-0.11777 z m 19.41319,-0.13419 c 0.32743,-0.0631 0.86321,-0.0631 1.19063,0 0.32742,0.0631 0.0595,0.11466 -0.59531,0.11466 -0.65485,0 -0.92274,-0.0516 -0.59532,-0.11466 z m 7.9375,0 c 0.32743,-0.0631 0.86321,-0.0631 1.19063,0 0.32742,0.0631 0.0595,0.11466 -0.59531,0.11466 -0.65485,0 -0.92274,-0.0516 -0.59532,-0.11466 z m 9.78959,0.0115 c 0.1819,-0.0734 0.47955,-0.0734 0.66146,0 0.1819,0.0734 0.0331,0.13345 -0.33073,0.13345 -0.36381,0 -0.51263,-0.0601 -0.33073,-0.13345 z m -96.85185,-1.93561 c -0.68333,-0.43337 -1.24242,-0.96641 -1.24242,-1.18454 0,-0.66351 -1.09501,-1.13151 -3.04041,-1.29946 -2.822307,-0.24365 -4.026907,-1.64026 -3.026717,-3.50914 0.66695,-1.2462 -1.76036,-2.91045 -4.56533,-3.13017 -4.03415,-0.316 -3.86215,-1.06438 0.2983,-1.29788 l 2.49813,-0.1402 2.661237,-2.84103 c 2.88688,-3.08191 6.008,-5.57185 8.42796,-6.7236 0.84336,-0.40139 1.43867,-0.78153 1.32292,-0.84478 -0.11576,-0.0632 -0.0816,-0.0864 0.0758,-0.0514 0.15747,0.035 1.10997,-0.10379 2.11667,-0.30836 1.00669,-0.20457 3.19957,-0.47404 4.87305,-0.59882 l 3.04271,-0.22689 -2.55804,-0.0373 c -3.81145,-0.0555 -3.97792,-0.19755 -2.43661,-2.078509 0.82987,-1.01275 0.93793,-1.3004 0.80542,-2.14392 -0.0842,-0.53583 -0.2701,-1.73095 -0.41316,-2.65583 -0.31499,-2.03639 -0.28978,-2.00849 -1.83052,-2.02653 -7.70084,-0.0902 -8.94216,-0.48455 -2.33031,-0.7404 2.00842,-0.0777 3.71131,-0.20095 3.78421,-0.27385 0.22622,-0.22622 -0.20436,-1.24715 -0.45949,-1.08946 -0.13257,0.0819 -0.67156,0.0682 -1.19775,-0.0305 -1.18143,-0.22164 -0.7104,-0.6299 0.73366,-0.63589 0.53711,-0.002 1.05016,-0.12311 1.14009,-0.26863 0.0988,-0.15989 2.27748,-0.28152 5.50572,-0.30739 5.62206,-0.045 3.86406,-0.38761 -2.34395,-0.45675 -3.06445,-0.0341 -3.26195,-0.15015 -3.12194,-1.8339 0.0884,-1.06281 0.0628,-1.14553 -0.18045,-0.58333 -0.23009,0.5318 -0.32859,0.58201 -0.5234,0.26679 -0.19113,-0.30924 -0.30687,-0.32141 -0.5685,-0.0598 -1.00814,1.00814 -3.44159,0.10926 -3.82348,-1.41232 -0.3678,-1.46541 2.22205,-2.53219 3.73724,-1.5394 0.48117,0.31527 0.97043,0.3798 1.90892,0.25175 1.44534,-0.19719 1.26783,-0.19425 9.7786,-0.16207 6.55705,0.0248 7.91525,-0.1522 9.03217,-1.17697 0.5944,-0.54536 -1.68082,-0.924 -5.56132,-0.92551 -1.93647,-7.5e-4 -4.71148,-0.0843 -6.16669,-0.18559 l -2.64583,-0.18423 3.43958,-0.33885 c 1.89177,-0.18638 4.12419,-0.26976 4.96094,-0.1853 2.85394,0.28805 1.97978,-0.0517 -7.60677,-2.95617 -1.53375,-0.46469 -2.8743,-0.70134 -3.7666,-0.66492 -2.35047,0.0959 -2.72649,-0.17253 -1.37254,-0.97993 0.99473,-0.59319 1.07385,-0.70452 0.62542,-0.88006 -0.35098,-0.1374 -0.11289,-0.20685 0.75271,-0.21956 1.22775,-0.0181 1.25657,-8e-4 0.95184,0.56857 -0.20982,0.39205 0.10872,0.21487 0.95851,-0.53316 5.97102,-5.2559 19.4895,-4.90023 33.20772,0.87369 1.83152,0.77087 3.15462,0.82297 6.41532,0.2526 3.75416,-0.65669 9.5382,-2.50896 9.12499,-2.92217 -0.0776,-0.0776 -0.89465,0.17611 -1.81568,0.56377 -1.93434,0.81415 -3.68422,0.75758 -4.52634,-0.14632 -0.27271,-0.29272 -0.86988,-0.54311 -1.34118,-0.56236 -2.33735,-0.0954 2.76693,-0.47949 5.82898,-0.43858 3.73046,0.0498 4.48177,-0.17877 5.57597,-1.69669 0.19156,-0.26574 1.30479,-1.25543 2.47384,-2.19931 1.16906,-0.94388 2.0484,-1.71614 1.95411,-1.71614 -0.34381,0 -3.05645,1.85246 -3.05645,2.08724 0,0.69335 -1.90811,1.35172 -3.78544,1.30612 -1.26711,-0.0308 -1.52731,-0.0801 -0.77862,-0.14751 1.11933,-0.10081 1.12448,-0.10614 1.12448,-1.1633 0,-0.64507 0.17542,-1.23637 0.44683,-1.50614 0.41874,-0.4162 0.36469,-0.45275 -0.8599,-0.58139 l -1.30672,-0.13727 1.50596,-0.21057 c 0.82828,-0.11582 2.91188,-0.18905 4.63021,-0.16274 3.43916,0.0527 3.90982,-0.0658 5.96149,-1.50076 0.76785,-0.53703 1.15796,-0.88619 0.86692,-0.7759 -0.29104,0.11028 -0.86383,0.32157 -1.27287,0.46953 -0.47706,0.17256 -2.40644,0.19974 -5.38131,0.0758 -4.20454,-0.17516 -5.34229,-0.41268 -3.53228,-0.73739 0.53798,-0.0965 0.48859,-0.13032 -0.26458,-0.18107 -2.93149,-0.19755 1.18667,-0.48912 7.23785,-0.51245 5.5275,-0.0213 7.15311,-0.11181 8.46666,-0.47133 9.55379,-2.61491 20.85899,3.14178 24.66249,12.5583 1.20469,2.98251 2.23346,9.02955 1.54234,9.06576 -0.13061,0.007 -0.85873,0.0387 -1.61804,0.0709 -1.70864,0.0723 -1.46394,-0.21758 -3.90304,4.62416 l -2.03825,4.04603 0.73653,0.98105 c 0.40509,0.53959 0.80246,1.04059 0.88305,1.11335 0.61878,0.55868 2.14978,4.86358 2.52019,7.086309 0.36287,2.17753 -1.18997,3.18033 -3.57315,2.30747 -2.22031,-0.8132 -2.15625,-0.81341 -1.95056,0.006 0.27814,1.10818 -2.89301,0.81822 -5.58112,-0.51032 -7.45794,-3.6859 -10.25974,-9.418769 -4.60321,-9.418769 8.54804,0 10.77084,-15.52621 2.54098,-17.74876 -7.10211,-1.918 -13.92311,4.90285 -12.59849,12.5982 0.57926,3.36527 0.70621,3.13835 -1.87632,3.35385 -3.87405,0.32326 -6.71357,1.32885 -16.65137,5.89697 -4.08631,1.878359 -9.10917,3.706029 -13.77571,5.012549 -10.99567,3.07854 -12.91123,3.65443 -15.39832,4.62931 -6.94167,2.72099 -11.57701,6.68887 -11.59323,9.92389 -0.008,1.50594 -0.31578,1.65667 -1.89667,0.92752 -1.4186,-0.65428 -4.71365,-2.77087 -5.00166,-3.21283 -0.25841,-0.39654 -5.18548,4.47496 -6.17723,6.10756 -1.39135,2.2904 -2.27622,2.57641 -4.1988,1.35715 z m 6.69223,-38.234689 c 0.82941,-0.99938 -0.721,-2.54979 -1.72038,-1.72037 -0.39801,0.33031 -0.54168,1.61279 -0.21705,1.93742 0.32463,0.32463 1.60711,0.18096 1.93743,-0.21705 z m 12.24486,-0.30928 c -0.17913,-0.0725 -0.53632,-0.0769 -0.79375,-0.01 -0.25743,0.0671 -0.11087,0.12638 0.3257,0.13178 0.43656,0.005 0.64718,-0.0495 0.46805,-0.12197 z m 1.97383,-0.25088 c -0.0879,-0.0879 -0.31612,-0.0973 -0.50712,-0.0209 -0.21106,0.0845 -0.14837,0.14715 0.15986,0.15985 0.27891,0.0115 0.43518,-0.051 0.34726,-0.13897 z m 47.0352,37.995259 c 0.0899,-0.14552 0.33612,-0.26459 0.54708,-0.26459 0.732,0 6.53253,-3.50256 8.31646,-5.02177 0.50932,-0.43375 1.9976,-1.62934 3.30729,-2.65687 1.30969,-1.02754 3.66624,-3.06724 5.23678,-4.53267 l 2.85553,-2.66443 1.51009,1.44247 c 7.84355,7.49231 10.88743,12.34213 8.51595,13.56847 -0.9286,0.48019 -30.58429,0.60688 -30.28918,0.12939 z m 13.89062,-0.51808 c 1.36087,-0.18813 1.28367,-0.20657 -1.19062,-0.28447 -1.45521,-0.0458 -3.00302,-0.10579 -3.43959,-0.13327 -3.28863,-0.20699 -6.73965,0.0466 -7.22394,0.53095 -0.21476,0.21475 10.20125,0.11528 11.85415,-0.11321 z m 7.14375,0.13996 c 0,-0.0624 -0.68461,-0.25406 -1.52135,-0.42582 -0.83675,-0.17176 -2.45139,-0.60441 -3.58811,-0.96144 -1.13671,-0.35703 -2.20827,-0.601 -2.38125,-0.54215 -0.17297,0.0589 0.93566,0.49496 2.46363,0.96914 1.52797,0.47419 2.89719,0.90037 3.04271,0.94709 0.40717,0.13071 1.98437,0.14119 1.98437,0.0132 z m -8.46666,-2.37412 c 0,-0.0585 -0.35719,-0.23093 -0.79375,-0.38312 -0.91881,-0.3203 -1.08444,-0.13943 -0.19844,0.2167 0.67015,0.26936 0.99219,0.32338 0.99219,0.16642 z m -64.8155,0.91405 c -0.34289,-0.22012 -0.34289,-0.26488 0,-0.37434 0.65666,-0.20963 1.33546,-0.0963 1.23478,0.2061 -0.12918,0.38802 -0.7588,0.47381 -1.23478,0.16824 z m -14.42721,-18.00302 c -0.50408,-0.17987 -0.49969,-0.19819 0.0928,-0.38654 0.34207,-0.10875 0.73703,-0.0826 0.87768,0.058 0.35067,0.35067 -0.29544,0.5694 -0.97046,0.32853 z m -2.51354,-2.39794 c -0.66146,-0.19768 -0.66146,-0.19768 0.0132,-0.22405 0.9205,-0.036 1.30969,-0.495869 1.30969,-1.547639 0,-1.82107 -0.91676,-2.68118 -3.57188,-3.35118 -0.29104,-0.0734 0.0998,-0.0959 0.86853,-0.0498 1.96487,0.1177 3.76168,2.0215 3.76168,3.98567 0,0.63993 0.071,0.672 1.4876,0.672 1.66319,0 1.67947,-0.54372 0.0278,-0.92937 -1.31152,-0.30624 0.11645,-0.58763 3.18093,-0.62683 2.63172,-0.0337 2.68366,-0.0148 1.98438,0.71952 -0.25466,0.26743 -0.58209,0.67152 -0.72761,0.89798 -0.29614,0.460869 -7.07554,0.829929 -8.33437,0.453709 z m 141.68437,-1.444209 c -3.46961,-1.86728 -4.04339,-5.94005 -1.14797,-8.14849 4.33167,-3.30393 10.02344,1.86344 7.03188,6.384 -1.17292,1.7724 -4.18875,2.67679 -5.88391,1.76449 z m -40.06517,-5.58878 c -1.02921,-1.30842 -0.5782,-3.32532 1.04993,-4.6953 2.13451,-1.79607 4.02939,0.54261 2.64241,3.26131 -1.0499,2.05797 -2.69803,2.69806 -3.69234,1.43399 z m 3.0235,-3.53619 c 0,-0.33955 -0.14876,-0.66695 -0.33058,-0.72756 -0.40563,-0.1352 -0.71032,0.57576 -0.49133,1.14644 0.23275,0.60655 0.82191,0.3063 0.82191,-0.41888 z m -18.02737,1.091 c -1.92801,-1.20181 -2.10629,-4.75153 -0.33968,-6.76359 2.27786,-2.59433 5.00244,-1.52858 5.20862,2.03742 0.20284,3.50833 -2.54449,6.1751 -4.86894,4.72617 z m 2.49633,-4.84808 c 0.41646,-0.41646 0.40789,-1.45808 -0.0132,-1.60908 -0.56522,-0.20267 -1.25677,0.32874 -1.25677,0.96575 0,0.96763 0.62772,1.28561 1.27,0.64333 z m -81.43875,1.53815 c 0,-0.21727 1.61817,-0.32676 1.74706,-0.11821 0.0749,0.12126 -0.28749,0.22047 -0.8054,0.22047 -0.51791,0 -0.94166,-0.046 -0.94166,-0.10226 z"
           id="path4988"
           sodipodi:nodetypes="ssssssssssscccsssscssssscssssssssssccsscscccsscsssssssssssscssssscsssssscssssssssscsssssssssssssscssssssssssssssssssssssssscsssssssssssccscssssssssssssscsssccsssscccccsssssssssscsssssssssssssssssssssssssscsssssscsssssssssssssssssssssssssssssssss" /><path
           style="fill:#fdc11e;stroke-width:0.264583"
           d="m 56.772073,45.639559 c 144.764697,272.854101 72.382347,136.427051 0,0 z"
           id="path4978"
           sodipodi:nodetypes="cc" /></g></g><g
       id="g18572"
       transform="matrix(0.31655693,-0.01071718,0.010682,0.31621583,-147.16314,49.482286)"
       style="fill:#000000;fill-opacity:1;stroke:#000000;stroke-opacity:1"><path
         style="fill:#000000;fill-opacity:1;stroke:#000000;stroke-width:0.0337125;stroke-opacity:1"
         d="m 665.00894,17.856677 v -0.589969 h -15.49089 -15.49088 v 0.589969 0.589968 h 15.49088 15.49089 z m -8.81961,-3.148389 2.02648,-2.026478 -2.10704,-2.107039 -2.10704,-2.1070368 -4.12969,4.1297858 -4.12968,4.129787 h 1.28078 1.28079 l 0.85147,-0.850991 0.85148,-0.850991 v 0.850991 0.850991 h 0.89338 0.89339 v -1.019595 -1.019594 l 1.0198,1.016831 c 0.56089,0.559253 1.05015,1.022785 1.08723,1.030068 0.22317,0.04382 0.17888,0.08305 2.28865,-2.026729 z m -3.01347,-1.200522 -0.82562,-0.826128 0.82596,-0.825956 0.82596,-0.825955 0.82561,0.826129 0.82561,0.826128 -0.82595,0.825955 -0.82596,0.825957 z m 5.9323,2.1917 1.06304,-1.061553 -0.64031,-0.641031 -0.64031,-0.641029 -1.67742,1.677171 c -0.92258,0.922447 -1.67742,1.68861 -1.67742,1.702586 0,0.01397 0.56461,0.02541 1.25469,0.02541 h 1.25468 z m -1.18044,-6.0096368 -7.06116,-7.071193 -0.99435,-0.009 -0.99435,-0.0089 5.90123,5.908626 c 3.24566,3.2497428 6.41445,6.4358048 7.04176,7.0801338 l 1.14055,1.171508 h 1.01375 1.01376 z m -17.04002,2.7222518 4.31532,-4.3152278 1.93827,1.9384988 c 1.06606,1.066172 1.95366,1.938496 1.97245,1.938496 0.0188,0 0.31457,-0.280707 0.65727,-0.623796 l 0.62312,-0.623797 -1.95491,-1.9551338 -1.95492,-1.955133 0.82559,-0.826105 0.8256,-0.826105 1.95571,1.955511 1.95573,1.955514 0.64013,-0.640803 0.64015,-0.640803 -2.59598,-2.595975 -2.59598,-2.595977 -4.21325,4.222756 c -2.31729,2.322515 -5.48777,5.5008798 -7.04553,7.0630318 l -2.83229,2.840274 h 1.26409 1.26409 z m 5.5287,2.292593 2.02242,-2.022636 -0.64009,-0.640758 -0.6401,-0.640759 -1.77025,1.770014 -1.77025,1.770012 h -0.67402 -0.67404 l 2.10683,-2.107025 2.10682,-2.107027 -0.64052,-0.640515 -0.64051,-0.6405158 -3.64081,3.6409218 -3.6408,3.640921 h 3.23645 3.23644 z"
         id="path18574"
         sodipodi:nodetypes="cccccccccscccccccccccccccssscccccccccccccsssccccccssccccccssscccccccccccssccccccccccccccccccccc" /></g><path
       style="fill:#000000;fill-opacity:1;stroke-width:0.029723"
       d="m 34.399642,90.088461 -0.108173,-0.09305 -0.02983,-0.05699 -0.02979,-0.05699 -0.005,-0.09788 -0.005,-0.09788 0.06655,-0.11643 0.06655,-0.116432 0.08419,-0.07154 0.08418,-0.07154 0.09086,-0.02743 0.09086,-0.02743 0.104339,0.0324 0.104342,0.03241 0.09305,0.07786 0.09306,0.07786 0.03736,0.08915 0.03736,0.08915 -0.0071,0.08051 -0.0071,0.08051 -0.02442,0.02909 -0.02442,0.02909 -0.04707,-0.03938 -0.04707,-0.03938 -3.64e-4,-0.116475 -3.65e-4,-0.116474 -0.08789,-0.07354 -0.0879,-0.07354 -0.106275,0.0014 -0.106278,0.0014 -0.115544,0.116687 -0.11554,0.116685 -0.0228,0.101732 -0.0228,0.101732 0.06445,0.09327 0.06445,0.09327 0.08189,0.02129 0.08189,0.02129 0.09585,-0.04491 0.09584,-0.04491 0.05177,0.04236 0.05177,0.04236 -0.02959,0.03529 -0.02959,0.03529 -0.0906,0.03787 -0.0906,0.03787 -0.09585,-0.02141 -0.09584,-0.02141 -0.108169,-0.09305 z m -17.635085,-14.791057 -6.132835,-5.13116 2.6352,-3.142804 2.635197,-3.142808 12.755831,10.672435 12.755836,10.672435 -2.635201,3.142805 -2.635192,3.142805 -0.159596,-0.133526 -0.159586,-0.133525 2.501525,-2.983387 2.501526,-2.983388 L 28.390613,74.871904 15.95396,64.466518 l -2.367855,2.823967 -2.367859,2.823972 5.97324,4.997636 5.973244,4.997636 -0.133675,0.15942 -0.133671,0.159416 z m 6.600201,5.522197 -0.057,-0.04769 0.286438,-0.341608 0.28643,-0.341609 0.204118,0.170777 0.204117,0.170777 0.03492,0.07302 0.03492,0.07303 -0.02752,0.08745 -0.02752,0.08745 -0.06315,0.04578 -0.06316,0.04578 -0.08272,0.0073 -0.08272,0.0073 -0.170995,-0.143061 -0.170986,-0.143063 -0.124125,0.14803 -0.12412,0.14803 z m 0.503379,-0.206395 0.145435,0.104826 0.04651,-0.0041 0.04651,-0.0041 0.05134,-0.06123 0.05134,-0.06123 -0.0147,-0.04606 -0.0147,-0.04606 -0.130779,-0.110054 -0.130779,-0.110055 -0.09777,0.116606 -0.09777,0.116608 z m 0.429464,0.986878 -0.305878,-0.255921 0.286434,-0.341608 0.286435,-0.341608 0.05699,0.04769 0.057,0.04769 -0.257791,0.307448 -0.257791,0.307448 0.180491,0.15101 0.180486,0.15101 -0.01324,0.03352 -0.01323,0.03352 0.402299,-0.221452 0.402303,-0.221454 0.07476,0.05069 0.07477,0.05069 -0.05555,0.159148 -0.05555,0.159146 -0.09654,0.280999 -0.09654,0.281 -0.0079,0.0094 -0.0079,0.0094 -0.06543,-0.05475 -0.06543,-0.05474 0.05777,-0.127754 0.05777,-0.127754 -0.143052,-0.108299 -0.143051,-0.108298 -0.113361,0.06984 -0.113366,0.06984 z m 0.73295,0.148231 0.102263,0.08556 0.0072,-0.0086 0.0072,-0.0086 0.03356,-0.102594 0.03356,-0.102592 0.02083,-0.05592 0.02083,-0.05592 -0.01643,0.0015 -0.01643,0.0015 -0.147425,0.0801 -0.14743,0.08009 z m 0.248519,0.672937 -0.05622,-0.04704 0.286434,-0.341609 0.286435,-0.341608 0.06694,0.056 0.06694,0.056 -0.04753,0.395092 -0.04757,0.395092 0.220743,-0.250193 0.220735,-0.250193 0.05625,0.04706 0.05625,0.04706 -0.286434,0.341609 -0.286434,0.341608 -0.06725,-0.05626 -0.06724,-0.05627 0.03845,-0.383626 0.03849,-0.383627 -0.211376,0.238957 -0.211376,0.238956 z m 0.729558,0.610399 -0.05623,-0.04704 0.286435,-0.341609 0.286434,-0.341608 0.06694,0.056 0.06694,0.05601 -0.04753,0.395092 -0.04753,0.395094 0.220743,-0.250195 0.22073,-0.250191 0.05625,0.04706 0.05626,0.04706 -0.286438,0.341609 -0.286435,0.341609 -0.06725,-0.05627 -0.06725,-0.05627 0.03845,-0.383626 0.03849,-0.383626 -0.211376,0.238956 -0.211376,0.238956 z m 1.572128,1.315353 -0.214837,-0.179748 0.28643,-0.341609 0.286439,-0.341608 0.199177,0.16728 0.199173,0.167279 0.03124,0.07398 0.03124,0.07398 -0.006,0.09881 -0.006,0.09881 -0.08382,0.121993 -0.08382,0.121991 -0.0954,0.05906 -0.0954,0.05906 -0.116988,2.64e-4 -0.116987,2.64e-4 z m 0.0874,-0.05141 0.135682,0.09565 0.111789,-0.0099 0.111789,-0.0099 0.11326,-0.135074 0.113259,-0.135076 -0.006,-0.104291 -0.006,-0.104293 -0.132819,-0.111123 -0.132814,-0.111125 -0.221967,0.26472 -0.221966,0.264723 z m 0.757899,0.75865 -0.05699,-0.04769 0.28643,-0.341608 0.286439,-0.341609 0.204109,0.170778 0.204117,0.170777 0.03492,0.07302 0.03492,0.07302 -0.02752,0.08745 -0.02752,0.08745 -0.06315,0.04577 -0.06315,0.04578 -0.08272,0.0073 -0.08273,0.0073 -0.170982,-0.14306 -0.170995,-0.143063 -0.124121,0.14803 -0.12412,0.14803 z m 0.503375,-0.206395 0.145443,0.104826 0.04651,-0.0041 0.04651,-0.0041 0.05134,-0.06123 0.05135,-0.06123 -0.0147,-0.04606 -0.0147,-0.04606 -0.13078,-0.110055 -0.130779,-0.110054 -0.09777,0.116606 -0.09777,0.116608 z m 0.875943,1.360429 -0.06839,-0.05722 0.28643,-0.341608 0.286435,-0.341609 0.23631,0.197714 0.236311,0.197715 0.02048,0.09746 0.02048,0.09746 -0.07363,0.08782 -0.07363,0.08781 -0.06547,0.0058 -0.06548,0.0058 -0.0071,0.08062 -0.0071,0.08062 -0.07786,0.09286 -0.07787,0.09286 0.0045,0.05022 0.0045,0.05022 -0.08436,-0.07058 -0.08435,-0.07058 0.08593,-0.102482 0.08593,-0.102482 -0.0074,-0.0837 -0.0074,-0.0837 -0.125392,-0.104912 -0.125392,-0.104913 -0.124124,0.148031 -0.12412,0.14803 z m 0.482503,-0.216886 0.108605,0.09023 0.08106,0.01898 0.08106,0.01898 0.05099,-0.04569 0.05098,-0.04569 1.89e-4,-0.05578 1.89e-4,-0.05578 -0.145396,-0.12165 -0.145405,-0.121652 -0.09548,0.113869 -0.09548,0.11387 0.108605,0.09023 z m 0.235655,0.817749 -0.057,-0.04769 0.286435,-0.341609 0.286434,-0.341608 0.07764,0.06496 0.07764,0.06496 -0.09,0.244391 -0.09,0.24439 -0.04157,0.111886 -0.04157,0.111886 0.319956,-0.189001 0.319952,-0.189001 0.08854,0.06205 0.08854,0.06206 -0.28759,0.342984 -0.287585,0.342984 -0.057,-0.04769 -0.05699,-0.04769 0.204152,-0.24576 0.20416,-0.24576 -0.286888,0.166855 -0.28688,0.166854 -0.06576,-0.05502 -0.06575,-0.05502 0.106279,-0.298584 0.106279,-0.298583 -0.197042,0.232336 -0.197037,0.232337 z m 0.787358,0.658758 -0.06379,-0.05337 0.413608,-0.225517 0.413613,-0.225518 0.07426,0.05027 0.07426,0.05027 -0.05556,0.159148 -0.05555,0.159145 -0.09654,0.281 -0.09654,0.281 -0.0079,0.0094 -0.0079,0.0094 -0.06544,-0.05475 -0.06543,-0.05475 0.05776,-0.127754 0.05777,-0.127754 -0.143052,-0.108298 -0.143042,-0.108297 -0.11337,0.06984 -0.113366,0.06984 z m 0.490859,-0.05432 0.102263,0.08556 0.0072,-0.0086 0.0072,-0.0086 0.03356,-0.102593 0.03356,-0.102592 0.02083,-0.05592 0.02083,-0.05592 -0.01643,0.0015 -0.01647,0.0015 -0.147426,0.0801 -0.147425,0.08009 z m 0.225724,0.653863 -0.05623,-0.04704 0.286431,-0.341609 0.286434,-0.341608 0.06694,0.056 0.06694,0.05601 -0.04757,0.39509 -0.04753,0.395095 0.220735,-0.250194 0.220734,-0.250192 0.05625,0.04706 0.05625,0.04706 -0.28643,0.341609 -0.286439,0.341608 -0.06724,-0.05626 -0.06725,-0.05627 0.03849,-0.383624 0.03849,-0.383626 -0.21138,0.238956 -0.21138,0.238956 z m 1.413512,1.182646 -0.05623,-0.04704 0.286439,-0.341608 0.28643,-0.341609 0.06694,0.056 0.06694,0.05601 -0.04757,0.395089 -0.04753,0.395095 0.220734,-0.250193 0.22073,-0.250193 0.05626,0.04706 0.05625,0.04706 -0.28643,0.341608 -0.286438,0.341608 -0.06725,-0.05627 -0.06725,-0.05626 0.03849,-0.383627 0.03849,-0.383626 -0.21138,0.238957 -0.21138,0.238956 z m -6.454943,-5.439413 -0.284983,-0.238437 0.276884,-0.330223 0.276888,-0.330221 0.273583,0.228899 0.273584,0.2289 -0.03819,0.04555 -0.03819,0.04555 -0.216586,-0.181211 -0.216585,-0.181213 -0.08593,0.102484 -0.08593,0.102482 0.205186,0.171675 0.20519,0.171675 -0.02868,0.03416 -0.02868,0.03416 -0.205185,-0.171675 -0.20519,-0.171674 -0.09548,0.113871 -0.09547,0.11387 0.227984,0.190749 0.227985,0.190751 -0.02863,0.03416 -0.02864,0.03416 z m 2.371055,1.983794 -0.284983,-0.238437 0.276888,-0.330223 0.276884,-0.330221 0.273583,0.228899 0.273584,0.228901 -0.03819,0.04555 -0.0382,0.04555 -0.216585,-0.181213 -0.216589,-0.181211 -0.08593,0.102484 -0.08593,0.102482 0.205186,0.171673 0.205189,0.171675 -0.02868,0.03416 -0.02863,0.03416 -0.205186,-0.171674 -0.20519,-0.171673 -0.09548,0.113871 -0.09548,0.113869 0.227985,0.190749 0.227985,0.190749 -0.02864,0.03416 -0.02863,0.03416 z m 3.64778,3.051993 -0.284984,-0.238437 0.276893,-0.330223 0.276884,-0.330221 0.273579,0.228899 0.273588,0.228899 -0.03819,0.04555 -0.03819,0.04555 -0.216585,-0.181212 -0.216589,-0.181212 -0.08593,0.102485 -0.08593,0.102481 0.205186,0.171675 0.20519,0.171675 -0.02864,0.03416 -0.02863,0.03416 -0.205189,-0.171675 -0.205186,-0.171675 -0.09548,0.113872 -0.09548,0.113869 0.227985,0.190749 0.227989,0.190751 -0.02863,0.03416 -0.02864,0.03416 z m 2.143074,1.793045 -0.284988,-0.238437 0.276893,-0.330223 0.276883,-0.33022 0.273584,0.228898 0.273584,0.2289 -0.03819,0.04555 -0.03819,0.04554 -0.216589,-0.181211 -0.216585,-0.181213 -0.08593,0.102485 -0.08593,0.102481 0.20519,0.171676 0.205185,0.171674 -0.02863,0.03416 -0.02868,0.03416 -0.205186,-0.171675 -0.20519,-0.171675 -0.09548,0.113871 -0.09548,0.11387 0.227985,0.19075 0.227989,0.19075 -0.02863,0.03416 -0.02864,0.03416 z m -21.907384,-20.693062 -0.262183,-0.21936 1.08845,-1.298117 1.088451,-1.298117 0.262184,0.219365 0.262184,0.219365 -0.324624,0.387151 -0.324625,0.387161 0.85495,0.715306 0.854946,0.71531 -0.181412,0.216357 -0.181407,0.216353 -0.854945,-0.71531 -0.85495,-0.71531 -0.582419,0.694603 -0.582411,0.694608 z m 4.021555,3.346463 -0.304339,-0.238479 -0.121991,-0.155234 -0.12199,-0.155235 -0.06873,-0.126235 -0.06872,-0.126234 -0.05505,-0.171366 -0.05505,-0.171361 -0.01378,-0.155703 -0.01378,-0.155708 0.0239,-0.185205 0.0239,-0.1852 0.08589,-0.219019 0.08589,-0.21902 0.155609,-0.23101 0.155615,-0.231015 0.825512,-0.985286 0.825513,-0.985285 0.262184,0.21936 0.262184,0.21936 -0.901892,1.076385 -0.901897,1.076379 -0.08602,0.170969 -0.08602,0.170969 -0.03781,0.162687 -0.03781,0.162686 0.0139,0.157271 0.0139,0.157267 0.0645,0.138967 0.0645,0.138963 0.07894,0.104404 0.07894,0.104404 0.152297,0.128377 0.152297,0.128377 0.142287,0.07548 0.142287,0.07547 0.155092,0.03638 0.155093,0.03638 0.165834,-0.01716 0.16583,-0.01716 0.138908,-0.06241 0.138909,-0.06242 0.140293,-0.09896 0.140292,-0.09896 0.921754,-1.079144 0.921749,-1.079139 0.238802,0.199795 0.238806,0.199804 -0.987261,1.159963 -0.98724,1.159976 -0.154798,0.102992 -0.154789,0.102993 -0.1943,0.08932 -0.194291,0.08932 -0.276815,0.02474 -0.276814,0.02475 -0.196278,-0.04585 -0.196283,-0.04584 -0.166596,-0.07599 -0.1666,-0.07599 -0.304339,-0.238479 z m 2.020084,1.708401 -0.262189,-0.219364 0.620614,-0.740152 0.620605,-0.740153 0.74697,0.624328 0.74697,0.624333 0.178016,0.09448 0.178017,0.09448 0.158516,0.03623 0.158508,0.03622 0.136694,-0.01503 0.13669,-0.01503 0.147835,-0.07007 0.147822,-0.07007 0.17195,-0.204892 0.171945,-0.204897 0.04524,-0.18398 0.04523,-0.183979 -0.0265,-0.158507 -0.02654,-0.158504 -0.08464,-0.149217 -0.08465,-0.149217 -0.133683,-0.149248 -0.133691,-0.149248 -0.438562,-0.367567 -0.438553,-0.367567 -0.467846,0.557964 -0.467842,0.55796 -0.262188,-0.21936 -0.262179,-0.219365 0.650281,-0.775542 0.650281,-0.775546 0.876771,0.747116 0.876766,0.747121 0.102624,0.1536 0.102629,0.153601 0.08755,0.197508 0.08755,0.197512 0.02424,0.252785 0.02424,0.25279 -0.04716,0.178152 -0.04716,0.178147 -0.06721,0.133055 -0.06721,0.133055 -0.191379,0.227483 -0.191379,0.227483 -0.173583,0.106547 -0.173592,0.106549 -0.159791,0.05047 -0.159782,0.05047 -0.190938,0.0067 -0.190938,0.0067 -0.194454,-0.04694 -0.194464,-0.04694 -0.07423,0.894002 -0.07419,0.894005 -0.01037,0.01233 -0.01037,0.01234 -0.278817,-0.23423 -0.278812,-0.234228 0.07351,-0.827912 0.07351,-0.827913 -0.518355,-0.434326 -0.518355,-0.434332 -0.439203,0.523804 -0.439198,0.523798 z m 3.214604,2.689567 -0.262179,-0.219362 1.441718,-1.719434 1.441719,-1.719435 0.262188,0.219364 0.262179,0.21936 -1.441718,1.719436 -1.441723,1.719433 z m 2.804234,2.346219 -1.265325,-1.05866 1.441723,-1.719433 1.441718,-1.719434 0.421775,0.352886 0.421775,0.352888 -1.145737,1.366437 -1.145742,1.366437 0.84355,0.705774 0.84355,0.705773 -0.295981,0.352996 -0.295981,0.352996 z m 1.806379,1.502533 -0.433512,-0.352145 0.0456,-0.03235 0.04559,-0.03235 2.154954,-1.053918 2.154959,-1.053917 0.405837,0.350109 0.405836,0.350112 -0.671431,2.343571 -0.671431,2.343574 -0.0053,0.0063 -0.0053,0.0063 -0.440095,-0.36822 -0.440103,-0.36822 0.158333,-0.487065 0.158333,-0.487066 -0.766422,-0.641562 -0.766423,-0.641561 -0.448087,0.235425 -0.448082,0.235423 -0.433508,-0.352144 z m 2.655295,-0.133371 0.481213,0.402616 0.01836,-0.05244 0.01836,-0.05244 0.231954,-0.725278 0.231957,-0.725278 -0.01179,-0.01081 -0.01179,-0.01082 -0.706812,0.370467 -0.706812,0.370466 -0.013,0.01546 -0.01296,0.01546 z m 1.944279,3.979885 -1.085685,-0.891215 1.444378,-1.722603 1.444378,-1.7226 1.047725,0.890217 1.04773,0.890217 0.103359,0.154318 0.103364,0.154322 0.07346,0.153803 0.07346,0.153802 0.02475,0.202684 0.0248,0.202685 -0.04443,0.180782 -0.04443,0.180782 -0.191353,0.228217 -0.19136,0.22822 -0.199624,0.08811 -0.199623,0.08811 -0.199978,0.01096 -0.199986,0.01095 0.0614,0.165489 0.0614,0.165487 0.0104,0.157911 0.01045,0.157913 -0.04081,0.179 -0.0408,0.178999 -0.229152,0.273287 -0.229148,0.273289 -0.170374,0.07541 -0.170378,0.0754 -0.204722,0.01121 -0.204713,0.01122 -0.19643,-0.05463 -0.196435,-0.05463 -0.203006,-0.102961 -0.203007,-0.102963 z m 0.842878,-0.380657 0.552201,0.440225 0.118652,0.05342 0.118652,0.05343 0.141992,-0.0028 0.141992,-0.0028 0.104267,-0.08008 0.10427,-0.08008 0.04833,-0.1041 0.04832,-0.1041 -0.01247,-0.113097 -0.01247,-0.113095 -0.05707,-0.117004 -0.05706,-0.117003 -0.557715,-0.479919 -0.557715,-0.479919 -0.338181,0.403324 -0.338184,0.403322 z m 1.041876,-1.520163 0.405146,0.338019 0.16426,0.08765 0.164261,0.08765 0.09424,0.01109 0.09424,0.01108 0.10545,-0.03561 0.105445,-0.03561 0.08593,-0.102482 0.08593,-0.102484 0.01617,-0.107122 0.01617,-0.107121 -0.06495,-0.146821 -0.06495,-0.146819 -0.489756,-0.422171 -0.489761,-0.422171 -0.31641,0.377363 -0.316415,0.377362 0.404989,0.338207 z m 1.759858,4.94502 -0.38285,-0.306772 -0.139313,-0.169976 -0.139314,-0.169976 -0.122251,-0.186932 -0.12225,-0.18693 -0.08624,-0.199854 -0.08625,-0.199856 -0.01425,-0.08414 -0.01425,-0.08415 0.376058,-0.18039 0.376067,-0.18039 0.02074,-0.0018 0.02074,-0.0018 0.08002,0.223616 0.08002,0.223617 0.156031,0.253431 0.156036,0.25343 0.318082,0.268358 0.318081,0.268358 0.156093,0.03812 0.156092,0.03812 0.102742,-0.03469 0.102733,-0.03469 0.05105,-0.06088 0.05105,-0.06088 -2.9e-4,-0.121156 -2.9e-4,-0.121155 -0.05002,-0.117587 -0.05002,-0.117587 -0.309448,-0.431016 -0.309453,-0.431015 -0.09347,-0.156524 -0.09347,-0.156524 -0.06248,-0.158509 -0.06248,-0.158506 -0.01156,-0.232552 -0.01156,-0.232549 0.05647,-0.138621 0.05647,-0.138624 0.09067,-0.137265 0.09065,-0.137281 0.173734,-0.136579 0.173734,-0.136578 0.159529,-0.06275 0.159524,-0.06275 0.206954,-0.0089 0.206955,-0.0089 0.205775,0.05072 0.205779,0.05072 0.182829,0.08267 0.182834,0.08268 0.399012,0.333767 0.399016,0.333765 0.161849,0.223362 0.161844,0.223359 0.107447,0.230416 0.107447,0.230415 -0.02088,0.02488 -0.02089,0.02487 -0.360016,0.192857 -0.360016,0.192856 -0.02098,-0.01756 -0.02098,-0.01756 -0.07576,-0.175992 -0.07575,-0.175989 -0.125425,-0.195772 -0.125429,-0.195773 -0.284979,-0.238437 -0.284983,-0.238436 -0.151755,-0.03703 -0.151752,-0.03703 -0.109415,0.03622 -0.109419,0.03622 -0.07082,0.08447 -0.07082,0.08447 0.01026,0.115598 0.01026,0.1156 0.09316,0.16423 0.09316,0.164231 0.220188,0.295229 0.220185,0.295224 0.160904,0.254349 0.1609,0.254348 0.06148,0.20979 0.06148,0.209787 -0.0076,0.170516 -0.0076,0.17052 -0.06821,0.154946 -0.06822,0.154942 -0.182988,0.199745 -0.182992,0.199743 -0.2017,0.09379 -0.201705,0.09378 -0.201695,0.01514 -0.201694,0.01514 -0.19474,-0.04158 -0.194735,-0.04158 -0.201972,-0.08298 -0.201972,-0.08298 -0.382854,-0.306772 z m -18.632881,-20.688905 -1.219722,-1.020512 0.181407,-0.216353 0.181407,-0.216353 1.219731,1.020513 1.219722,1.020508 -0.181407,0.216353 -0.181407,0.216353 z"
       id="path8825" /></g></svg>
