<?xml version="1.0" encoding="UTF-8" standalone="no"?>
<!-- Created with Inkscape (http://www.inkscape.org/) -->

<svg
   width="133.75301"
   height="200"
   viewBox="0 0 35.388816 52.916666"
   version="1.1"
   id="svg1"
   xml:space="preserve"
   inkscape:version="1.4 (e7c3feb100, 2024-10-09)"
   sodipodi:docname="gestures.svg"
   xmlns:inkscape="http://www.inkscape.org/namespaces/inkscape"
   xmlns:sodipodi="http://sodipodi.sourceforge.net/DTD/sodipodi-0.dtd"
   xmlns="http://www.w3.org/2000/svg"
   xmlns:svg="http://www.w3.org/2000/svg"><sodipodi:namedview
     id="namedview1"
     pagecolor="#ffffff"
     bordercolor="#000000"
     borderopacity="0.25"
     inkscape:showpageshadow="2"
     inkscape:pageopacity="0.0"
     inkscape:pagecheckerboard="0"
     inkscape:deskcolor="#d1d1d1"
     inkscape:document-units="mm"
     inkscape:zoom="1.8696268"
     inkscape:cx="126.49583"
     inkscape:cy="127.29813"
     inkscape:window-width="1680"
     inkscape:window-height="986"
     inkscape:window-x="0"
     inkscape:window-y="0"
     inkscape:window-maximized="1"
     inkscape:current-layer="layer1" /><defs
     id="defs1"><rect
       x="18.153957"
       y="399.38705"
       width="258.69388"
       height="363.07913"
       id="rect2" /><rect
       x="23.534107"
       y="1006.618"
       width="547.70288"
       height="48.672813"
       id="rect1" /><rect
       x="23.534107"
       y="1006.618"
       width="547.70288"
       height="48.672813"
       id="rect1-9" /><rect
       x="23.534107"
       y="1006.618"
       width="149.82864"
       height="83.467896"
       id="rect1-9-7" /><rect
       x="23.534107"
       y="1006.618"
       width="162.68771"
       height="91.78846"
       id="rect1-9-7-1" /></defs><g
     inkscape:label="Taso 1"
     inkscape:groupmode="layer"
     id="layer1"><path
       style="fill:#030303;stroke-width:0.118567"
       d="m 25.478242,50.917187 h -0.03128 V 50.300176 49.683162 H 13.476335 1.5057367 v -0.36708 -0.367083 H 13.476335 25.446944 v -0.618313 -0.618312 l 0.05327,0.0052 0.05327,0.0052 4.104479,0.795981 4.104473,0.795977 -0.04682,0.01069 -0.04682,0.01069 -4.079661,0.790556 -4.079653,0.790557 z"
       id="path1"
       inkscape:export-filename="tweak.png"
       inkscape:export-xdpi="28.230381"
       inkscape:export-ydpi="28.230381" /><path
       style="fill:#030303;stroke-width:0.118567"
       d="m 9.7899257,47.228176 h 0.03128 V 46.611165 45.994151 H 21.79183 33.762431 v -0.36708 -0.367086 H 21.79183 9.8212236 v -0.61831 -0.618313 l -0.05327,0.0052 -0.05327,0.0052 -4.104478,0.795975 -4.1044739,0.79598 0.04682,0.01069 0.04682,0.01069 4.079661,0.790554 4.0796529,0.790559 z"
       id="path1-2" /><path
       style="fill:#030303;stroke-width:0.0877281"
       d="m 9.9280703,14.005184 v -0.0164 H 9.2835246 8.6389752 V 7.7154243 1.442078 H 8.2555101 7.8720461 V 7.7154243 13.988774 H 7.2261417 6.5802332 l 0.0054,0.02792 0.0054,0.02792 0.831501,2.151004 0.8315019,2.151004 0.01115,-0.02454 0.01115,-0.02454 0.825835,-2.138 0.8258372,-2.137994 z"
       id="path1-2-6" /><path
       style="fill:#030303;stroke-width:0.0877281"
       d="m 13.287253,14.007624 v -0.0164 h -0.644545 -0.64455 V 7.7178693 1.444523 H 11.614693 11.231229 V 7.7178693 13.991218 H 10.585325 9.9394173 l 0.0054,0.02792 0.0054,0.02792 0.8314997,2.151003 0.831502,2.151004 0.01115,-0.02453 0.01115,-0.02454 0.825836,-2.138001 0.825837,-2.137994 z"
       id="path1-2-6-9" /><path
       style="fill:#030303;stroke-width:0.0877281"
       d="m 24.26467,14.005184 v -0.0164 H 23.620126 22.975575 V 7.7154243 1.442078 H 22.59211 22.208646 v 6.2733463 6.2733497 h -0.645905 -0.645908 l 0.0054,0.02792 0.0055,0.02792 0.8315,2.151004 0.8315,2.151004 0.01117,-0.02454 0.01116,-0.02454 0.825834,-2.138 0.825837,-2.137994 z"
       id="path1-2-6-3" /><path
       style="fill:#030303;stroke-width:0.0877281"
       d="m 27.623854,14.007624 v -0.0164 h -0.644545 -0.64455 V 7.7178693 1.444523 H 25.951294 25.56783 v 6.2733463 6.2733487 h -0.645905 -0.645907 l 0.0055,0.02792 0.0055,0.02792 0.831501,2.151003 0.831499,2.151004 0.01116,-0.02453 0.01116,-0.02454 0.825834,-2.138001 0.82584,-2.137994 z"
       id="path1-2-6-9-7" /><path
       style="fill:#030303;stroke-width:0.0877281"
       d="m 31.004136,14.005184 v -0.0164 H 30.359588 29.715039 V 7.7154243 1.442078 h -0.383462 -0.383468 v 6.2733463 6.2733497 h -0.645902 -0.64591 l 0.0055,0.02792 0.0054,0.02792 0.831501,2.151004 0.831499,2.151004 0.01117,-0.02453 0.01116,-0.02454 0.825837,-2.138 0.825836,-2.137994 z"
       id="path1-2-6-9-7-2" /><text
       xml:space="preserve"
       transform="matrix(0.08466455,0,0,0.08466476,-0.15921121,-37.50496)"
       id="text1"
       style="font-weight:bold;font-size:16px;line-height:1;font-family:DINOT;-inkscape-font-specification:'DINOT Bold';text-align:start;writing-mode:lr-tb;direction:ltr;white-space:pre;shape-inside:url(#rect1);display:inline;fill:none;stroke:#ffffff;stroke-width:3.40157;stroke-linecap:round;stroke-linejoin:round"><tspan
         x="23.533203"
         y="1018.8412"
         id="tspan6"><tspan
           style="fill:#000000;stroke:none"
           id="tspan5">SWITCH TO NEXT OPEN APP AT RIGHT</tspan></tspan></text><text
       xml:space="preserve"
       transform="matrix(0.08466455,0,0,0.08466476,8.1955383,-41.243334)"
       id="text1-6"
       style="font-weight:bold;font-size:16px;line-height:1;font-family:DINOT;-inkscape-font-specification:'DINOT Bold';text-align:start;writing-mode:lr-tb;direction:ltr;white-space:pre;shape-inside:url(#rect1-9);display:inline;fill:none;stroke:#ffffff;stroke-width:3.40157;stroke-linecap:round;stroke-linejoin:round"><tspan
         x="23.533203"
         y="1018.8412"
         id="tspan8"><tspan
           style="fill:#000000;stroke:none"
           id="tspan7">SWITCH TO NEXT OPEN APP AT LEFT</tspan></tspan></text><text
       xml:space="preserve"
       transform="matrix(0.08844313,0,0,0.08844335,1.2132844,-70.102217)"
       id="text1-6-6"
       style="font-weight:bold;font-size:16px;line-height:1;font-family:DINOT;-inkscape-font-specification:'DINOT Bold';text-align:start;writing-mode:lr-tb;direction:ltr;white-space:pre;shape-inside:url(#rect1-9-7);display:inline;fill:none;stroke:#ffffff;stroke-width:3.40157;stroke-linecap:round;stroke-linejoin:round"
       x="51.919998"
       y="0"><tspan
         x="25.856277"
         y="1018.8412"
         id="tspan10"><tspan
           style="text-align:center;text-anchor:middle;fill:#000000;stroke:none"
           id="tspan9">TWO FINGER SWIPE </tspan></tspan><tspan
         x="22.160278"
         y="1034.8412"
         id="tspan12"><tspan
           style="text-align:center;text-anchor:middle;fill:#000000;stroke:none"
           id="tspan11">FROM TOP TO DOWN 
</tspan></tspan><tspan
         x="40.224228"
         y="1050.8412"
         id="tspan14"><tspan
           style="text-align:center;text-anchor:middle;fill:#000000;stroke:none"
           id="tspan13">WILL SIMULATE </tspan></tspan><tspan
         x="69.800247"
         y="1066.8412"
         id="tspan16"><tspan
           style="text-align:center;text-anchor:middle;fill:#000000;stroke:none"
           id="tspan15">CTRL+A</tspan></tspan></text><text
       xml:space="preserve"
       transform="matrix(0.08844313,0,0,0.08844335,16.499183,-70.102217)"
       id="text1-6-6-4"
       style="font-weight:bold;font-size:16px;line-height:1;font-family:DINOT;-inkscape-font-specification:'DINOT Bold';text-align:start;writing-mode:lr-tb;direction:ltr;white-space:pre;shape-inside:url(#rect1-9-7-1);display:inline;fill:none;stroke:#ffffff;stroke-width:3.40157;stroke-linecap:round;stroke-linejoin:round"
       x="51.919998"
       y="0"><tspan
         x="24.061966"
         y="1018.8412"
         id="tspan18"><tspan
           style="text-align:center;text-anchor:middle;fill:#000000;stroke:none"
           id="tspan17">THREE FINGER SWIPE </tspan></tspan><tspan
         x="28.589966"
         y="1034.8412"
         id="tspan20"><tspan
           style="text-align:center;text-anchor:middle;fill:#000000;stroke:none"
           id="tspan19">FROM TOP TO DOWN 
</tspan></tspan><tspan
         x="39.149902"
         y="1050.8412"
         id="tspan22"><tspan
           style="text-align:center;text-anchor:middle;fill:#000000;stroke:none"
           id="tspan21">WILL KILL ACTIVE </tspan></tspan><tspan
         x="89.725922"
         y="1066.8412"
         id="tspan24"><tspan
           style="text-align:center;text-anchor:middle;fill:#000000;stroke:none"
           id="tspan23">APP</tspan></tspan></text><text
       xml:space="preserve"
       transform="scale(0.26458333)"
       id="text2"
       style="font-weight:bold;font-size:16px;line-height:1;font-family:DINOT;-inkscape-font-specification:'DINOT Bold';text-align:start;writing-mode:lr-tb;direction:ltr;white-space:pre;shape-inside:url(#rect2);display:inline;fill:#000000;fill-opacity:1;stroke:none;stroke-width:3.40157;stroke-linecap:round;stroke-linejoin:round" /><rect
       style="fill:none;fill-opacity:1;stroke:#000000;stroke-width:1.67137;stroke-linecap:round;stroke-linejoin:round;stroke-dasharray:none;stroke-opacity:1"
       id="rect4"
       width="33.717445"
       height="51.2453"
       x="0.835684"
       y="0.835684"
       rx="3.3427327" /><ellipse
       style="fill:none;fill-opacity:1;stroke:#000000;stroke-width:1.67137;stroke-linecap:round;stroke-linejoin:round;stroke-dasharray:none;stroke-opacity:1"
       id="path4"
       cx="4.8496671"
       cy="4.5820761"
       rx="0.83568317"
       ry="0.83568525" /></g></svg>
