<?xml version="1.0" encoding="UTF-8" standalone="no"?>
<!-- Created with Inkscape (http://www.inkscape.org/) -->

<svg
   width="133.75301"
   height="400"
   viewBox="0 0 35.388816 105.83333"
   version="1.1"
   id="svg1"
   xml:space="preserve"
   inkscape:version="1.4 (e7c3feb100, 2024-10-09)"
   sodipodi:docname="gestures.svg"
   xmlns:inkscape="http://www.inkscape.org/namespaces/inkscape"
   xmlns:sodipodi="http://sodipodi.sourceforge.net/DTD/sodipodi-0.dtd"
   xmlns="http://www.w3.org/2000/svg"
   xmlns:svg="http://www.w3.org/2000/svg"><sodipodi:namedview
     id="namedview1"
     pagecolor="#ffffff"
     bordercolor="#000000"
     borderopacity="0.25"
     inkscape:showpageshadow="2"
     inkscape:pageopacity="0.0"
     inkscape:pagecheckerboard="0"
     inkscape:deskcolor="#d1d1d1"
     inkscape:document-units="mm"
     inkscape:zoom="1.3220258"
     inkscape:cx="130.48157"
     inkscape:cy="228.43729"
     inkscape:window-width="1680"
     inkscape:window-height="986"
     inkscape:window-x="0"
     inkscape:window-y="0"
     inkscape:window-maximized="1"
     inkscape:current-layer="layer1" /><defs
     id="defs1"><rect
       x="18.153957"
       y="399.38705"
       width="258.69388"
       height="363.07913"
       id="rect2" /><rect
       x="23.534107"
       y="1006.618"
       width="301.15688"
       height="136.42626"
       id="rect1" /><rect
       x="23.534107"
       y="1006.618"
       width="547.70288"
       height="48.672813"
       id="rect1-9" /><rect
       x="23.534107"
       y="1006.618"
       width="152.22877"
       height="433.88596"
       id="rect1-9-7" /><rect
       x="23.534107"
       y="1006.618"
       width="157.88745"
       height="393.40401"
       id="rect1-9-7-1" /><rect
       x="23.534107"
       y="1006.618"
       width="301.15689"
       height="136.42625"
       id="rect1-6" /></defs><g
     inkscape:label="Taso 1"
     inkscape:groupmode="layer"
     id="layer1"><path
       style="fill:#030303;stroke-width:0.118567"
       d="m 25.295422,103.15236 h -0.03128 v -0.61701 -0.61701 H 13.293515 1.3229167 v -0.36708 -0.36709 H 13.293515 25.264124 v -0.61831 -0.618311 l 0.05327,0.0052 0.05327,0.0052 4.104479,0.795981 4.104473,0.79598 -0.04682,0.0107 -0.04682,0.0107 -4.079661,0.79055 -4.079653,0.79056 z"
       id="path1"
       inkscape:export-filename="tweak.png"
       inkscape:export-xdpi="28.230381"
       inkscape:export-ydpi="28.230381" /><path
       style="fill:#030303;stroke-width:0.118567"
       d="m 10.136278,96.033822 h 0.03128 v -0.61701 -0.61701 h 11.970627 11.970598 v -0.36708 -0.36709 H 22.138185 10.167576 v -0.61831 -0.61831 l -0.05327,0.005 -0.05327,0.005 -4.1044797,0.79598 -4.104473,0.79598 0.04682,0.0107 0.04682,0.0107 4.079661,0.79055 4.0796537,0.79056 z"
       id="path1-3"
       inkscape:export-filename="tweak.png"
       inkscape:export-xdpi="28.230381"
       inkscape:export-ydpi="28.230381" /><path
       style="fill:#030303;stroke-width:0.0877281"
       d="m 9.9280703,14.005184 v -0.0164 H 9.2835246 8.6389752 V 7.7154243 1.442078 H 8.2555101 7.8720461 V 7.7154243 13.988774 H 7.2261417 6.5802332 l 0.0054,0.02792 0.0054,0.02792 0.831501,2.151004 0.8315019,2.151004 0.01115,-0.02454 0.01115,-0.02454 0.825835,-2.138 0.8258372,-2.137994 z"
       id="path1-2-6" /><path
       style="fill:#030303;stroke-width:0.0877281"
       d="m 13.287253,14.007624 v -0.0164 h -0.644545 -0.64455 V 7.7178693 1.444523 H 11.614693 11.231229 V 7.7178693 13.991218 H 10.585325 9.9394173 l 0.0054,0.02792 0.0054,0.02792 0.8314997,2.151003 0.831502,2.151004 0.01115,-0.02453 0.01115,-0.02454 0.825836,-2.138001 0.825837,-2.137994 z"
       id="path1-2-6-9" /><path
       style="fill:#030303;stroke-width:0.0877281"
       d="m 24.26467,14.005184 v -0.0164 H 23.620126 22.975575 V 7.7154243 1.442078 H 22.59211 22.208646 v 6.2733463 6.2733497 h -0.645905 -0.645908 l 0.0054,0.02792 0.0055,0.02792 0.8315,2.151004 0.8315,2.151004 0.01117,-0.02454 0.01116,-0.02454 0.825834,-2.138 0.825837,-2.137994 z"
       id="path1-2-6-3" /><path
       style="fill:#030303;stroke-width:0.0877281"
       d="m 27.623854,14.007624 v -0.0164 h -0.644545 -0.64455 V 7.7178693 1.444523 H 25.951294 25.56783 v 6.2733463 6.2733487 h -0.645905 -0.645907 l 0.0055,0.02792 0.0055,0.02792 0.831501,2.151003 0.831499,2.151004 0.01116,-0.02453 0.01116,-0.02454 0.825834,-2.138001 0.82584,-2.137994 z"
       id="path1-2-6-9-7" /><path
       style="fill:#030303;stroke-width:0.0877281"
       d="m 31.004136,14.005184 v -0.0164 H 30.359588 29.715039 V 7.7154243 1.442078 h -0.383462 -0.383468 v 6.2733463 6.2733497 h -0.645902 -0.64591 l 0.0055,0.02792 0.0054,0.02792 0.831501,2.151004 0.831499,2.151004 0.01117,-0.02453 0.01116,-0.02454 0.825837,-2.138 0.825836,-2.137994 z"
       id="path1-2-6-9-7-2" /><path
       style="font-weight:bold;font-size:29.1674px;line-height:1;font-family:DINOT;-inkscape-font-specification:'DINOT Bold';text-align:center;text-anchor:middle;white-space:pre;stroke-width:3.40157;stroke-linecap:round;stroke-linejoin:round"
       d="m 76.3724,1022.7759 c 0,-1.8375 -0.495846,-3.3542 -1.604207,-4.4043 -0.875022,-0.8166 -2.070885,-1.3417 -3.966766,-1.6042 l -2.450062,-0.35 c -0.845855,-0.1166 -1.516705,-0.4375 -1.925048,-0.8167 -0.437511,-0.4083 -0.612516,-0.9625 -0.612516,-1.4875 0,-1.4292 1.050027,-2.6251 3.208414,-2.6251 1.370868,0 2.945908,0.175 4.258441,1.4292 l 2.566731,-2.5375 c -1.779211,-1.7209 -3.850097,-2.4209 -6.708502,-2.4209 -4.49178,0 -7.233515,2.5959 -7.233515,6.3001 0,1.7501 0.495845,3.0918 1.487537,4.0835 0.933357,0.9042 2.24589,1.4584 4.025101,1.7209 l 2.508397,0.35 c 0.962524,0.1458 1.429202,0.35 1.837546,0.7292 0.437511,0.4083 0.641683,1.0208 0.641683,1.75 0,1.6625 -1.283366,2.5667 -3.675093,2.5667 -1.925048,0 -3.70426,-0.4375 -5.016793,-1.75 l -2.625066,2.6251 c 2.041718,2.0708 4.433445,2.7417 7.583524,2.7417 4.345943,0 7.700194,-2.2751 7.700194,-6.3002 z m 27.0965,-14.642 h -4.229269 l -3.237581,13.0962 -3.791762,-13.0962 h -3.03341 l -3.791762,13.0962 -3.208414,-13.0962 h -4.229273 l 5.541806,20.7672 h 3.383418 l 3.82093,-12.6003 3.820929,12.6003 h 3.383419 z m 6.65015,20.7672 v -20.7672 h -4.05427 v 20.7672 z m 18.20046,-17.1505 v -3.6167 h -14.90454 v 3.6167 h 5.42514 v 17.1505 h 4.05427 v -17.1505 z m 17.29623,10.7628 h -4.1126 c -0.43751,1.7792 -1.54587,2.9459 -3.50009,2.9459 -1.10836,0 -1.98338,-0.35 -2.5959,-1.0792 -0.84585,-0.9042 -1.02086,-1.8375 -1.02086,-5.8626 0,-4.0251 0.17501,-4.9585 1.02086,-5.8627 0.61252,-0.7291 1.48754,-1.0792 2.5959,-1.0792 1.95422,0 3.06258,1.1667 3.50009,2.946 h 4.1126 c -0.70002,-4.2293 -3.64592,-6.5627 -7.64186,-6.5627 -2.21672,0 -4.08343,0.7583 -5.60014,2.275 -0.90419,0.9042 -1.45837,1.9251 -1.69171,3.121 -0.23334,1.1667 -0.35001,2.8875 -0.35001,5.1626 0,2.275 0.11667,3.9959 0.35001,5.1626 0.23334,1.1667 0.78752,2.2167 1.69171,3.1209 1.51671,1.5167 3.38342,2.2751 5.60014,2.2751 3.96677,0 6.94184,-2.3334 7.64186,-6.5627 z m 18.638,6.3877 v -20.7672 h -4.05427 v 8.4877 h -7.02934 v -8.4877 h -4.05427 v 20.7672 h 4.05427 v -8.6919 h 7.02934 v 8.6919 z m 24.96728,-17.1505 v -3.6167 h -14.90454 v 3.6167 h 5.42514 v 17.1505 h 4.05427 v -17.1505 z m 17.35458,6.7669 c 0,-3.5876 0.0292,-6.1835 -2.07089,-8.2836 -1.45837,-1.4583 -3.23758,-2.275 -5.60014,-2.275 -2.36256,0 -4.17094,0.8167 -5.62931,2.275 -2.10005,2.1001 -2.04172,4.696 -2.04172,8.2836 0,3.5876 -0.0583,6.1835 2.04172,8.2835 1.45837,1.4584 3.26675,2.2751 5.62931,2.2751 2.36256,0 4.14177,-0.8167 5.60014,-2.2751 2.10005,-2.1 2.07089,-4.6959 2.07089,-8.2835 z m -4.05427,0 c 0,3.9959 -0.23334,4.9584 -1.02086,5.8335 -0.58335,0.6708 -1.48754,1.1083 -2.5959,1.1083 -1.10836,0 -2.04172,-0.4375 -2.62507,-1.1083 -0.78752,-0.8751 -0.99169,-1.8376 -0.99169,-5.8335 0,-3.9959 0.20417,-4.9585 0.99169,-5.8335 0.58335,-0.6708 1.51671,-1.1084 2.62507,-1.1084 1.10836,0 2.01255,0.4376 2.5959,1.1084 0.78752,0.875 1.02086,1.8376 1.02086,5.8335 z m 30.85908,10.3836 v -20.7672 h -4.05427 v 12.717 l -8.22521,-12.717 h -3.61676 v 20.7672 h 4.05427 v -12.7462 l 8.22521,12.7462 z m 18.52131,0 v -3.6168 h -9.62524 v -5.0459 h 8.19604 v -3.6168 h -8.19604 v -4.871 h 9.62524 v -3.6167 h -13.67951 v 20.7672 z m 18.98797,0 -6.47516,-10.6461 6.03765,-10.1211 h -4.57928 l -3.64592,6.7085 -3.61676,-6.7085 h -4.60845 l 6.03765,10.1211 -6.446,10.6461 h 4.63762 l 3.99594,-7.2335 4.0251,7.2335 z m 15.92541,-17.1505 v -3.6167 h -14.90454 v 3.6167 h 5.42514 v 17.1505 h 4.05427 v -17.1505 z m -229.503635,35.9342 c 0,-3.5875 0.02917,-6.1834 -2.070885,-8.2835 -1.45837,-1.4584 -3.237582,-2.2751 -5.600141,-2.2751 -2.362559,0 -4.170938,0.8167 -5.629308,2.2751 -2.100053,2.1001 -2.041718,4.696 -2.041718,8.2835 0,3.5876 -0.05833,6.1835 2.041718,8.2836 1.45837,1.4584 3.266749,2.275 5.629308,2.275 2.362559,0 4.141771,-0.8166 5.600141,-2.275 2.100053,-2.1001 2.070885,-4.696 2.070885,-8.2836 z m -4.054268,0 c 0,3.996 -0.23334,4.9585 -1.020859,5.8335 -0.583348,0.6709 -1.487538,1.1084 -2.595899,1.1084 -1.108361,0 -2.041718,-0.4375 -2.625066,-1.1084 -0.78752,-0.875 -0.991692,-1.8375 -0.991692,-5.8335 0,-3.9959 0.204172,-4.9584 0.991692,-5.8334 0.583348,-0.6709 1.516705,-1.1084 2.625066,-1.1084 1.108361,0 2.012551,0.4375 2.595899,1.1084 0.787519,0.875 1.020859,1.8375 1.020859,5.8334 z m 23.100554,-3.9084 c 0,-3.5292 -2.566731,-6.4751 -6.854339,-6.4751 h -8.050203 v 20.7671 h 4.054269 v -7.8168 h 3.995934 c 4.287608,0 6.854339,-2.9459 6.854339,-6.4752 z m -4.054269,0 c 0,1.6917 -1.166696,2.8293 -3.004242,2.8293 h -3.791762 v -5.6877 h 3.791762 c 1.837546,0 3.004242,1.1667 3.004242,2.8584 z m 21.146373,14.292 v -3.6167 h -9.625242 v -5.046 h 8.196039 v -3.6167 h -8.196039 v -4.871 h 9.625242 v -3.6167 H 79.770344 v 20.7671 z m 19.862985,0 v -20.7671 h -4.05427 v 12.7169 l -8.2252,-12.7169 h -3.616763 v 20.7671 h 4.054273 v -12.7461 l 8.2252,12.7461 z m 27.65072,0 -7.58352,-20.7671 h -3.17925 l -7.55436,20.7671 h 4.22928 l 1.25419,-3.6751 h 7.37936 l 1.22503,3.6751 z m -6.5335,-7.0876 h -5.16263 l 2.62507,-7.5544 z m 24.00479,-7.2044 c 0,-3.5292 -2.56673,-6.4751 -6.85434,-6.4751 h -8.0502 v 20.7671 h 4.05427 v -7.8168 h 3.99593 c 4.28761,0 6.85434,-2.9459 6.85434,-6.4752 z m -4.05427,0 c 0,1.6917 -1.16669,2.8293 -3.00424,2.8293 h -3.79176 v -5.6877 h 3.79176 c 1.83755,0 3.00424,1.1667 3.00424,2.8584 z m 22.3714,0 c 0,-3.5292 -2.56673,-6.4751 -6.85434,-6.4751 h -8.0502 v 20.7671 h 4.05427 v -7.8168 h 3.99593 c 4.28761,0 6.85434,-2.9459 6.85434,-6.4752 z m -4.05427,0 c 0,1.6917 -1.16669,2.8293 -3.00424,2.8293 h -3.79176 v -5.6877 h 3.79176 c 1.83755,0 3.00424,1.1667 3.00424,2.8584 z m 30.27578,14.292 -7.58352,-20.7671 h -3.17925 l -7.55435,20.7671 h 4.22927 l 1.2542,-3.6751 h 7.37935 l 1.22503,3.6751 z m -6.53349,-7.0876 h -5.16263 l 2.62506,-7.5544 z m 20.70887,-10.0628 v -3.6167 h -14.90454 v 3.6167 h 5.42514 v 17.1504 h 4.05427 v -17.1504 z m 25.78398,17.1504 -4.63762,-8.9544 c 2.01255,-0.7291 3.79177,-2.5375 3.79177,-5.4543 0,-3.4709 -2.5084,-6.3584 -6.73767,-6.3584 h -8.13771 v 20.7671 h 4.05427 v -8.2835 h 2.91674 l 4.05427,8.2835 z m -4.90012,-14.4087 c 0,1.6043 -1.1667,2.7418 -2.94591,2.7418 h -3.82093 v -5.4835 h 3.82093 c 1.77921,0 2.94591,1.1375 2.94591,2.7417 z m 12.30861,14.4087 v -20.7671 h -4.05426 v 20.7671 z m 19.62968,-8.5168 v -3.0335 h -7.84603 v 3.3835 h 3.82093 v 0.7875 c 0,1.1375 -0.32084,2.0709 -0.93336,2.7709 -0.72918,0.7875 -1.69171,1.1667 -2.88757,1.1667 -1.10836,0 -1.98338,-0.35 -2.5959,-1.0792 -0.81669,-0.9625 -0.99169,-1.7792 -0.99169,-5.8627 0,-4.1126 0.23334,-4.8709 0.99169,-5.8334 0.64168,-0.7292 1.51671,-1.1084 2.5959,-1.1084 2.01255,0 3.23758,1.0209 3.73343,3.0334 h 4.08343 c -0.55418,-3.6167 -3.09174,-6.6502 -7.81686,-6.6502 -2.21672,0 -4.08344,0.7584 -5.60014,2.2751 -0.90419,0.9042 -1.45837,1.9251 -1.69171,3.1209 -0.23334,1.1667 -0.35001,2.8876 -0.35001,5.1626 0,2.2751 0.11667,3.996 0.35001,5.1627 0.23334,1.1667 0.78752,2.2167 1.69171,3.1209 1.5167,1.5167 3.38342,2.275 5.60014,2.275 2.33339,0 4.25844,-0.7291 5.86265,-2.3625 1.4292,-1.5167 1.98338,-3.2959 1.98338,-6.3293 z m 18.92961,8.5168 v -20.7671 h -4.05426 v 8.4877 h -7.02935 v -8.4877 h -4.05427 v 20.7671 h 4.05427 v -8.6918 h 7.02935 v 8.6918 z m 18.20045,-17.1504 v -3.6167 h -14.90454 v 3.6167 h 5.42514 v 17.1504 h 4.05427 v -17.1504 z"
       id="text1"
       transform="matrix(0.08466455,0,0,0.08466476,-0.79603607,11.106011)"
       aria-label="SWITCH TO NEXT OPEN APP AT RIGHT" /><g
       id="text1-5"
       style="font-weight:bold;font-size:29.1674px;line-height:1;font-family:DINOT;-inkscape-font-specification:'DINOT Bold';white-space:pre;fill:none;stroke:#ffffff;stroke-width:3.40157;stroke-linecap:round;stroke-linejoin:round"
       transform="matrix(0.08466455,0,0,0.08466476,6.8915505,4.0723186)"
       aria-label="SWITCH TO NEXT OPEN APP AT LEFT"><path
         style="text-align:center;text-anchor:middle;fill:#000000;stroke:none"
         d="m 76.3724,1022.7759 c 0,-1.8375 -0.495846,-3.3542 -1.604207,-4.4043 -0.875022,-0.8166 -2.070885,-1.3417 -3.966766,-1.6042 l -2.450062,-0.35 c -0.845855,-0.1166 -1.516705,-0.4375 -1.925048,-0.8167 -0.437511,-0.4083 -0.612516,-0.9625 -0.612516,-1.4875 0,-1.4292 1.050027,-2.6251 3.208414,-2.6251 1.370868,0 2.945908,0.175 4.258441,1.4292 l 2.566731,-2.5375 c -1.779211,-1.7209 -3.850097,-2.4209 -6.708502,-2.4209 -4.49178,0 -7.233515,2.5959 -7.233515,6.3001 0,1.7501 0.495845,3.0918 1.487537,4.0835 0.933357,0.9042 2.24589,1.4584 4.025101,1.7209 l 2.508397,0.35 c 0.962524,0.1458 1.429202,0.35 1.837546,0.7292 0.437511,0.4083 0.641683,1.0208 0.641683,1.75 0,1.6625 -1.283366,2.5667 -3.675093,2.5667 -1.925048,0 -3.70426,-0.4375 -5.016793,-1.75 l -2.625066,2.6251 c 2.041718,2.0708 4.433445,2.7417 7.583524,2.7417 4.345943,0 7.700194,-2.2751 7.700194,-6.3002 z m 27.0965,-14.642 h -4.229269 l -3.237581,13.0962 -3.791762,-13.0962 h -3.03341 l -3.791762,13.0962 -3.208414,-13.0962 h -4.229273 l 5.541806,20.7672 h 3.383418 l 3.82093,-12.6003 3.820929,12.6003 h 3.383419 z m 6.65015,20.7672 v -20.7672 h -4.05427 v 20.7672 z m 18.20046,-17.1505 v -3.6167 h -14.90454 v 3.6167 h 5.42514 v 17.1505 h 4.05427 v -17.1505 z m 17.29623,10.7628 h -4.1126 c -0.43751,1.7792 -1.54587,2.9459 -3.50009,2.9459 -1.10836,0 -1.98338,-0.35 -2.5959,-1.0792 -0.84585,-0.9042 -1.02086,-1.8375 -1.02086,-5.8626 0,-4.0251 0.17501,-4.9585 1.02086,-5.8627 0.61252,-0.7291 1.48754,-1.0792 2.5959,-1.0792 1.95422,0 3.06258,1.1667 3.50009,2.946 h 4.1126 c -0.70002,-4.2293 -3.64592,-6.5627 -7.64186,-6.5627 -2.21672,0 -4.08343,0.7583 -5.60014,2.275 -0.90419,0.9042 -1.45837,1.9251 -1.69171,3.121 -0.23334,1.1667 -0.35001,2.8875 -0.35001,5.1626 0,2.275 0.11667,3.9959 0.35001,5.1626 0.23334,1.1667 0.78752,2.2167 1.69171,3.1209 1.51671,1.5167 3.38342,2.2751 5.60014,2.2751 3.96677,0 6.94184,-2.3334 7.64186,-6.5627 z m 18.638,6.3877 v -20.7672 h -4.05427 v 8.4877 h -7.02934 v -8.4877 h -4.05427 v 20.7672 h 4.05427 v -8.6919 h 7.02934 v 8.6919 z m 24.96728,-17.1505 v -3.6167 h -14.90454 v 3.6167 h 5.42514 v 17.1505 h 4.05427 v -17.1505 z m 17.35458,6.7669 c 0,-3.5876 0.0292,-6.1835 -2.07089,-8.2836 -1.45837,-1.4583 -3.23758,-2.275 -5.60014,-2.275 -2.36256,0 -4.17094,0.8167 -5.62931,2.275 -2.10005,2.1001 -2.04172,4.696 -2.04172,8.2836 0,3.5876 -0.0583,6.1835 2.04172,8.2835 1.45837,1.4584 3.26675,2.2751 5.62931,2.2751 2.36256,0 4.14177,-0.8167 5.60014,-2.2751 2.10005,-2.1 2.07089,-4.6959 2.07089,-8.2835 z m -4.05427,0 c 0,3.9959 -0.23334,4.9584 -1.02086,5.8335 -0.58335,0.6708 -1.48754,1.1083 -2.5959,1.1083 -1.10836,0 -2.04172,-0.4375 -2.62507,-1.1083 -0.78752,-0.8751 -0.99169,-1.8376 -0.99169,-5.8335 0,-3.9959 0.20417,-4.9585 0.99169,-5.8335 0.58335,-0.6708 1.51671,-1.1084 2.62507,-1.1084 1.10836,0 2.01255,0.4376 2.5959,1.1084 0.78752,0.875 1.02086,1.8376 1.02086,5.8335 z m 30.85908,10.3836 v -20.7672 h -4.05427 v 12.717 l -8.22521,-12.717 h -3.61676 v 20.7672 h 4.05427 v -12.7462 l 8.22521,12.7462 z m 18.52131,0 v -3.6168 h -9.62524 v -5.0459 h 8.19604 v -3.6168 h -8.19604 v -4.871 h 9.62524 v -3.6167 h -13.67951 v 20.7672 z m 18.98797,0 -6.47516,-10.6461 6.03765,-10.1211 h -4.57928 l -3.64592,6.7085 -3.61676,-6.7085 h -4.60845 l 6.03765,10.1211 -6.446,10.6461 h 4.63762 l 3.99594,-7.2335 4.0251,7.2335 z m 15.92541,-17.1505 v -3.6167 h -14.90454 v 3.6167 h 5.42514 v 17.1505 h 4.05427 v -17.1505 z"
         id="path5" /><path
         style="text-align:center;text-anchor:middle;fill:#000000;stroke:none"
         d="m 64.763704,1047.6848 c 0,-3.5875 0.02917,-6.1834 -2.070886,-8.2835 -1.45837,-1.4584 -3.237581,-2.2751 -5.600141,-2.2751 -2.362559,0 -4.170938,0.8167 -5.629308,2.2751 -2.100053,2.1001 -2.041718,4.696 -2.041718,8.2835 0,3.5876 -0.05833,6.1835 2.041718,8.2836 1.45837,1.4584 3.266749,2.275 5.629308,2.275 2.36256,0 4.141771,-0.8166 5.600141,-2.275 2.100053,-2.1001 2.070886,-4.696 2.070886,-8.2836 z m -4.054269,0 c 0,3.996 -0.233339,4.9585 -1.020859,5.8335 -0.583348,0.6709 -1.487537,1.1084 -2.595899,1.1084 -1.108361,0 -2.041718,-0.4375 -2.625066,-1.1084 -0.78752,-0.875 -0.991691,-1.8375 -0.991691,-5.8335 0,-3.9959 0.204171,-4.9584 0.991691,-5.8334 0.583348,-0.6709 1.516705,-1.1084 2.625066,-1.1084 1.108362,0 2.012551,0.4375 2.595899,1.1084 0.78752,0.875 1.020859,1.8375 1.020859,5.8334 z m 23.100554,-3.9084 c 0,-3.5292 -2.566731,-6.4751 -6.854339,-6.4751 h -8.050202 v 20.7671 h 4.054268 v -7.8168 h 3.995934 c 4.287608,0 6.854339,-2.9459 6.854339,-6.4752 z m -4.054268,0 c 0,1.6917 -1.166696,2.8293 -3.004243,2.8293 h -3.791762 v -5.6877 h 3.791762 c 1.837547,0 3.004243,1.1667 3.004243,2.8584 z m 21.146369,14.292 v -3.6167 h -9.625239 v -5.046 h 8.19604 v -3.6167 h -8.19604 v -4.871 h 9.625239 v -3.6167 H 87.222583 v 20.7671 z m 19.86299,0 v -20.7671 h -4.05427 v 12.7169 l -8.22521,-12.7169 h -3.61675 v 20.7671 h 4.05426 v -12.7461 l 8.22521,12.7461 z m 27.65072,0 -7.58353,-20.7671 h -3.17924 l -7.55436,20.7671 h 4.22927 l 1.2542,-3.6751 h 7.37935 l 1.22504,3.6751 z m -6.5335,-7.0876 h -5.16263 l 2.62507,-7.5544 z m 24.00479,-7.2044 c 0,-3.5292 -2.56673,-6.4751 -6.85434,-6.4751 h -8.0502 v 20.7671 h 4.05427 v -7.8168 h 3.99593 c 4.28761,0 6.85434,-2.9459 6.85434,-6.4752 z m -4.05427,0 c 0,1.6917 -1.1667,2.8293 -3.00424,2.8293 h -3.79176 v -5.6877 h 3.79176 c 1.83754,0 3.00424,1.1667 3.00424,2.8584 z m 22.3714,0 c 0,-3.5292 -2.56673,-6.4751 -6.85434,-6.4751 h -8.0502 v 20.7671 h 4.05427 v -7.8168 h 3.99593 c 4.28761,0 6.85434,-2.9459 6.85434,-6.4752 z m -4.05427,0 c 0,1.6917 -1.1667,2.8293 -3.00424,2.8293 h -3.79176 v -5.6877 h 3.79176 c 1.83754,0 3.00424,1.1667 3.00424,2.8584 z m 30.27578,14.292 -7.58352,-20.7671 h -3.17925 l -7.55436,20.7671 h 4.22928 l 1.2542,-3.6751 h 7.37935 l 1.22503,3.6751 z m -6.5335,-7.0876 h -5.16263 l 2.62507,-7.5544 z m 20.70888,-10.0628 v -3.6167 h -14.90454 v 3.6167 h 5.42514 v 17.1504 h 4.05426 v -17.1504 z m 23.53809,17.1504 v -3.6167 h -9.42107 v -17.1504 h -4.05427 v 20.7671 z m 16.97544,0 v -3.6167 h -9.62524 v -5.046 h 8.19604 v -3.6167 h -8.19604 v -4.871 h 9.62524 v -3.6167 h -13.67951 v 20.7671 z m 17.64627,-17.1504 v -3.6167 H 269.0814 v 20.7671 h 4.05427 v -8.4293 h 8.19604 v -3.6168 h -8.19604 v -5.1043 z m 16.88793,0 v -3.6167 H 284.7443 v 3.6167 h 5.42514 v 17.1504 h 4.05426 v -17.1504 z"
         id="path6" /></g><path
       style="font-weight:bold;font-size:27.9212px;line-height:1;font-family:DINOT;-inkscape-font-specification:'DINOT Bold';text-align:center;text-anchor:middle;white-space:pre;stroke-width:3.40157;stroke-linecap:round;stroke-linejoin:round"
       d="m 85.548271,1011.5313 v -3.4622 H 71.280538 v 3.4622 h 5.193344 v 16.4177 h 3.881046 v -16.4177 z m 25.436189,-3.4622 h -4.04857 l -3.09926,12.5366 -3.62975,-12.5366 h -2.903808 l -3.629756,12.5366 -3.071332,-12.5366 H 86.55341 l 5.305028,19.8799 h 3.238859 l 3.657678,-12.062 3.657675,12.062 h 3.23886 z m 16.22219,9.9399 c 0,-3.4343 0.0279,-5.9193 -1.98241,-7.9296 -1.39606,-1.396 -3.09925,-2.1778 -5.36087,-2.1778 -2.26161,0 -3.99273,0.7818 -5.38879,2.1778 -2.01033,2.0103 -1.95448,4.4953 -1.95448,7.9296 0,3.4343 -0.0558,5.9193 1.95448,7.9297 1.39606,1.396 3.12718,2.1778 5.38879,2.1778 2.26162,0 3.96481,-0.7818 5.36087,-2.1778 2.01033,-2.0104 1.98241,-4.4954 1.98241,-7.9297 z m -3.88105,0 c 0,3.8252 -0.22337,4.7466 -0.97724,5.5843 -0.55842,0.6422 -1.42398,1.061 -2.48499,1.061 -1.061,0 -1.95448,-0.4188 -2.51291,-1.061 -0.75387,-0.8377 -0.94932,-1.7591 -0.94932,-5.5843 0,-3.8252 0.19545,-4.7466 0.94932,-5.5842 0.55843,-0.6422 1.45191,-1.061 2.51291,-1.061 1.06101,0 1.92657,0.4188 2.48499,1.061 0.75387,0.8376 0.97724,1.759 0.97724,5.5842 z m -57.154666,21.4435 v -3.4623 H 53.075892 v 19.8799 h 3.881046 v -8.0692 h 7.845857 v -3.4622 h -7.845857 v -4.8862 z m 7.259517,16.4176 v -19.8799 h -3.881047 v 19.8799 z m 19.851981,0 v -19.8799 h -3.881047 v 12.1737 l -7.873778,-12.1737 h -3.462229 v 19.8799 h 3.881047 v -12.2015 l 7.873778,12.2015 z m 18.790978,-8.153 v -2.9038 h -7.5108 v 3.2389 h 3.65768 v 0.7539 c 0,1.0889 -0.30714,1.9824 -0.89348,2.6525 -0.69803,0.7538 -1.61943,1.1168 -2.7642,1.1168 -1.06101,0 -1.89864,-0.335 -2.48499,-1.0331 -0.78179,-0.9214 -0.94932,-1.7032 -0.94932,-5.6121 0,-3.9369 0.22337,-4.6629 0.94932,-5.5843 0.61427,-0.698 1.45191,-1.061 2.48499,-1.061 1.92656,0 3.09925,0.9773 3.57391,2.9038 h 3.90897 c -0.5305,-3.4622 -2.95965,-6.366 -7.48288,-6.366 -2.12201,0 -3.90897,0.726 -5.360871,2.1779 -0.865557,0.8655 -1.39606,1.8428 -1.619429,2.9875 -0.22337,1.1169 -0.335055,2.7642 -0.335055,4.9421 0,2.1778 0.111685,3.8252 0.335055,4.942 0.223369,1.1169 0.753872,2.122 1.619429,2.9876 1.451901,1.4519 3.238861,2.1779 5.360871,2.1779 2.2337,0 4.07649,-0.6981 5.61216,-2.2617 1.36814,-1.4519 1.89864,-3.1551 1.89864,-6.0589 z m 16.72477,8.153 v -3.4622 h -9.21399 v -4.8304 h 7.84586 v -3.4622 h -7.84586 v -4.6628 h 9.21399 v -3.4623 h -13.09504 v 19.8799 z m 18.8468,0 -4.43947,-8.5718 c 1.92656,-0.698 3.62976,-2.4291 3.62976,-5.2212 0,-3.3227 -2.40123,-6.0869 -6.4498,-6.0869 h -7.79002 v 19.8799 h 3.88105 v -7.9296 h 2.79212 l 3.88105,7.9296 z m -4.69076,-13.793 c 0,1.5356 -1.11685,2.6245 -2.82004,2.6245 h -3.65768 v -5.2491 h 3.65768 c 1.70319,0 2.82004,1.0889 2.82004,2.6246 z m -70.249724,35.8507 c 0,-1.759 -0.474661,-3.2109 -1.535666,-4.2161 -0.837636,-0.7818 -1.982405,-1.2844 -3.797283,-1.5356 l -2.345381,-0.3351 c -0.809715,-0.1117 -1.451902,-0.4188 -1.842799,-0.7818 -0.418818,-0.3909 -0.586345,-0.9214 -0.586345,-1.424 0,-1.3681 1.005163,-2.5129 3.071332,-2.5129 1.312296,0 2.820041,0.1675 4.076495,1.3682 l 2.457065,-2.4292 c -1.703193,-1.6473 -3.685598,-2.3175 -6.421876,-2.3175 -4.299864,0 -6.924457,2.485 -6.924457,6.031 0,1.6753 0.47466,2.9597 1.423981,3.909 0.893478,0.8656 2.149932,1.3961 3.853126,1.6473 l 2.401223,0.3351 c 0.921399,0.1396 1.368139,0.3351 1.759035,0.698 0.418818,0.3909 0.614267,0.9773 0.614267,1.6753 0,1.5915 -1.228533,2.4571 -3.518071,2.4571 -1.8428,0 -3.545993,-0.4189 -4.802447,-1.6753 l -2.512908,2.5129 c 1.954484,1.9824 4.244023,2.6246 7.259512,2.6246 4.160259,0 7.371197,-2.1779 7.371197,-6.031 z m 25.938783,-14.0164 h -4.048574 l -3.099254,12.5366 -3.629756,-12.5366 h -2.903804 l -3.629756,12.5366 -3.071332,-12.5366 h -4.048574 l 5.305028,19.8799 h 3.238859 l 3.657677,-12.062 3.657677,12.062 h 3.238859 z m 6.366011,19.8799 v -19.8799 h -3.88105 v 19.8799 z m 18.90266,-13.6814 c 0,-3.3785 -2.45707,-6.1985 -6.56148,-6.1985 h -7.70626 v 19.8799 h 3.88105 v -7.4829 h 3.82521 c 4.10441,0 6.56148,-2.8201 6.56148,-6.1985 z m -3.88105,0 c 0,1.6194 -1.11685,2.7083 -2.87588,2.7083 h -3.62976 v -5.4446 h 3.62976 c 1.75903,0 2.87588,1.1169 2.87588,2.7363 z m 20.24288,13.6814 v -3.4623 h -9.214 v -4.8303 h 7.84586 v -3.4623 h -7.84586 v -4.6628 h 9.214 v -3.4622 h -13.09504 v 19.8799 z m -91.581501,11.5034 v -3.4622 H 35.597236 v 19.8799 h 3.881047 v -8.0692 h 7.845857 v -3.4622 h -7.845857 v -4.8863 z m 18.427996,16.4177 -4.439471,-8.5718 c 1.926563,-0.698 3.629756,-2.4291 3.629756,-5.2213 0,-3.3226 -2.401223,-6.0868 -6.449797,-6.0868 h -7.790015 v 19.8799 h 3.881047 v -7.9296 h 2.79212 l 3.881047,7.9296 z m -4.690761,-13.7931 c 0,1.5357 -1.116848,2.6246 -2.820042,2.6246 h -3.657677 v -5.2492 h 3.657677 c 1.703194,0 2.820042,1.089 2.820042,2.6246 z m 21.918123,3.8532 c 0,-3.4343 0.02792,-5.9193 -1.982405,-7.9297 -1.39606,-1.396 -3.099253,-2.1778 -5.36087,-2.1778 -2.261617,0 -3.992732,0.7818 -5.388792,2.1778 -2.010326,2.0104 -1.954484,4.4954 -1.954484,7.9297 0,3.4343 -0.05584,5.9193 1.954484,7.9296 1.39606,1.396 3.127175,2.1778 5.388792,2.1778 2.261617,0 3.96481,-0.7818 5.36087,-2.1778 2.010327,-2.0103 1.982405,-4.4953 1.982405,-7.9296 z m -3.881046,0 c 0,3.8252 -0.22337,4.7466 -0.977242,5.5842 -0.558424,0.6422 -1.423982,1.061 -2.484987,1.061 -1.061006,0 -1.954484,-0.4188 -2.512908,-1.061 -0.753873,-0.8376 -0.949321,-1.759 -0.949321,-5.5842 0,-3.8252 0.195448,-4.7466 0.949321,-5.5843 0.558424,-0.6422 1.451902,-1.061 2.512908,-1.061 1.061005,0 1.926563,0.4188 2.484987,1.061 0.753872,0.8377 0.977242,1.7591 0.977242,5.5843 z m 25.855009,9.9399 v -19.8799 h -3.82521 l -5.16542,10.7497 -5.193343,-10.7497 h -3.825204 v 19.8799 h 3.881047 v -11.5873 l 3.825204,7.5387 h 2.624593 l 3.797283,-7.5387 v 11.5873 z m 23.90057,-16.4177 v -3.4622 h -14.26773 v 3.4622 h 5.19334 v 16.4177 h 3.88105 v -16.4177 z m 16.61308,6.4778 c 0,-3.4343 0.0279,-5.9193 -1.9824,-7.9297 -1.39606,-1.396 -3.09926,-2.1778 -5.36087,-2.1778 -2.26162,0 -3.99274,0.7818 -5.3888,2.1778 -2.01032,2.0104 -1.95448,4.4954 -1.95448,7.9297 0,3.4343 -0.0558,5.9193 1.95448,7.9296 1.39606,1.396 3.12718,2.1778 5.3888,2.1778 2.26161,0 3.96481,-0.7818 5.36087,-2.1778 2.01032,-2.0103 1.9824,-4.4953 1.9824,-7.9296 z m -3.88105,0 c 0,3.8252 -0.22337,4.7466 -0.97724,5.5842 -0.55842,0.6422 -1.42398,1.061 -2.48498,1.061 -1.06101,0 -1.95449,-0.4188 -2.51291,-1.061 -0.75387,-0.8376 -0.94932,-1.759 -0.94932,-5.5842 0,-3.8252 0.19545,-4.7466 0.94932,-5.5843 0.55842,-0.6422 1.4519,-1.061 2.51291,-1.061 1.061,0 1.92656,0.4188 2.48498,1.061 0.75387,0.8377 0.97724,1.7591 0.97724,5.5843 z m 22.11357,-3.7415 c 0,-3.3784 -2.45706,-6.1985 -6.56148,-6.1985 h -7.70625 v 19.8799 h 3.88105 v -7.4829 h 3.8252 c 4.10442,0 6.56148,-2.82 6.56148,-6.1985 z m -3.88104,0 c 0,1.6195 -1.11685,2.7084 -2.87589,2.7084 h -3.62975 v -5.4447 h 3.62975 c 1.75904,0 2.87589,1.1169 2.87589,2.7363 z m -109.953616,25.1849 v -3.4622 H 36.965381 v 3.4622 h 5.193343 v 16.4177 h 3.881047 v -16.4177 z m 16.613077,6.4777 c 0,-3.4343 0.02792,-5.9193 -1.982405,-7.9296 -1.39606,-1.3961 -3.099253,-2.1779 -5.36087,-2.1779 -2.261617,0 -3.992732,0.7818 -5.388792,2.1779 -2.010326,2.0103 -1.954484,4.4953 -1.954484,7.9296 0,3.4343 -0.05584,5.9193 1.954484,7.9296 1.39606,1.3961 3.127175,2.1779 5.388792,2.1779 2.261617,0 3.96481,-0.7818 5.36087,-2.1779 2.010327,-2.0103 1.982405,-4.4953 1.982405,-7.9296 z m -3.881046,0 c 0,3.8252 -0.22337,4.7466 -0.977242,5.5842 -0.558424,0.6422 -1.423981,1.0611 -2.484987,1.0611 -1.061006,0 -1.954484,-0.4189 -2.512908,-1.0611 -0.753872,-0.8376 -0.949321,-1.759 -0.949321,-5.5842 0,-3.8252 0.195449,-4.7466 0.949321,-5.5842 0.558424,-0.6422 1.451902,-1.061 2.512908,-1.061 1.061006,0 1.926563,0.4188 2.484987,1.061 0.753872,0.8376 0.977242,1.759 0.977242,5.5842 z m 28.758822,-0.084 c 0,-2.9875 0.22337,-5.7238 -2.010326,-7.9575 -1.312297,-1.3123 -3.183017,-1.8986 -5.249186,-1.8986 h -7.175748 v 19.8799 h 7.175748 c 2.066169,0 3.936889,-0.5864 5.249186,-1.8987 2.233696,-2.2337 2.010326,-5.1375 2.010326,-8.1251 z m -3.881047,0 c 0,3.0155 -0.111684,4.4395 -0.837636,5.333 -0.670108,0.8097 -1.563587,1.2285 -2.903804,1.2285 h -2.931726 v -12.9554 h 2.931726 c 1.340217,0 2.233696,0.4188 2.903804,1.2285 0.725952,0.8935 0.837636,2.15 0.837636,5.1654 z m 21.86231,0.084 c 0,-3.4343 0.0279,-5.9193 -1.9824,-7.9296 -1.39606,-1.3961 -3.09926,-2.1779 -5.36087,-2.1779 -2.26162,0 -3.992736,0.7818 -5.388796,2.1779 -2.010327,2.0103 -1.954484,4.4953 -1.954484,7.9296 0,3.4343 -0.05584,5.9193 1.954484,7.9296 1.39606,1.3961 3.127176,2.1779 5.388796,2.1779 2.26161,0 3.96481,-0.7818 5.36087,-2.1779 2.01032,-2.0103 1.9824,-4.4953 1.9824,-7.9296 z m -3.88105,0 c 0,3.8252 -0.22337,4.7466 -0.97724,5.5842 -0.55842,0.6422 -1.42398,1.0611 -2.48498,1.0611 -1.06101,0 -1.95449,-0.4189 -2.51291,-1.0611 -0.75388,-0.8376 -0.949324,-1.759 -0.949324,-5.5842 0,-3.8252 0.195444,-4.7466 0.949324,-5.5842 0.55842,-0.6422 1.4519,-1.061 2.51291,-1.061 1.061,0 1.92656,0.4188 2.48498,1.061 0.75387,0.8376 0.97724,1.759 0.97724,5.5842 z m 29.84774,-9.9399 h -4.04858 l -3.09925,12.5366 -3.62976,-12.5366 h -2.9038 l -3.62976,12.5366 -3.07133,-12.5366 h -4.04857 l 5.30503,19.8799 h 3.23885 l 3.65768,-12.062 3.65768,12.062 h 3.23886 z m 17.70201,19.8799 v -19.8799 h -3.88105 v 12.1736 l -7.87378,-12.1736 h -3.46223 v 19.8799 h 3.88105 v -12.2016 l 7.87378,12.2016 z m -62.822654,8.0412 h -4.048574 l -3.099253,12.5366 -3.629756,-12.5366 h -2.903805 l -3.629756,12.5366 -3.071332,-12.5366 h -4.048574 l 5.305028,19.8799 h 3.238859 l 3.657678,-12.062 3.657677,12.062 h 3.238859 z m 6.36601,19.8799 v -19.8799 H 94.03624 v 19.8799 z m 17.534524,0 v -3.4622 h -9.01855 v -16.4177 h -3.88105 v 19.8799 z m 16.05471,0 v -3.4622 h -9.01855 v -16.4177 h -3.88105 v 19.8799 z m -82.36754,22.0577 c 0,-1.759 -0.47466,-3.211 -1.535666,-4.2161 -0.837636,-0.7818 -1.982405,-1.2844 -3.797283,-1.5357 l -2.34538,-0.335 c -0.809715,-0.1117 -1.451903,-0.4189 -1.8428,-0.7818 -0.418818,-0.3909 -0.586345,-0.9214 -0.586345,-1.424 0,-1.3681 1.005163,-2.5129 3.071332,-2.5129 1.312297,0 2.820041,0.1675 4.076495,1.3681 l 2.457066,-2.4291 c -1.703193,-1.6474 -3.685599,-2.3175 -6.421876,-2.3175 -4.299865,0 -6.924458,2.485 -6.924458,6.031 0,1.6753 0.474661,2.9596 1.423982,3.909 0.893478,0.8655 2.149932,1.396 3.853125,1.6473 l 2.401223,0.3351 c 0.9214,0.1396 1.368139,0.335 1.759036,0.698 0.418818,0.3909 0.614266,0.9772 0.614266,1.6753 0,1.5915 -1.228533,2.457 -3.518071,2.457 -1.842799,0 -3.545992,-0.4188 -4.802446,-1.6752 l -2.512908,2.5129 c 1.954484,1.9824 4.244022,2.6246 7.259512,2.6246 4.160258,0 7.371196,-2.1779 7.371196,-6.031 z m 7.538712,5.8634 v -19.8799 h -3.881046 v 19.8799 z m 22.644102,0 v -19.8799 h -3.825205 l -5.165422,10.7497 -5.193343,-10.7497 H 61.31262 v 19.8799 h 3.881047 v -11.5873 l 3.825204,7.5388 h 2.624593 l 3.797283,-7.5388 v 11.5873 z m 18.958517,-6.8127 v -13.0672 h -3.853126 v 12.9276 c 0,2.2895 -1.368139,3.6576 -3.462229,3.6576 -2.09409,0 -3.434307,-1.3681 -3.434307,-3.6576 v -12.9276 h -3.881047 v 13.0672 c 0,4.2161 3.238859,6.9803 7.315354,6.9803 4.076496,0 7.315355,-2.7642 7.315355,-6.9803 z m 17.227359,6.8127 v -3.4622 h -9.01854 v -16.4177 h -3.88105 v 19.8799 z m 18.51177,0 -7.25951,-19.8799 h -3.04341 l -7.23159,19.8799 h 4.04857 l 1.20061,-3.518 h 7.06407 l 1.17269,3.518 z m -6.25435,-6.7848 h -4.94205 l 2.51291,-7.2316 z m 19.82409,-9.6328 v -3.4623 h -14.26773 v 3.4623 h 5.19334 v 16.4176 h 3.88105 v -16.4176 z m 16.25011,16.4176 v -3.4622 h -9.21399 v -4.8304 h 7.84585 v -3.4622 h -7.84585 v -4.6628 h 9.21399 v -3.4623 h -13.09504 v 19.8799 z m -97.905693,21.8064 h -3.936889 c -0.418818,1.7032 -1.479823,2.8201 -3.350544,2.8201 -1.061005,0 -1.898641,-0.3351 -2.484986,-1.0331 -0.809715,-0.8656 -0.977242,-1.759 -0.977242,-5.6122 0,-3.8531 0.167527,-4.7466 0.977242,-5.6121 0.586345,-0.6981 1.423981,-1.0331 2.484986,-1.0331 1.870721,0 2.931726,1.1168 3.350544,2.82 h 3.936889 c -0.670108,-4.0485 -3.490149,-6.2822 -7.315354,-6.2822 -2.122011,0 -3.908968,0.7259 -5.36087,2.1778 -0.865557,0.8656 -1.39606,1.8428 -1.61943,2.9876 -0.223369,1.1168 -0.335054,2.7642 -0.335054,4.942 0,2.1779 0.111685,3.8252 0.335054,4.9421 0.22337,1.1168 0.753873,2.122 1.61943,2.9876 1.451902,1.4519 3.238859,2.1778 5.36087,2.1778 3.797283,0 6.645246,-2.2337 7.315354,-6.2823 z m 15.580041,-10.3029 v -3.4622 H 67.245905 v 3.4622 h 5.193343 v 16.4177 h 3.881047 v -16.4177 z m 18.204599,16.4177 -4.43947,-8.5718 c 1.926562,-0.6981 3.629756,-2.4292 3.629756,-5.2213 0,-3.3226 -2.401224,-6.0868 -6.449798,-6.0868 h -7.790014 v 19.8799 h 3.881046 v -7.9296 h 2.79212 l 3.881047,7.9296 z m -4.690761,-13.7931 c 0,1.5357 -1.116848,2.6246 -2.820041,2.6246 h -3.657678 v -5.2492 h 3.657678 c 1.703193,0 2.820041,1.0889 2.820041,2.6246 z m 20.801274,13.7931 v -3.4622 h -9.01855 v -16.4177 h -3.88104 v 19.8799 z m 14.60281,-6.031 v -3.4064 h -4.46739 v -4.4674 h -3.40639 v 4.4674 h -4.49531 v 3.4064 h 4.49531 v 4.4674 h 3.40639 v -4.4674 z m 19.07016,6.031 -7.25952,-19.8799 h -3.04341 l -7.23159,19.8799 h 4.04858 l 1.20061,-3.5181 h 7.06406 l 1.17269,3.5181 z m -6.25435,-6.7849 h -4.94206 l 2.51291,-7.2316 z"
       id="text1-6-6"
       transform="matrix(0.08844313,0,0,0.08844335,1.2132844,-70.102217)"
       aria-label="TWO FINGER SWIPE FROM TOP TO DOWN &#10;WILL SIMULATE CTRL+A" /><path
       style="font-weight:bold;font-size:27.9212px;line-height:1;font-family:DINOT;-inkscape-font-specification:'DINOT Bold';text-align:center;text-anchor:middle;white-space:pre;stroke-width:3.40157;stroke-linecap:round;stroke-linejoin:round"
       d="m 74.025878,1011.5313 v -3.4622 H 59.758145 v 3.4622 h 5.193343 v 16.4177 h 3.881047 v -16.4177 z m 17.646174,16.4177 v -19.8799 h -3.881047 v 8.1251 h -6.729009 v -8.1251 h -3.881047 v 19.8799 h 3.881047 v -8.3205 h 6.729009 v 8.3205 z m 19.684428,0 -4.43947,-8.5718 c 1.92657,-0.6981 3.62976,-2.4292 3.62976,-5.2213 0,-3.3226 -2.40122,-6.0868 -6.4498,-6.0868 h -7.790013 v 19.8799 H 100.188 v -7.9296 h 2.79212 l 3.88105,7.9296 z m -4.69076,-13.7931 c 0,1.5357 -1.11685,2.6246 -2.82004,2.6246 H 100.188 v -5.2492 h 3.65768 c 1.70319,0 2.82004,1.0889 2.82004,2.6246 z m 20.99672,13.7931 v -3.4622 h -9.21399 v -4.8304 h 7.84586 v -3.4622 h -7.84586 v -4.6629 h 9.21399 v -3.4622 H 114.5674 v 19.8799 z m 16.89232,0 v -3.4622 h -9.214 v -4.8304 h 7.84586 v -3.4622 h -7.84586 v -4.6629 h 9.214 v -3.4622 h -13.09504 v 19.8799 z m -75.554724,11.5035 v -3.4623 H 55.904993 v 19.8799 h 3.881047 v -8.0692 h 7.845857 v -3.4622 H 59.78604 v -4.8862 z m 7.259517,16.4176 v -19.8799 h -3.881047 v 19.8799 z m 19.851981,0 v -19.8799 h -3.881047 v 12.1737 l -7.873778,-12.1737 H 80.89448 v 19.8799 h 3.881047 v -12.2015 l 7.873778,12.2015 z m 18.790976,-8.153 v -2.9038 h -7.5108 v 3.2389 h 3.65768 v 0.7539 c 0,1.0889 -0.30713,1.9824 -0.89348,2.6525 -0.69803,0.7538 -1.61943,1.1168 -2.7642,1.1168 -1.061,0 -1.89864,-0.335 -2.48499,-1.0331 -0.78179,-0.9214 -0.94932,-1.7032 -0.94932,-5.6121 0,-3.9369 0.22337,-4.6629 0.94932,-5.5843 0.61427,-0.698 1.45191,-1.061 2.48499,-1.061 1.92656,0 3.09925,0.9773 3.57391,2.9038 h 3.90897 c -0.5305,-3.4622 -2.95964,-6.366 -7.48288,-6.366 -2.12201,0 -3.90897,0.726 -5.36087,2.1779 -0.86556,0.8655 -1.39606,1.8428 -1.61943,2.9875 -0.22337,1.1169 -0.33505,2.7642 -0.33505,4.9421 0,2.1778 0.11168,3.8252 0.33505,4.942 0.22337,1.1169 0.75387,2.122 1.61943,2.9876 1.4519,1.4519 3.23886,2.1779 5.36087,2.1779 2.2337,0 4.0765,-0.6981 5.61216,-2.2617 1.36814,-1.4519 1.89864,-3.1551 1.89864,-6.0589 z m 16.72478,8.153 v -3.4622 h -9.214 v -4.8304 h 7.84586 v -3.4622 h -7.84586 v -4.6628 h 9.214 v -3.4623 h -13.09505 v 19.8799 z m 18.84679,0 -4.43947,-8.5718 c 1.92656,-0.698 3.62976,-2.4291 3.62976,-5.2212 0,-3.3227 -2.40123,-6.0869 -6.4498,-6.0869 h -7.79002 v 19.8799 h 3.88105 v -7.9296 h 2.79212 l 3.88105,7.9296 z m -4.69076,-13.793 c 0,1.5356 -1.11685,2.6245 -2.82004,2.6245 h -3.65768 v -5.2491 h 3.65768 c 1.70319,0 2.82004,1.0889 2.82004,2.6246 z m -70.249723,35.8507 c 0,-1.759 -0.47466,-3.2109 -1.535666,-4.2161 -0.837636,-0.7818 -1.982405,-1.2844 -3.797283,-1.5356 l -2.34538,-0.3351 c -0.809715,-0.1117 -1.451903,-0.4188 -1.8428,-0.7818 -0.418818,-0.3909 -0.586345,-0.9214 -0.586345,-1.424 0,-1.3681 1.005163,-2.5129 3.071332,-2.5129 1.312296,0 2.820041,0.1675 4.076495,1.3682 l 2.457066,-2.4292 c -1.703193,-1.6473 -3.685599,-2.3175 -6.421876,-2.3175 -4.299865,0 -6.924458,2.485 -6.924458,6.031 0,1.6753 0.474661,2.9597 1.423982,3.909 0.893478,0.8656 2.149932,1.3961 3.853125,1.6473 l 2.401223,0.3351 c 0.9214,0.1396 1.368139,0.3351 1.759036,0.698 0.418818,0.3909 0.614266,0.9773 0.614266,1.6753 0,1.5915 -1.228533,2.4571 -3.518071,2.4571 -1.842799,0 -3.545992,-0.4189 -4.802446,-1.6753 l -2.512908,2.5129 c 1.954484,1.9824 4.244022,2.6246 7.259512,2.6246 4.160258,0 7.371196,-2.1779 7.371196,-6.031 z m 25.938783,-14.0164 h -4.048574 l -3.099253,12.5366 -3.629756,-12.5366 h -2.903805 l -3.629756,12.5366 -3.071332,-12.5366 H 77.04133 l 5.305028,19.8799 h 3.238859 l 3.657678,-12.062 3.657677,12.062 h 3.238859 z m 6.36601,19.8799 v -19.8799 h -3.88105 v 19.8799 z m 18.90266,-13.6814 c 0,-3.3785 -2.45707,-6.1985 -6.56148,-6.1985 h -7.70625 v 19.8799 h 3.88104 v -7.4829 h 3.82521 c 4.10441,0 6.56148,-2.8201 6.56148,-6.1985 z m -3.88105,0 c 0,1.6194 -1.11685,2.7083 -2.87588,2.7083 h -3.62976 v -5.4446 h 3.62976 c 1.75903,0 2.87588,1.1169 2.87588,2.7363 z m 20.24288,13.6814 v -3.4623 h -9.21399 v -4.8303 h 7.84585 v -3.4623 h -7.84585 v -4.6628 h 9.21399 v -3.4622 h -13.09504 v 19.8799 z m -91.5815,11.5034 v -3.4622 H 38.426337 v 19.8799 h 3.881047 v -8.0692 h 7.845857 v -3.4622 h -7.845857 v -4.8863 z m 18.427997,16.4177 -4.439471,-8.5718 c 1.926563,-0.698 3.629756,-2.4291 3.629756,-5.2213 0,-3.3226 -2.401223,-6.0868 -6.449797,-6.0868 H 54.89985 v 19.8799 h 3.881047 v -7.9296 h 2.79212 l 3.881047,7.9296 z m -4.690762,-13.7931 c 0,1.5357 -1.116848,2.6246 -2.820041,2.6246 h -3.657677 v -5.2492 h 3.657677 c 1.703193,0 2.820041,1.089 2.820041,2.6246 z m 21.918124,3.8532 c 0,-3.4343 0.02792,-5.9193 -1.982405,-7.9297 -1.39606,-1.396 -3.099253,-2.1778 -5.360871,-2.1778 -2.261617,0 -3.992731,0.7818 -5.388791,2.1778 -2.010327,2.0104 -1.954484,4.4954 -1.954484,7.9297 0,3.4343 -0.05584,5.9193 1.954484,7.9296 1.39606,1.396 3.127174,2.1778 5.388791,2.1778 2.261618,0 3.964811,-0.7818 5.360871,-2.1778 2.010326,-2.0103 1.982405,-4.4953 1.982405,-7.9296 z m -3.881047,0 c 0,3.8252 -0.223369,4.7466 -0.977242,5.5842 -0.558424,0.6422 -1.423981,1.061 -2.484987,1.061 -1.061005,0 -1.954484,-0.4188 -2.512908,-1.061 -0.753872,-0.8376 -0.94932,-1.759 -0.94932,-5.5842 0,-3.8252 0.195448,-4.7466 0.94932,-5.5843 0.558424,-0.6422 1.451903,-1.061 2.512908,-1.061 1.061006,0 1.926563,0.4188 2.484987,1.061 0.753873,0.8377 0.977242,1.7591 0.977242,5.5843 z m 25.855008,9.9399 v -19.8799 h -3.82521 l -5.16542,10.7497 -5.193341,-10.7497 h -3.825205 v 19.8799 h 3.881047 v -11.5873 l 3.825205,7.5387 h 2.624594 l 3.79728,-7.5387 v 11.5873 z m 23.90058,-16.4177 v -3.4622 h -14.26774 v 3.4622 h 5.19335 v 16.4177 h 3.88104 v -16.4177 z m 16.61307,6.4778 c 0,-3.4343 0.0279,-5.9193 -1.9824,-7.9297 -1.39606,-1.396 -3.09926,-2.1778 -5.36087,-2.1778 -2.26162,0 -3.99273,0.7818 -5.38879,2.1778 -2.01033,2.0104 -1.95449,4.4954 -1.95449,7.9297 0,3.4343 -0.0558,5.9193 1.95449,7.9296 1.39606,1.396 3.12717,2.1778 5.38879,2.1778 2.26161,0 3.96481,-0.7818 5.36087,-2.1778 2.01032,-2.0103 1.9824,-4.4953 1.9824,-7.9296 z m -3.88104,0 c 0,3.8252 -0.22337,4.7466 -0.97725,5.5842 -0.55842,0.6422 -1.42398,1.061 -2.48498,1.061 -1.06101,0 -1.95449,-0.4188 -2.51291,-1.061 -0.75387,-0.8376 -0.94932,-1.759 -0.94932,-5.5842 0,-3.8252 0.19545,-4.7466 0.94932,-5.5843 0.55842,-0.6422 1.4519,-1.061 2.51291,-1.061 1.061,0 1.92656,0.4188 2.48498,1.061 0.75388,0.8377 0.97725,1.7591 0.97725,5.5843 z m 22.11357,-3.7415 c 0,-3.3784 -2.45707,-6.1985 -6.56149,-6.1985 h -7.70625 v 19.8799 h 3.88105 v -7.4829 h 3.8252 c 4.10442,0 6.56149,-2.82 6.56149,-6.1985 z m -3.88105,0 c 0,1.6195 -1.11685,2.7084 -2.87589,2.7084 h -3.62975 v -5.4447 h 3.62975 c 1.75904,0 2.87589,1.1169 2.87589,2.7363 z m -109.953614,25.1849 v -3.4622 H 39.794483 v 3.4622 h 5.193343 v 16.4177 h 3.881047 v -16.4177 z m 16.613077,6.4777 c 0,-3.4343 0.02792,-5.9193 -1.982405,-7.9296 -1.39606,-1.3961 -3.099253,-2.1779 -5.36087,-2.1779 -2.261618,0 -3.992732,0.7818 -5.388792,2.1779 -2.010326,2.0103 -1.954484,4.4953 -1.954484,7.9296 0,3.4343 -0.05584,5.9193 1.954484,7.9296 1.39606,1.3961 3.127174,2.1779 5.388792,2.1779 2.261617,0 3.96481,-0.7818 5.36087,-2.1779 2.010326,-2.0103 1.982405,-4.4953 1.982405,-7.9296 z m -3.881047,0 c 0,3.8252 -0.223369,4.7466 -0.977242,5.5842 -0.558424,0.6422 -1.423981,1.0611 -2.484986,1.0611 -1.061006,0 -1.954484,-0.4189 -2.512908,-1.0611 -0.753873,-0.8376 -0.949321,-1.759 -0.949321,-5.5842 0,-3.8252 0.195448,-4.7466 0.949321,-5.5842 0.558424,-0.6422 1.451902,-1.061 2.512908,-1.061 1.061005,0 1.926562,0.4188 2.484986,1.061 0.753873,0.8376 0.977242,1.759 0.977242,5.5842 z m 28.758823,-0.084 c 0,-2.9875 0.223369,-5.7238 -2.010327,-7.9575 -1.312296,-1.3123 -3.183016,-1.8986 -5.249185,-1.8986 h -7.175749 v 19.8799 h 7.175749 c 2.066169,0 3.936889,-0.5864 5.249185,-1.8987 2.233696,-2.2337 2.010327,-5.1375 2.010327,-8.1251 z m -3.881047,0 c 0,3.0155 -0.111685,4.4395 -0.837636,5.333 -0.670109,0.8097 -1.563587,1.2285 -2.903805,1.2285 h -2.931726 v -12.9554 h 2.931726 c 1.340218,0 2.233696,0.4188 2.903805,1.2285 0.725951,0.8935 0.837636,2.15 0.837636,5.1654 z m 21.862308,0.084 c 0,-3.4343 0.0279,-5.9193 -1.9824,-7.9296 -1.39606,-1.3961 -3.09926,-2.1779 -5.36087,-2.1779 -2.26162,0 -3.99273,0.7818 -5.38879,2.1779 -2.010331,2.0103 -1.954489,4.4953 -1.954489,7.9296 0,3.4343 -0.05584,5.9193 1.954489,7.9296 1.39606,1.3961 3.12717,2.1779 5.38879,2.1779 2.26161,0 3.96481,-0.7818 5.36087,-2.1779 2.01032,-2.0103 1.9824,-4.4953 1.9824,-7.9296 z m -3.88104,0 c 0,3.8252 -0.22337,4.7466 -0.97725,5.5842 -0.55842,0.6422 -1.42398,1.0611 -2.48498,1.0611 -1.06101,0 -1.95449,-0.4189 -2.51291,-1.0611 -0.75387,-0.8376 -0.94932,-1.759 -0.94932,-5.5842 0,-3.8252 0.19545,-4.7466 0.94932,-5.5842 0.55842,-0.6422 1.4519,-1.061 2.51291,-1.061 1.061,0 1.92656,0.4188 2.48498,1.061 0.75388,0.8376 0.97725,1.759 0.97725,5.5842 z m 29.84773,-9.9399 h -4.04858 l -3.09925,12.5366 -3.62975,-12.5366 h -2.90381 l -3.62976,12.5366 -3.07133,-12.5366 h -4.04857 l 5.30503,19.8799 h 3.23886 l 3.65767,-12.062 3.65768,12.062 h 3.23886 z m 17.70201,19.8799 v -19.8799 h -3.88105 v 12.1736 l -7.87377,-12.1736 h -3.46223 v 19.8799 h 3.88104 v -12.2016 l 7.87378,12.2016 z m -95.658027,8.0412 H 57.49643 l -3.099254,12.5366 -3.629756,-12.5366 h -2.903804 l -3.629756,12.5366 -3.071332,-12.5366 h -4.048574 l 5.305028,19.8799 h 3.238859 l 3.657677,-12.062 3.657677,12.062 h 3.238859 z m 6.366011,19.8799 v -19.8799 h -3.881047 v 19.8799 z m 17.534521,0 v -3.4622 h -9.018547 v -16.4177 h -3.881047 v 19.8799 z m 16.054715,0 v -3.4622 h -9.018552 v -16.4177 h -3.881047 v 19.8799 z m 25.71545,0 -7.06406,-11.9782 6.5894,-7.9017 h -4.71868 l -7.00823,8.6556 v -8.6556 h -3.88104 v 19.8799 h 3.88104 v -5.9751 l 2.56875,-3.0714 5.10958,9.0465 z m 6.36606,0 v -19.8799 h -3.88105 v 19.8799 z m 17.53452,0 v -3.4622 h -9.01854 v -16.4177 h -3.88105 v 19.8799 z m 16.05472,0 v -3.4622 h -9.01855 v -16.4177 h -3.88105 v 19.8799 z m -125.89672,21.8064 h -3.936889 c -0.418818,1.7032 -1.479824,2.82 -3.350544,2.82 -1.061006,0 -1.898642,-0.335 -2.484987,-1.033 -0.809715,-0.8656 -0.977242,-1.7591 -0.977242,-5.6122 0,-3.8531 0.167527,-4.7466 0.977242,-5.6122 0.586345,-0.698 1.423981,-1.0331 2.484987,-1.0331 1.87072,0 2.931726,1.1169 3.350544,2.8201 h 3.936889 c -0.670109,-4.0486 -3.49015,-6.2823 -7.315355,-6.2823 -2.122011,0 -3.908968,0.726 -5.36087,2.1779 -0.865557,0.8655 -1.39606,1.8428 -1.61943,2.9875 -0.223369,1.1169 -0.335054,2.7642 -0.335054,4.9421 0,2.1778 0.111685,3.8252 0.335054,4.942 0.22337,1.1169 0.753873,2.1221 1.61943,2.9876 1.451902,1.4519 3.238859,2.1779 5.36087,2.1779 3.797284,0 6.645246,-2.2337 7.315355,-6.2823 z m 17.674142,-0.698 v -13.0672 h -3.853125 v 12.9276 c 0,2.2895 -1.368139,3.6576 -3.462229,3.6576 -2.09409,0 -3.434308,-1.3681 -3.434308,-3.6576 v -12.9276 h -3.881047 v 13.0672 c 0,4.2161 3.23886,6.9803 7.315355,6.9803 4.076495,0 7.315354,-2.7642 7.315354,-6.9803 z m 19.377294,6.8127 -4.439471,-8.5718 c 1.926563,-0.698 3.629756,-2.4291 3.629756,-5.2212 0,-3.3227 -2.401223,-6.0869 -6.449797,-6.0869 h -7.790015 v 19.8799 h 3.881047 v -7.9296 h 2.79212 l 3.881047,7.9296 z m -4.690762,-13.793 c 0,1.5356 -1.116848,2.6246 -2.820041,2.6246 h -3.657677 v -5.2492 h 3.657677 c 1.703193,0 2.820041,1.0889 2.820041,2.6246 z m 22.951206,13.793 -4.43947,-8.5718 c 1.926562,-0.698 3.629756,-2.4291 3.629756,-5.2212 0,-3.3227 -2.401224,-6.0869 -6.449798,-6.0869 h -7.790014 v 19.8799 h 3.881046 v -7.9296 h 2.79212 l 3.881047,7.9296 z m -4.690761,-13.793 c 0,1.5356 -1.116848,2.6246 -2.820041,2.6246 H 85.41768 v -5.2492 h 3.657678 c 1.703193,0 2.820041,1.0889 2.820041,2.6246 z m 20.996721,13.793 v -3.4622 h -9.21399 v -4.8304 h 7.84585 v -3.4622 h -7.84585 v -4.6628 h 9.21399 v -3.4623 H 99.797078 v 19.8799 z m 19.01433,0 v -19.8799 h -3.88105 v 12.1737 l -7.87377,-12.1737 h -3.46223 v 19.8799 h 3.88104 v -12.2015 l 7.87378,12.2015 z m 17.42284,-16.4176 v -3.4623 h -14.26773 v 3.4623 h 5.19334 v 16.4176 h 3.88105 v -16.4176 z m 16.05466,16.4176 v -3.4622 h -9.01855 v -16.4177 h -3.88104 v 19.8799 z m 14.49113,-19.8799 h -4.2161 l -3.65768,8.0134 -3.71352,-8.0134 h -4.2161 l 5.97514,11.7269 v 8.153 h 3.85313 v -8.153 z m -135.334036,47.8011 -7.259512,-19.8799 h -3.04341 l -7.231591,19.8799 h 4.048574 l 1.200611,-3.5181 h 7.064064 l 1.17269,3.5181 z m -6.254348,-6.7849 h -4.942053 l 2.512908,-7.2316 z m 22.392809,0.6701 h -3.936889 c -0.418818,1.7032 -1.479823,2.8201 -3.350544,2.8201 -1.061005,0 -1.898641,-0.3351 -2.484986,-1.0331 -0.809715,-0.8656 -0.977242,-1.759 -0.977242,-5.6122 0,-3.8531 0.167527,-4.7466 0.977242,-5.6121 0.586345,-0.6981 1.423981,-1.0331 2.484986,-1.0331 1.870721,0 2.931726,1.1168 3.350544,2.82 h 3.936889 c -0.670108,-4.0485 -3.490149,-6.2822 -7.315354,-6.2822 -2.122011,0 -3.908968,0.7259 -5.36087,2.1778 -0.865557,0.8656 -1.39606,1.8428 -1.61943,2.9876 -0.223369,1.1168 -0.335054,2.7642 -0.335054,4.942 0,2.1779 0.111685,3.8252 0.335054,4.9421 0.22337,1.1168 0.753873,2.122 1.61943,2.9876 1.451902,1.4519 3.238859,2.1778 5.36087,2.1778 3.797283,0 6.645246,-2.2337 7.315354,-6.2823 z m 15.580043,-10.3029 v -3.4622 H 61.991815 v 3.4622 h 5.193343 v 16.4177 h 3.881047 v -16.4177 z m 7.036115,16.4177 v -19.8799 h -3.881046 v 19.8799 z m 18.455927,-19.8799 h -4.048577 l -3.992732,12.9554 -3.992732,-12.9554 h -4.020652 l 6.561482,19.8799 h 2.903804 z m 15.49624,19.8799 v -3.4622 h -9.21399 v -4.8304 h 7.84586 v -3.4622 h -7.84586 v -4.6629 h 9.21399 v -3.4622 h -13.09504 v 19.8799 z m 25.63166,0 -7.25951,-19.8799 h -3.04341 l -7.23159,19.8799 h 4.04857 l 1.20061,-3.5181 h 7.06407 l 1.17269,3.5181 z m -6.25435,-6.7849 h -4.94205 l 2.51291,-7.2316 z m 22.97917,-6.8965 c 0,-3.3785 -2.45707,-6.1985 -6.56148,-6.1985 h -7.70625 v 19.8799 h 3.88104 v -7.4829 h 3.82521 c 4.10441,0 6.56148,-2.82 6.56148,-6.1985 z m -3.88105,0 c 0,1.6194 -1.11685,2.7084 -2.87588,2.7084 h -3.62976 v -5.4447 h 3.62976 c 1.75903,0 2.87588,1.1169 2.87588,2.7363 z m 21.41556,0 c 0,-3.3785 -2.45706,-6.1985 -6.56148,-6.1985 h -7.70625 v 19.8799 h 3.88105 v -7.4829 h 3.8252 c 4.10442,0 6.56148,-2.82 6.56148,-6.1985 z m -3.88104,0 c 0,1.6194 -1.11685,2.7084 -2.87589,2.7084 h -3.62975 v -5.4447 h 3.62975 c 1.75904,0 2.87589,1.1169 2.87589,2.7363 z"
       id="text1-6-6-4"
       transform="matrix(0.08844313,0,0,0.08844335,16.499183,-70.102217)"
       aria-label="THREE FINGER SWIPE FROM TOP TO DOWN &#10;WILL KILL&#10;CURRENTLY ACTIVE APP" /><text
       xml:space="preserve"
       transform="scale(0.26458333)"
       id="text2"
       style="font-weight:bold;font-size:16px;line-height:1;font-family:DINOT;-inkscape-font-specification:'DINOT Bold';text-align:start;writing-mode:lr-tb;direction:ltr;white-space:pre;shape-inside:url(#rect2);display:inline;fill:#000000;fill-opacity:1;stroke:none;stroke-width:3.40157;stroke-linecap:round;stroke-linejoin:round" /><path
       id="rect4"
       style="fill:none;stroke:#000000;stroke-width:2.35103;stroke-linecap:round;stroke-linejoin:round"
       d="M 4.4508624,1.1755102 H 30.93795 c 1.814545,0 3.275352,1.4608071 3.275352,3.2753522 V 101.38247 c 0,1.81454 -1.460807,3.27535 -3.275352,3.27535 H 4.4508624 c -1.8145451,0 -3.2753522,-1.46081 -3.2753522,-3.27535 V 4.4508624 c 0,-1.8145451 1.4608071,-3.2753522 3.2753522,-3.2753522 z" /><path
       id="path4"
       style="fill:none;stroke:#000000;stroke-width:1.67137;stroke-linecap:round;stroke-linejoin:round"
       d="M 5.6853502,4.5820761 A 0.83568317,0.83568525 0 0 1 4.8496671,5.4177613 0.83568317,0.83568525 0 0 1 4.0139839,4.5820761 0.83568317,0.83568525 0 0 1 4.8496671,3.7463908 0.83568317,0.83568525 0 0 1 5.6853502,4.5820761 Z" /></g></svg>
