<?xml version="1.0" encoding="UTF-8" standalone="no"?>
<!-- Created with Inkscape (http://www.inkscape.org/) -->

<svg
   width="130"
   height="600"
   viewBox="0 0 34.395833 158.75"
   version="1.1"
   id="svg1"
   xml:space="preserve"
   inkscape:version="1.4 (e7c3feb100, 2024-10-09)"
   sodipodi:docname="gestures.svg"
   xmlns:inkscape="http://www.inkscape.org/namespaces/inkscape"
   xmlns:sodipodi="http://sodipodi.sourceforge.net/DTD/sodipodi-0.dtd"
   xmlns="http://www.w3.org/2000/svg"
   xmlns:svg="http://www.w3.org/2000/svg"><sodipodi:namedview
     id="namedview1"
     pagecolor="#ffffff"
     bordercolor="#000000"
     borderopacity="0.25"
     inkscape:showpageshadow="2"
     inkscape:pageopacity="0.0"
     inkscape:pagecheckerboard="0"
     inkscape:deskcolor="#d1d1d1"
     inkscape:document-units="mm"
     inkscape:zoom="0.93481342"
     inkscape:cx="104.29889"
     inkscape:cy="298.45528"
     inkscape:window-width="1680"
     inkscape:window-height="986"
     inkscape:window-x="0"
     inkscape:window-y="0"
     inkscape:window-maximized="1"
     inkscape:current-layer="layer1" /><defs
     id="defs1"><rect
       x="18.153957"
       y="399.38705"
       width="258.69388"
       height="363.07913"
       id="rect2" /><rect
       x="23.534107"
       y="1006.618"
       width="360.25328"
       height="155.33705"
       id="rect1" /><rect
       x="23.534107"
       y="1006.618"
       width="547.70288"
       height="48.672813"
       id="rect1-9" /><rect
       x="23.534107"
       y="1006.618"
       width="194.09176"
       height="1133.1092"
       id="rect1-9-7" /><rect
       x="23.534107"
       y="1006.618"
       width="218.98477"
       height="1205.7701"
       id="rect1-9-7-1" /><rect
       x="23.534107"
       y="1006.618"
       width="366.16292"
       height="152.9732"
       id="rect1-6" /></defs><g
     inkscape:label="Taso 1"
     inkscape:groupmode="layer"
     id="layer1"><text
       xml:space="preserve"
       transform="scale(0.26458333)"
       id="text2"
       style="font-weight:bold;font-size:16px;line-height:1;font-family:DINOT;-inkscape-font-specification:'DINOT Bold';text-align:start;writing-mode:lr-tb;direction:ltr;white-space:pre;shape-inside:url(#rect2);display:inline;fill:#000000;fill-opacity:1;stroke:none;stroke-width:3.40157;stroke-linecap:round;stroke-linejoin:round" /><g
       id="g6"><path
         style="fill:#030303;stroke-width:0.118567"
         d="m 24.795085,156.88855 h -0.03128 v -0.61701 -0.61701 H 12.793178 0.82257973 v -0.36708 -0.36709 H 12.793178 24.763787 v -0.61831 -0.61832 l 0.05327,0.005 0.05327,0.005 4.104479,0.79599 4.104473,0.79598 -0.04682,0.0107 -0.04682,0.0107 -4.079661,0.79055 -4.079653,0.79056 z"
         id="path1"
         inkscape:export-filename="tweak.png"
         inkscape:export-xdpi="28.230381"
         inkscape:export-ydpi="28.230381" /><path
         style="fill:#030303;stroke-width:0.118567"
         d="m 9.3357389,140.86401 h 0.03128 V 140.247 139.62999 H 21.337646 33.308244 v -0.36708 -0.36709 H 21.337646 9.3670369 v -0.61831 -0.61831 l -0.05327,0.005 -0.05327,0.005 -4.1044797,0.79598 -4.104473,0.79598 0.04682,0.0107 0.04682,0.0107 4.079661,0.79055 4.0796537,0.79056 z"
         id="path1-3"
         inkscape:export-filename="tweak.png"
         inkscape:export-xdpi="28.230381"
         inkscape:export-ydpi="28.230381" /><path
         style="fill:#030303;stroke-width:0.0877281"
         d="m 9.9280703,14.005184 v -0.0164 H 9.2835246 8.6389752 V 7.7154243 1.442078 H 8.2555101 7.8720461 V 7.7154243 13.988774 H 7.2261417 6.5802332 l 0.0054,0.02792 0.0054,0.02792 0.831501,2.151004 0.8315019,2.151004 0.01115,-0.02454 0.01115,-0.02454 0.825835,-2.138 0.8258372,-2.137994 z"
         id="path1-2-6" /><path
         style="fill:#030303;stroke-width:0.0877281"
         d="m 13.287253,14.007624 v -0.0164 h -0.644545 -0.64455 V 7.7178693 1.444523 H 11.614693 11.231229 V 7.7178693 13.991218 H 10.585325 9.9394173 l 0.0054,0.02792 0.0054,0.02792 0.8314997,2.151003 0.831502,2.151004 0.01115,-0.02453 0.01115,-0.02454 0.825836,-2.138001 0.825837,-2.137994 z"
         id="path1-2-6-9" /><path
         style="fill:#030303;stroke-width:0.0877281"
         d="m 24.26467,14.005184 v -0.0164 H 23.620126 22.975575 V 7.7154243 1.442078 H 22.59211 22.208646 v 6.2733463 6.2733497 h -0.645905 -0.645908 l 0.0054,0.02792 0.0055,0.02792 0.8315,2.151004 0.8315,2.151004 0.01117,-0.02454 0.01116,-0.02454 0.825834,-2.138 0.825837,-2.137994 z"
         id="path1-2-6-3" /><path
         style="fill:#030303;stroke-width:0.0877281"
         d="m 27.623854,14.007624 v -0.0164 h -0.644545 -0.64455 V 7.7178693 1.444523 H 25.951294 25.56783 v 6.2733463 6.2733487 h -0.645905 -0.645907 l 0.0055,0.02792 0.0055,0.02792 0.831501,2.151003 0.831499,2.151004 0.01116,-0.02453 0.01116,-0.02454 0.825834,-2.138001 0.82584,-2.137994 z"
         id="path1-2-6-9-7" /><path
         style="fill:#030303;stroke-width:0.0877281"
         d="m 31.004136,14.005184 v -0.0164 H 30.359588 29.715039 V 7.7154243 1.442078 h -0.383462 -0.383468 v 6.2733463 6.2733497 h -0.645902 -0.64591 l 0.0055,0.02792 0.0054,0.02792 0.831501,2.151004 0.831499,2.151004 0.01117,-0.02453 0.01116,-0.02454 0.825837,-2.138 0.825836,-2.137994 z"
         id="path1-2-6-9-7-2" /><path
         style="font-weight:bold;font-size:50.0012px;line-height:1;font-family:DINOT;-inkscape-font-specification:'DINOT Bold';text-align:center;text-anchor:middle;white-space:pre;stroke-width:3.40157;stroke-linecap:round;stroke-linejoin:round"
         d="m 104.15786,1034.3179 c 0,-3.1501 -0.85002,-5.7502 -2.75007,-7.5502 -1.500031,-1.4001 -3.550081,-2.3001 -6.800159,-2.7501 l -4.200101,-0.6 c -1.450035,-0.2 -2.600062,-0.75 -3.300079,-1.4 -0.750018,-0.7001 -1.050025,-1.6501 -1.050025,-2.5501 0,-2.4501 1.800043,-4.5001 5.500132,-4.5001 2.350056,0 5.050121,0.3 7.300175,2.45 l 4.400107,-4.3501 c -3.05007,-2.95 -6.600159,-4.1501 -11.500277,-4.1501 -7.700185,0 -12.400298,4.4501 -12.400298,10.8003 0,3.0001 0.85002,5.3001 2.550061,7.0002 1.600038,1.55 3.850093,2.5 6.900166,2.95 l 4.300103,0.6001 c 1.65004,0.25 2.450059,0.6 3.150076,1.25 0.750018,0.7 1.100026,1.75 1.100026,3.0001 0,2.85 -2.200053,4.4001 -6.300151,4.4001 -3.300079,0 -6.350153,-0.7501 -8.600207,-3.0001 l -4.500108,4.5001 c 3.500084,3.5501 7.600183,4.7001 13.000313,4.7001 7.450179,0 13.200316,-3.9001 13.200316,-10.8002 z m 46.4511,-25.1007 h -7.25018 l -5.55013,22.4506 -6.50016,-22.4506 h -5.20012 l -6.50016,22.4506 -5.50013,-22.4506 h -7.25017 l 9.50022,35.6009 h 5.80014 l 6.55016,-21.6005 6.55016,21.6005 h 5.80014 z m 11.40023,35.6009 v -35.6009 h -6.95017 v 35.6009 z m 31.20076,-29.4007 v -6.2002 h -25.55061 v 6.2002 h 9.30022 v 29.4007 h 6.95017 v -29.4007 z m 29.65065,18.4504 h -7.05017 c -0.75002,3.0501 -2.65006,5.0502 -6.00014,5.0502 -1.90005,0 -3.40009,-0.6001 -4.45011,-1.8501 -1.45004,-1.55 -1.75004,-3.1501 -1.75004,-10.0502 0,-6.9002 0.3,-8.5002 1.75004,-10.0503 1.05002,-1.25 2.55006,-1.85 4.45011,-1.85 3.35008,0 5.25012,2 6.00014,5.0501 h 7.05017 c -1.20003,-7.2502 -6.25015,-11.2503 -13.10032,-11.2503 -3.80009,0 -7.00016,1.3001 -9.60023,3.9001 -1.55003,1.5501 -2.50006,3.3001 -2.90007,5.3502 -0.40001,2 -0.60001,4.9501 -0.60001,8.8502 0,3.9001 0.2,6.8501 0.60001,8.8502 0.40001,2 1.35004,3.8001 2.90007,5.3501 2.60007,2.6001 5.80014,3.9001 9.60023,3.9001 6.80017,0 11.90029,-4.0001 13.10032,-11.2503 z m 31.95081,10.9503 v -35.6009 h -6.95017 v 14.5504 h -12.05029 v -14.5504 h -6.95017 v 35.6009 h 6.95017 v -14.9004 h 12.05029 v 14.9004 z m 42.80101,-29.4007 v -6.2002 h -25.55061 v 6.2002 h 9.30022 v 29.4007 h 6.95017 v -29.4007 z m 29.75065,11.6003 c 0,-6.1502 0.05,-10.6003 -3.55008,-14.2004 -2.50006,-2.5 -5.55013,-3.9001 -9.60023,-3.9001 -4.0501,0 -7.15017,1.4001 -9.65023,3.9001 -3.60009,3.6001 -3.50009,8.0502 -3.50009,14.2004 0,6.1501 -0.1,10.6002 3.50009,14.2003 2.50006,2.5001 5.60013,3.9001 9.65023,3.9001 4.0501,0 7.10017,-1.4 9.60023,-3.9001 3.60009,-3.6001 3.55008,-8.0502 3.55008,-14.2003 z m -6.95016,0 c 0,6.8501 -0.40001,8.5002 -1.75004,10.0002 -1.00003,1.15 -2.55007,1.9001 -4.45011,1.9001 -1.90005,0 -3.50009,-0.7501 -4.50011,-1.9001 -1.35003,-1.5 -1.70004,-3.1501 -1.70004,-10.0002 0,-6.8502 0.35001,-8.5002 1.70004,-10.0003 1.00002,-1.15 2.60006,-1.9 4.50011,-1.9 1.90004,0 3.45008,0.75 4.45011,1.9 1.35003,1.5001 1.75004,3.1501 1.75004,10.0003 z m -218.10518,67.8016 v -35.6008 h -6.950163 v 21.8005 l -14.100339,-21.8005 h -6.200149 v 35.6008 h 6.950167 v -21.8505 l 14.100339,21.8505 z m 31.75079,0 v -6.2001 h -16.5004 v -8.6502 h 14.05034 v -6.2002 h -14.05034 v -8.3502 h 16.5004 v -6.2001 h -23.45056 v 35.6008 z m 32.55076,0 -11.10027,-18.2504 10.35025,-17.3504 h -7.85019 l -6.25015,11.5002 -6.20015,-11.5002 h -7.90019 l 10.35025,17.3504 -11.05026,18.2504 h 7.95019 l 6.85016,-12.4003 6.90017,12.4003 z m 27.30069,-29.4007 v -6.2001 h -25.55062 v 6.2001 h 9.30023 v 29.4007 h 6.95017 v -29.4007 z m 42.35098,11.6003 c 0,-6.1501 0.05,-10.6003 -3.55008,-14.2003 -2.50006,-2.5001 -5.55013,-3.9001 -9.60023,-3.9001 -4.0501,0 -7.15017,1.4 -9.65023,3.9001 -3.60009,3.6 -3.50009,8.0502 -3.50009,14.2003 0,6.1501 -0.1,10.6003 3.50009,14.2003 2.50006,2.5001 5.60013,3.9001 9.65023,3.9001 4.0501,0 7.10017,-1.4 9.60023,-3.9001 3.60008,-3.6 3.55008,-8.0502 3.55008,-14.2003 z m -6.95016,0 c 0,6.8502 -0.40001,8.5002 -1.75005,10.0002 -1.00002,1.1501 -2.55006,1.9001 -4.4501,1.9001 -1.90005,0 -3.50009,-0.75 -4.50011,-1.9001 -1.35003,-1.5 -1.70004,-3.15 -1.70004,-10.0002 0,-6.8502 0.35001,-8.5002 1.70004,-10.0002 1.00002,-1.1501 2.60006,-1.9001 4.50011,-1.9001 1.90004,0 3.45008,0.75 4.4501,1.9001 1.35004,1.5 1.75005,3.15 1.75005,10.0002 z m 39.6009,-6.7002 c 0,-6.0501 -4.4001,-11.1002 -11.75028,-11.1002 h -13.80033 v 35.6008 h 6.95017 v -13.4003 h 6.85016 c 7.35018,0 11.75028,-5.0501 11.75028,-11.1003 z m -6.95016,0 c 0,2.9001 -2.00005,4.8502 -5.15013,4.8502 h -6.50015 v -9.7503 h 6.50015 c 3.15008,0 5.15013,2.0001 5.15013,4.9001 z m 36.25089,24.5006 v -6.2001 h -16.5004 v -8.6502 h 14.05034 v -6.2002 h -14.05034 v -8.3502 h 16.5004 v -6.2001 h -23.45057 v 35.6008 z m 34.05079,0 v -35.6008 h -6.95017 v 21.8005 l -14.10034,-21.8005 h -6.20015 v 35.6008 h 6.95017 v -21.8505 l 14.10034,21.8505 z m -255.931095,50.0012 -13.000312,-35.6008 h -5.450131 l -12.950312,35.6008 h 7.250175 l 2.150051,-6.3001 H 66.98189 l 2.100051,6.3001 z m -11.200269,-12.1502 h -8.850213 l 4.500108,-12.9504 z M 106.28286,1120.32 c 0,-6.0502 -4.40011,-11.1003 -11.750283,-11.1003 H 80.732245 v 35.6008 h 6.950167 v -13.4003 h 6.850165 c 7.350173,0 11.750283,-5.0501 11.750283,-11.1002 z m -6.950168,0 c 0,2.9 -2.000048,4.8501 -5.150123,4.8501 h -6.500157 v -9.7503 h 6.500157 c 3.150075,0 5.150123,2.0001 5.150123,4.9002 z m 38.350938,0 c 0,-6.0502 -4.40011,-11.1003 -11.75028,-11.1003 h -13.80034 v 35.6008 h 6.95017 v -13.4003 h 6.85017 c 7.35017,0 11.75028,-5.0501 11.75028,-11.1002 z m -6.95017,0 c 0,2.9 -2.00005,4.8501 -5.15012,4.8501 h -6.50016 v -9.7503 h 6.50016 c 3.15007,0 5.15012,2.0001 5.15012,4.9002 z m 51.90128,24.5005 -13.00031,-35.6008 h -5.45013 l -12.95031,35.6008 h 7.25017 l 2.15005,-6.3001 h 12.65031 l 2.10005,6.3001 z m -11.20027,-12.1502 h -8.85021 l 4.50011,-12.9504 z m 35.5009,-17.2505 v -6.2001 h -25.55061 v 6.2001 h 9.30022 v 29.4007 h 6.95017 v -29.4007 z m 44.20104,29.4007 -7.95019,-15.3503 c 3.45008,-1.2501 6.50016,-4.3501 6.50016,-9.3502 0,-5.9502 -4.30011,-10.9003 -11.55028,-10.9003 h -13.95034 v 35.6008 h 6.95017 v -14.2003 h 5.00012 l 6.95017,14.2003 z m -8.4002,-24.7005 c 0,2.75 -2.00005,4.7001 -5.05012,4.7001 h -6.55016 v -9.4003 h 6.55016 c 3.05007,0 5.05012,1.9501 5.05012,4.7002 z m 21.10046,24.7005 v -35.6008 h -6.95016 v 35.6008 z m 33.65084,-14.6003 v -5.2001 h -13.45032 v 5.8001 h 6.55016 v 1.35 c 0,1.9501 -0.55002,3.5501 -1.60004,4.7502 -1.25003,1.35 -2.90007,2 -4.95012,2 -1.90005,0 -3.40008,-0.6 -4.45011,-1.85 -1.40003,-1.6501 -1.70004,-3.0501 -1.70004,-10.0503 0,-7.0502 0.40001,-8.3502 1.70004,-10.0002 1.10003,-1.2501 2.60007,-1.9001 4.45011,-1.9001 3.45008,0 5.55013,1.7501 6.40015,5.2002 h 7.00017 c -0.95002,-6.2002 -5.30012,-11.4003 -13.40032,-11.4003 -3.80009,0 -7.00017,1.3 -9.60023,3.9001 -1.55004,1.55 -2.50006,3.3001 -2.90007,5.3501 -0.40001,2.0001 -0.60001,4.9501 -0.60001,8.8502 0,3.9001 0.2,6.8502 0.60001,8.8502 0.40001,2.0001 1.35003,3.8001 2.90007,5.3502 2.60006,2.6 5.80014,3.9001 9.60023,3.9001 4.0001,0 7.30018,-1.2501 10.05024,-4.0501 2.45006,-2.6001 3.40008,-5.6502 3.40008,-10.8503 z m 32.45073,14.6003 v -35.6008 h -6.95017 v 14.5503 h -12.05029 v -14.5503 h -6.95017 v 35.6008 h 6.95017 v -14.9003 h 12.05029 v 14.9003 z m 31.20072,-29.4007 v -6.2001 h -25.55062 v 6.2001 h 9.30023 v 29.4007 h 6.95016 v -29.4007 z"
         id="text1"
         transform="matrix(0.08466455,0,0,0.08466476,-1.9968447,56.136334)"
         aria-label="SWITCH TO NEXT OPEN APP AT RIGHT" /><path
         style="font-weight:bold;font-size:50.0012px;line-height:1;font-family:DINOT;-inkscape-font-specification:'DINOT Bold';text-align:center;text-anchor:middle;white-space:pre;stroke-width:3.40157;stroke-linecap:round;stroke-linejoin:round"
         d="m 107.11294,1034.3179 c 0,-3.1501 -0.85002,-5.7502 -2.75007,-7.5502 -1.50003,-1.4001 -3.55008,-2.3001 -6.800161,-2.7501 l -4.200101,-0.6 c -1.450034,-0.2 -2.600062,-0.75 -3.300079,-1.4 -0.750018,-0.7001 -1.050025,-1.6501 -1.050025,-2.5501 0,-2.4501 1.800043,-4.5001 5.500132,-4.5001 2.350057,0 5.050121,0.3 7.300174,2.45 l 4.40011,-4.3501 c -3.05008,-2.95 -6.600161,-4.1501 -11.500279,-4.1501 -7.700185,0 -12.400298,4.4501 -12.400298,10.8003 0,3.0001 0.85002,5.3001 2.550061,7.0002 1.600039,1.55 3.850093,2.5 6.900166,2.95 l 4.300103,0.6001 c 1.65004,0.25 2.450059,0.6 3.150076,1.25 0.750018,0.7 1.100031,1.75 1.100031,3.0001 0,2.85 -2.200057,4.4001 -6.300156,4.4001 -3.300079,0 -6.350153,-0.7501 -8.600207,-3.0001 l -4.500108,4.5001 c 3.500084,3.5501 7.600183,4.7001 13.000313,4.7001 7.450178,0 13.200318,-3.9001 13.200318,-10.8002 z m 46.45109,-25.1007 h -7.25017 l -5.55013,22.4506 -6.50016,-22.4506 h -5.20012 l -6.50016,22.4506 -5.50013,-22.4506 h -7.25018 l 9.50023,35.6009 h 5.80014 l 6.55016,-21.6005 6.55016,21.6005 h 5.80014 z m 11.40023,35.6009 v -35.6009 h -6.95016 v 35.6009 z m 31.20077,-29.4007 v -6.2002 h -25.55062 v 6.2002 h 9.30023 v 29.4007 h 6.95016 v -29.4007 z m 29.65065,18.4504 h -7.05017 c -0.75002,3.0501 -2.65007,5.0502 -6.00015,5.0502 -1.90004,0 -3.40008,-0.6001 -4.4501,-1.8501 -1.45004,-1.55 -1.75005,-3.1501 -1.75005,-10.0502 0,-6.9002 0.30001,-8.5002 1.75005,-10.0503 1.05002,-1.25 2.55006,-1.85 4.4501,-1.85 3.35008,0 5.25013,2 6.00015,5.0501 h 7.05017 c -1.20003,-7.2502 -6.25015,-11.2503 -13.10032,-11.2503 -3.80009,0 -7.00017,1.3001 -9.60023,3.9001 -1.55004,1.5501 -2.50006,3.3001 -2.90007,5.3502 -0.40001,2 -0.60001,4.9501 -0.60001,8.8502 0,3.9001 0.2,6.8501 0.60001,8.8502 0.40001,2 1.35003,3.8001 2.90007,5.3501 2.60006,2.6001 5.80014,3.9001 9.60023,3.9001 6.80017,0 11.90029,-4.0001 13.10032,-11.2503 z m 31.95081,10.9503 v -35.6009 h -6.95017 v 14.5504 h -12.05029 v -14.5504 h -6.95017 v 35.6009 h 6.95017 v -14.9004 h 12.05029 v 14.9004 z m 42.80101,-29.4007 v -6.2002 h -25.55061 v 6.2002 h 9.30022 v 29.4007 h 6.95017 v -29.4007 z m 29.75065,11.6003 c 0,-6.1502 0.05,-10.6003 -3.55008,-14.2004 -2.50006,-2.5 -5.55014,-3.9001 -9.60023,-3.9001 -4.0501,0 -7.15017,1.4001 -9.65024,3.9001 -3.60008,3.6001 -3.50008,8.0502 -3.50008,14.2004 0,6.1501 -0.1,10.6002 3.50008,14.2003 2.50007,2.5001 5.60014,3.9001 9.65024,3.9001 4.05009,0 7.10017,-1.4 9.60023,-3.9001 3.60008,-3.6001 3.55008,-8.0502 3.55008,-14.2003 z m -6.95016,0 c 0,6.8501 -0.40001,8.5002 -1.75005,10.0002 -1.00002,1.15 -2.55006,1.9001 -4.4501,1.9001 -1.90005,0 -3.50009,-0.7501 -4.50011,-1.9001 -1.35003,-1.5 -1.70004,-3.1501 -1.70004,-10.0002 0,-6.8502 0.35001,-8.5002 1.70004,-10.0003 1.00002,-1.15 2.60006,-1.9 4.50011,-1.9 1.90004,0 3.45008,0.75 4.4501,1.9 1.35004,1.5001 1.75005,3.1501 1.75005,10.0003 z m -218.10518,67.8016 v -35.6008 h -6.950165 v 21.8005 l -14.100339,-21.8005 h -6.200149 v 35.6008 h 6.950167 v -21.8505 l 14.100339,21.8505 z m 31.75079,0 v -6.2001 h -16.5004 v -8.6502 h 14.05034 v -6.2002 H 120.5132 v -8.3502 h 16.5004 v -6.2001 h -23.45057 v 35.6008 z m 32.55076,0 -11.10027,-18.2504 10.35025,-17.3504 h -7.85019 l -6.25015,11.5002 -6.20015,-11.5002 h -7.90019 l 10.35025,17.3504 -11.05026,18.2504 h 7.95019 l 6.85016,-12.4003 6.90017,12.4003 z m 27.30069,-29.4007 v -6.2001 h -25.55062 v 6.2001 h 9.30023 v 29.4007 h 6.95016 v -29.4007 z m 42.35098,11.6003 c 0,-6.1501 0.05,-10.6003 -3.55008,-14.2003 -2.50006,-2.5001 -5.55014,-3.9001 -9.60023,-3.9001 -4.0501,0 -7.15018,1.4 -9.65024,3.9001 -3.60008,3.6 -3.50008,8.0502 -3.50008,14.2003 0,6.1501 -0.1,10.6003 3.50008,14.2003 2.50006,2.5001 5.60014,3.9001 9.65024,3.9001 4.05009,0 7.10017,-1.4 9.60023,-3.9001 3.60008,-3.6 3.55008,-8.0502 3.55008,-14.2003 z m -6.95017,0 c 0,6.8502 -0.4,8.5002 -1.75004,10.0002 -1.00002,1.1501 -2.55006,1.9001 -4.4501,1.9001 -1.90005,0 -3.50009,-0.75 -4.50011,-1.9001 -1.35003,-1.5 -1.70004,-3.15 -1.70004,-10.0002 0,-6.8502 0.35001,-8.5002 1.70004,-10.0002 1.00002,-1.1501 2.60006,-1.9001 4.50011,-1.9001 1.90004,0 3.45008,0.75 4.4501,1.9001 1.35004,1.5 1.75004,3.15 1.75004,10.0002 z m 39.60091,-6.7002 c 0,-6.0501 -4.4001,-11.1002 -11.75028,-11.1002 h -13.80033 v 35.6008 h 6.95017 v -13.4003 h 6.85016 c 7.35018,0 11.75028,-5.0501 11.75028,-11.1003 z m -6.95017,0 c 0,2.9001 -2.00004,4.8502 -5.15012,4.8502 h -6.50015 v -9.7503 h 6.50015 c 3.15008,0 5.15012,2.0001 5.15012,4.9001 z m 36.25089,24.5006 v -6.2001 H 284.6671 v -8.6502 h 14.05033 v -6.2002 H 284.6671 v -8.3502 h 16.50039 v -6.2001 h -23.45056 v 35.6008 z m 34.0508,0 v -35.6008 h -6.95017 v 21.8005 l -14.10034,-21.8005 h -6.20015 v 35.6008 h 6.95017 v -21.8505 l 14.10034,21.8505 z m -243.155846,50.0012 -13.000312,-35.6008 h -5.450131 l -12.950311,35.6008 h 7.250174 l 2.150052,-6.3001 H 82.71222 l 2.10005,6.3001 z m -11.200269,-12.1502 h -8.850212 l 4.500108,-12.9504 z M 122.01319,1120.32 c 0,-6.0502 -4.40011,-11.1003 -11.75028,-11.1003 H 96.462575 v 35.6008 h 6.950165 v -13.4003 h 6.85017 c 7.35017,0 11.75028,-5.0501 11.75028,-11.1002 z m -6.95017,0 c 0,2.9 -2.00005,4.8501 -5.15012,4.8501 h -6.50016 v -9.7503 h 6.50016 c 3.15007,0 5.15012,2.0001 5.15012,4.9002 z m 38.35094,0 c 0,-6.0502 -4.40011,-11.1003 -11.75029,-11.1003 h -13.80033 v 35.6008 h 6.95017 v -13.4003 h 6.85016 c 7.35018,0 11.75029,-5.0501 11.75029,-11.1002 z m -6.95017,0 c 0,2.9 -2.00005,4.8501 -5.15012,4.8501 h -6.50016 v -9.7503 h 6.50016 c 3.15007,0 5.15012,2.0001 5.15012,4.9002 z m 51.90128,24.5005 -13.00031,-35.6008 h -5.45013 l -12.95031,35.6008 h 7.25017 l 2.15005,-6.3001 h 12.65031 l 2.10005,6.3001 z m -11.20027,-12.1502 h -8.85021 l 4.50011,-12.9504 z m 35.5009,-17.2505 v -6.2001 h -25.55061 v 6.2001 h 9.30022 v 29.4007 h 6.95017 v -29.4007 z m 40.35095,29.4007 v -6.2001 h -16.15039 v -29.4007 h -6.95017 v 35.6008 z m 29.10074,0 v -6.2001 h -16.5004 v -8.6502 h 14.05034 v -6.2002 h -14.05034 v -8.3502 h 16.5004 v -6.2001 h -23.45056 v 35.6008 z m 30.2507,-29.4007 v -6.2001 h -23.45056 v 35.6008 h 6.95016 v -14.4503 h 14.05034 v -6.2001 h -14.05034 v -8.7503 z m 28.95069,0 v -6.2001 h -25.55061 v 6.2001 h 9.30022 v 29.4007 h 6.95017 v -29.4007 z"
         id="text1-5"
         transform="matrix(0.08466455,0,0,0.08466476,2.3885182,39.696308)"
         aria-label="SWITCH TO NEXT OPEN APP AT LEFT" /><path
         style="font-weight:bold;font-size:47.865px;line-height:1;font-family:DINOT;-inkscape-font-specification:'DINOT Bold';white-space:pre;stroke-width:3.40157;stroke-linecap:round;stroke-linejoin:round"
         d="m 49.428169,1015.0414 v -5.9352 H 24.969153 v 5.9352 h 8.90289 v 28.1446 h 6.653236 v -28.1446 z m 43.604976,-5.9352 H 86.09272 l -5.313015,21.4914 -6.222451,-21.4914 h -4.97796 l -6.22245,21.4914 -5.26515,-21.4914 h -6.940425 l 9.09435,34.0798 h 5.55234 l 6.270315,-20.6776 6.270315,20.6776 h 5.552341 z m 27.809515,17.0399 c 0,-5.8874 0.0479,-10.1474 -3.39842,-13.5937 -2.39325,-2.3932 -5.31302,-3.7334 -9.19008,-3.7334 -3.87707,0 -6.8447,1.3402 -9.237946,3.7334 -3.44628,3.4463 -3.35055,7.7063 -3.35055,13.5937 0,5.8874 -0.09573,10.1474 3.35055,13.5937 2.393246,2.3932 5.360876,3.7334 9.237946,3.7334 3.87706,0 6.79683,-1.3402 9.19008,-3.7334 3.44628,-3.4463 3.39842,-7.7063 3.39842,-13.5937 z m -6.65324,0 c 0,6.5575 -0.38292,8.1371 -1.67528,9.573 -0.9573,1.1009 -2.44111,1.8189 -4.25998,1.8189 -1.81887,0 -3.35055,-0.718 -4.30785,-1.8189 -1.29236,-1.4359 -1.62741,-3.0155 -1.62741,-9.573 0,-6.5575 0.33505,-8.137 1.62741,-9.573 0.9573,-1.1009 2.48898,-1.8189 4.30785,-1.8189 1.81887,0 3.30268,0.718 4.25998,1.8189 1.29236,1.436 1.67528,3.0155 1.67528,9.573 z m -64.234736,36.7603 v -5.9352 H 27.505998 v 34.0798 h 6.653235 v -13.8329 h 13.450066 v -5.9353 H 34.159233 v -8.3764 z m 12.444908,28.1446 v -34.0798 h -6.653235 v 34.0798 z m 34.032031,0 v -34.0798 h -6.653235 v 20.8691 l -13.49793,-20.8691 h -5.935261 v 34.0798 h 6.653236 v -20.917 l 13.49793,20.917 z m 32.213167,-13.9765 v -4.978 H 115.7691 v 5.5523 h 6.27031 v 1.2924 c 0,1.8667 -0.52651,3.3984 -1.53168,4.5472 -1.19662,1.2923 -2.77617,1.9146 -4.73863,1.9146 -1.81887,0 -3.25482,-0.5744 -4.25999,-1.771 -1.34022,-1.5796 -1.62741,-2.9198 -1.62741,-9.6209 0,-6.749 0.38292,-7.9935 1.62741,-9.573 1.05303,-1.1966 2.48898,-1.8189 4.25999,-1.8189 3.30268,0 5.31301,1.6753 6.12672,4.978 h 6.7011 c -0.90943,-5.9353 -5.07369,-10.9132 -12.82782,-10.9132 -3.63774,0 -6.7011,1.2445 -9.19008,3.7334 -1.48382,1.4839 -2.39325,3.1591 -2.77617,5.1216 -0.38292,1.9146 -0.57438,4.7386 -0.57438,8.4721 0,3.7335 0.19146,6.5575 0.57438,8.4721 0.38292,1.9146 1.29235,3.6377 2.77617,5.1216 2.48898,2.4889 5.55234,3.7334 9.19008,3.7334 3.8292,0 6.98829,-1.1966 9.62087,-3.877 2.34538,-2.489 3.25482,-5.4088 3.25482,-10.3867 z m 28.67109,13.9765 v -5.9352 h -15.79545 v -8.2807 h 13.45007 v -5.9352 h -13.45007 v -7.9935 h 15.79545 v -5.9352 H 134.8672 v 34.0798 z m 32.30886,0 -7.61054,-14.6945 c 3.30269,-1.1966 6.22245,-4.1643 6.22245,-8.9508 0,-5.6959 -4.11639,-10.4345 -11.05681,-10.4345 H 163.8255 v 34.0798 h 6.65324 v -13.5936 h 4.7865 l 6.65323,13.5936 z m -8.04132,-23.6453 c 0,2.6326 -1.9146,4.4993 -4.83437,4.4993 h -6.27031 v -8.9986 h 6.27031 c 2.91977,0 4.83437,1.8668 4.83437,4.4993 z m -132.059521,61.4587 c 0,-3.0155 -0.813705,-5.5045 -2.632575,-7.2276 -1.43595,-1.3403 -3.398415,-2.2018 -6.50964,-2.6326 l -4.02066,-0.5744 c -1.388085,-0.1915 -2.488981,-0.718 -3.159091,-1.3402 -0.717975,-0.6701 -1.005165,-1.5796 -1.005165,-2.4411 0,-2.3454 1.72314,-4.3079 5.265151,-4.3079 2.249655,0 4.834365,0.2872 6.98829,2.3454 l 4.21212,-4.1642 c -2.919765,-2.8241 -6.31818,-3.9728 -11.00895,-3.9728 -7.371211,0 -11.870521,4.2599 -11.870521,10.3388 0,2.8719 0.813705,5.0737 2.441115,6.7011 1.53168,1.4838 3.685605,2.3932 6.605371,2.824 l 4.11639,0.5744 c 1.579545,0.2393 2.345385,0.5744 3.015495,1.1966 0.717975,0.6701 1.05303,1.6753 1.05303,2.8719 0,2.7283 -2.10606,4.2122 -6.03099,4.2122 -3.159091,0 -6.078856,-0.718 -8.232781,-2.8719 l -4.30785,4.3078 c 3.35055,3.3984 7.27548,4.4993 12.444901,4.4993 7.131885,0 12.63636,-3.7335 12.63636,-10.3388 z m 44.466567,-24.0283 h -6.940425 l -5.313015,21.4914 -6.22245,-21.4914 h -4.977961 l -6.22245,21.4914 -5.26515,-21.4914 H 52.10859 l 9.09435,34.0799 h 5.55234 l 6.270315,-20.6777 6.270316,20.6777 h 5.55234 z m 10.913184,34.0799 v -34.0799 h -6.653236 v 34.0799 z m 32.40462,-23.4538 c 0,-5.7917 -4.21212,-10.6261 -11.24828,-10.6261 h -13.21074 v 34.0799 h 6.65324 v -12.8278 h 6.5575 c 7.03616,0 11.24828,-4.8344 11.24828,-10.626 z m -6.65324,0 c 0,2.7761 -1.9146,4.6429 -4.93009,4.6429 h -6.22245 v -9.3337 h 6.22245 c 3.01549,0 4.93009,1.9146 4.93009,4.6908 z m 34.70214,23.4538 v -5.9352 h -15.79546 v -8.2807 h 13.45007 v -5.9352 h -13.45007 v -7.9935 h 15.79546 v -5.9353 h -22.44869 v 34.0799 z m -115.402486,19.7204 v -5.9353 H 27.505998 v 34.0799 h 6.653235 v -13.833 h 13.450066 v -5.9352 H 34.159233 v -8.3764 z m 31.590909,28.1446 -7.610536,-14.6945 c 3.302685,-1.1967 6.22245,-4.1643 6.22245,-8.9508 0,-5.6959 -4.11639,-10.4346 -11.056815,-10.4346 H 55.746357 v 34.0799 h 6.653235 v -13.5936 h 4.7865 l 6.653235,13.5936 z m -8.041321,-23.6453 c 0,2.6326 -1.9146,4.4993 -4.834365,4.4993 h -6.270315 v -8.9986 h 6.270315 c 2.919765,0 4.834365,1.8667 4.834365,4.4993 z m 37.573998,6.6054 c 0,-5.8874 0.0479,-10.1474 -3.39842,-13.5937 -2.39325,-2.3932 -5.31301,-3.7335 -9.190079,-3.7335 -3.877066,0 -6.844696,1.3403 -9.237946,3.7335 -3.44628,3.4463 -3.35055,7.7063 -3.35055,13.5937 0,5.8874 -0.09573,10.1474 3.35055,13.5936 2.39325,2.3933 5.36088,3.7335 9.237946,3.7335 3.877069,0 6.796829,-1.3402 9.190079,-3.7335 3.44628,-3.4462 3.39842,-7.7062 3.39842,-13.5936 z m -6.65324,0 c 0,6.5575 -0.38292,8.137 -1.67527,9.573 -0.9573,1.1009 -2.44112,1.8188 -4.259989,1.8188 -1.818871,0 -3.350551,-0.7179 -4.307851,-1.8188 -1.292355,-1.436 -1.62741,-3.0155 -1.62741,-9.573 0,-6.5575 0.335055,-8.1371 1.62741,-9.573 0.9573,-1.1009 2.48898,-1.8189 4.307851,-1.8189 1.818869,0 3.302689,0.718 4.259989,1.8189 1.29235,1.4359 1.67527,3.0155 1.67527,9.573 z m 44.32295,17.0399 v -34.0799 h -6.5575 l -8.85503,18.4281 -8.90289,-18.4281 h -6.55751 v 34.0799 h 6.65324 v -19.864 l 6.55751,12.9236 h 4.49931 l 6.50964,-12.9236 v 19.864 z m -99.319811,19.7204 v -5.9353 H 24.969153 v 5.9353 h 8.90289 v 28.1446 h 6.653236 v -28.1446 z m 28.479612,11.1047 c 0,-5.8874 0.04787,-10.1474 -3.398415,-13.5937 -2.39325,-2.3932 -5.313015,-3.7335 -9.19008,-3.7335 -3.877065,0 -6.844695,1.3403 -9.237945,3.7335 -3.44628,3.4463 -3.35055,7.7063 -3.35055,13.5937 0,5.8874 -0.09573,10.1473 3.35055,13.5936 2.39325,2.3933 5.36088,3.7335 9.237945,3.7335 3.877065,0 6.79683,-1.3402 9.19008,-3.7335 3.44628,-3.4463 3.398415,-7.7062 3.398415,-13.5936 z m -6.653235,0 c 0,6.5575 -0.38292,8.137 -1.675275,9.573 -0.9573,1.1009 -2.441115,1.8188 -4.259985,1.8188 -1.81887,0 -3.35055,-0.7179 -4.30785,-1.8188 -1.292355,-1.436 -1.62741,-3.0155 -1.62741,-9.573 0,-6.5575 0.335055,-8.1371 1.62741,-9.573 0.9573,-1.1009 2.48898,-1.8189 4.30785,-1.8189 1.81887,0 3.302685,0.718 4.259985,1.8189 1.292355,1.4359 1.675275,3.0155 1.675275,9.573 z m 37.909034,-6.4139 c 0,-5.7917 -4.21212,-10.6261 -11.248271,-10.6261 h -13.21074 v 34.0799 h 6.653235 v -12.8278 h 6.557505 c 7.036151,0 11.248271,-4.8344 11.248271,-10.626 z m -6.65323,0 c 0,2.7761 -1.9146,4.6429 -4.930096,4.6429 h -6.22245 v -9.3337 h 6.22245 c 3.015496,0 4.930096,1.9146 4.930096,4.6908 z m 45.28032,-4.6908 v -5.9353 h -24.45901 v 5.9353 h 8.90289 v 28.1446 h 6.65323 v -28.1446 z m 28.47961,11.1047 c 0,-5.8874 0.0479,-10.1474 -3.39841,-13.5937 -2.39325,-2.3932 -5.31302,-3.7335 -9.19008,-3.7335 -3.87707,0 -6.8447,1.3403 -9.23795,3.7335 -3.44628,3.4463 -3.35055,7.7063 -3.35055,13.5937 0,5.8874 -0.0957,10.1473 3.35055,13.5936 2.39325,2.3933 5.36088,3.7335 9.23795,3.7335 3.87706,0 6.79683,-1.3402 9.19008,-3.7335 3.44628,-3.4463 3.39841,-7.7062 3.39841,-13.5936 z m -6.65323,0 c 0,6.5575 -0.38292,8.137 -1.67528,9.573 -0.9573,1.1009 -2.44111,1.8188 -4.25998,1.8188 -1.81887,0 -3.35055,-0.7179 -4.30785,-1.8188 -1.29236,-1.436 -1.62741,-3.0155 -1.62741,-9.573 0,-6.5575 0.33505,-8.1371 1.62741,-9.573 0.9573,-1.1009 2.48898,-1.8189 4.30785,-1.8189 1.81887,0 3.30268,0.718 4.25998,1.8189 1.29236,1.4359 1.67528,3.0155 1.67528,9.573 z m -117.364846,47.7214 c 0,-5.1216 0.38292,-9.8124 -3.44628,-13.6416 -2.249655,-2.2496 -5.45661,-3.2548 -8.99862,-3.2548 H 27.505998 v 34.0799 h 12.301306 c 3.54201,0 6.748965,-1.0052 8.99862,-3.2548 3.8292,-3.8292 3.44628,-8.8072 3.44628,-13.9287 z m -6.653235,0 c 0,5.1694 -0.19146,7.6105 -1.43595,9.1422 -1.14876,1.3881 -2.68044,2.106 -4.97796,2.106 h -5.025826 v -22.2093 h 5.025826 c 2.29752,0 3.8292,0.718 4.97796,2.106 1.24449,1.5317 1.43595,3.6856 1.43595,8.8551 z m 37.478315,0.1436 c 0,-5.8874 0.04786,-10.1474 -3.398415,-13.5937 -2.393251,-2.3933 -5.313016,-3.7335 -9.190081,-3.7335 -3.877065,0 -6.844695,1.3402 -9.237945,3.7335 -3.44628,3.4463 -3.35055,7.7063 -3.35055,13.5937 0,5.8874 -0.09573,10.1473 3.35055,13.5936 2.39325,2.3933 5.36088,3.7335 9.237945,3.7335 3.877065,0 6.79683,-1.3402 9.190081,-3.7335 3.44628,-3.4463 3.398415,-7.7062 3.398415,-13.5936 z m -6.653236,0 c 0,6.5575 -0.38292,8.137 -1.675275,9.573 -0.9573,1.1009 -2.441115,1.8188 -4.259985,1.8188 -1.81887,0 -3.35055,-0.7179 -4.30785,-1.8188 -1.292355,-1.436 -1.62741,-3.0155 -1.62741,-9.573 0,-6.5575 0.335055,-8.1371 1.62741,-9.573 0.9573,-1.1009 2.48898,-1.8189 4.30785,-1.8189 1.81887,0 3.302685,0.718 4.259985,1.8189 1.292355,1.4359 1.675275,3.0155 1.675275,9.573 z m 51.167632,-17.04 h -6.94042 l -5.31302,21.4914 -6.22245,-21.4914 h -4.97796 l -6.22245,21.4914 -5.26515,-21.4914 h -6.940425 l 9.09435,34.0799 h 5.552345 l 6.27031,-20.6777 6.27032,20.6777 h 5.55234 z m 30.34637,34.0799 v -34.0799 h -6.65323 v 20.8692 l -13.49793,-20.8692 h -5.93526 v 34.0799 h 6.65323 v -20.917 l 13.49793,20.917 z m -92.23578,13.7851 h -6.940426 l -5.313015,21.4914 -6.22245,-21.4914 h -4.97796 l -6.22245,21.4914 -5.265151,-21.4914 h -6.940425 l 9.09435,34.0799 h 5.552341 l 6.270315,-20.6777 6.270315,20.6777 h 5.55234 z m 10.913178,34.0799 v -34.0799 h -6.653235 v 34.0799 z m 30.059232,0 v -5.9353 H 91.214287 v -28.1446 h -6.653235 v 34.0799 z m 27.52242,0 v -5.9353 h -15.4604 v -28.1446 h -6.65323 v 34.0799 z m -84.673201,37.8133 c 0,-3.0155 -0.813705,-5.5044 -2.632575,-7.2276 -1.43595,-1.3402 -3.398415,-2.2018 -6.50964,-2.6326 l -4.02066,-0.5743 c -1.388085,-0.1915 -2.488981,-0.718 -3.159091,-1.3403 -0.717975,-0.6701 -1.005165,-1.5795 -1.005165,-2.4411 0,-2.3454 1.72314,-4.3078 5.265151,-4.3078 2.249655,0 4.834365,0.2872 6.98829,2.3454 l 4.21212,-4.1643 c -2.919765,-2.824 -6.31818,-3.9728 -11.00895,-3.9728 -7.371211,0 -11.870521,4.26 -11.870521,10.3388 0,2.8719 0.813705,5.0737 2.441115,6.7011 1.53168,1.4839 3.685605,2.3933 6.605371,2.8241 l 4.11639,0.5744 c 1.579545,0.2393 2.345385,0.5743 3.015495,1.1966 0.717975,0.6701 1.05303,1.6753 1.05303,2.8719 0,2.7283 -2.10606,4.2121 -6.03099,4.2121 -3.159091,0 -6.078856,-0.718 -8.232781,-2.8719 l -4.30785,4.3079 c 3.35055,3.3984 7.27548,4.4993 12.444901,4.4993 7.131885,0 12.63636,-3.7335 12.63636,-10.3389 z m 12.923531,10.0517 v -34.0799 h -6.653235 v 34.0799 z m 38.81853,0 v -34.0799 h -6.557506 l -8.855025,18.428 -8.90289,-18.428 h -6.557505 v 34.0799 h 6.653235 v -19.864 l 6.557505,12.9236 h 4.49931 l 6.50964,-12.9236 v 19.864 z m 32.50037,-11.6791 v -22.4008 h -6.60537 v 22.1615 c 0,3.9249 -2.34538,6.2703 -5.93526,6.2703 -3.58987,0 -5.88739,-2.3454 -5.88739,-6.2703 v -22.1615 h -6.65324 v 22.4008 c 0,7.2276 5.55234,11.9663 12.54063,11.9663 6.98829,0 12.54063,-4.7387 12.54063,-11.9663 z m 21.0127,0.9095 v -5.7917 h -14.74242 v 5.7917 z M 49.619629,1426.106 v -5.9353 H 34.159233 v -28.1446 h -6.653235 v 34.0799 z m 31.734533,0 -12.4449,-34.0799 h -5.217285 l -12.397036,34.0799 h 6.940426 l 2.058195,-6.031 h 12.109845 l 2.01033,6.031 z m -10.72176,-11.6312 h -8.472105 l 4.30785,-12.3971 z m 33.984198,-16.5135 v -5.9352 H 80.157584 v 5.9352 h 8.90289 v 28.1447 h 6.653236 v -28.1447 z m 27.85739,28.1447 v -5.9353 h -15.79545 v -8.2806 h 13.45007 v -5.9353 h -13.45007 v -7.9935 h 15.79545 v -5.9352 h -22.44868 v 34.0799 z m -81.035491,37.3825 h -6.748965 c -0.717975,2.9198 -2.536845,4.8344 -5.7438,4.8344 -1.81887,0 -3.25482,-0.5744 -4.259985,-1.771 -1.388086,-1.4838 -1.675276,-3.0155 -1.675276,-9.6209 0,-6.6053 0.28719,-8.137 1.675276,-9.6208 1.005165,-1.1967 2.441115,-1.7711 4.259985,-1.7711 3.206955,0 5.025825,1.9146 5.7438,4.8344 h 6.748965 c -1.14876,-6.9404 -5.983125,-10.7696 -12.54063,-10.7696 -3.63774,0 -6.701101,1.2445 -9.190081,3.7335 -1.483815,1.4838 -2.39325,3.159 -2.77617,5.1215 -0.38292,1.9146 -0.57438,4.7387 -0.57438,8.4721 0,3.7335 0.19146,6.5575 0.57438,8.4721 0.38292,1.9146 1.292355,3.6378 2.77617,5.1216 2.48898,2.489 5.552341,3.7335 9.190081,3.7335 6.50964,0 11.39187,-3.8292 12.54063,-10.7697 z m 26.708689,-17.6622 v -5.9352 H 53.688172 v 5.9352 h 8.90289 v 28.1447 h 6.653236 v -28.1447 z m 31.207942,28.1447 -7.61053,-14.6946 c 3.30268,-1.1966 6.22245,-4.1642 6.22245,-8.9507 0,-5.696 -4.11639,-10.4346 -11.05682,-10.4346 H 83.555895 v 34.0799 h 6.653235 v -13.5937 h 4.7865 l 6.65324,13.5937 z m -8.04132,-23.6453 c 0,2.6325 -1.9146,4.4993 -4.834365,4.4993 H 90.20913 v -8.9987 h 6.270315 c 2.919765,0 4.834365,1.8668 4.834365,4.4994 z m 35.6594,23.6453 v -5.9353 h -15.4604 v -28.1446 h -6.65324 v 34.0799 z m 25.03342,-10.3389 v -5.8395 h -7.6584 v -7.6584 h -5.83953 v 7.6584 h -7.70626 v 5.8395 h 7.70626 v 7.6584 h 5.83953 v -7.6584 z m 32.69177,10.3389 -12.4449,-34.0799 h -5.21728 l -12.39704,34.0799 h 6.94043 l 2.05819,-6.031 h 12.10985 l 2.01033,6.031 z m -10.72176,-11.6312 h -8.4721 l 4.30785,-12.3971 z"
         id="text1-6-6"
         transform="matrix(0.08844313,0,0,0.08844335,0.00991654,-70.702497)"
         aria-label="TWO FINGER SWIPE FROM TOP TO DOWN &#10;WILL SIMU-LATE CTRL+A" /><path
         style="font-weight:bold;font-size:47.865px;line-height:1;font-family:DINOT;-inkscape-font-specification:'DINOT Bold';text-align:end;text-anchor:end;white-space:pre;stroke-width:3.40157;stroke-linecap:round;stroke-linejoin:round"
         d="m 119.07583,1015.0414 v -5.9352 H 94.616818 v 5.9352 h 8.902892 v 28.1446 h 6.65323 v -28.1446 z m 30.25064,28.1446 v -34.0798 h -6.65323 v 13.9287 h -11.53547 v -13.9287 h -6.65323 v 34.0798 h 6.65323 v -14.2637 h 11.53547 v 14.2637 z m 33.74481,0 -7.61054,-14.6945 c 3.30269,-1.1966 6.22245,-4.1643 6.22245,-8.9508 0,-5.6959 -4.11639,-10.4345 -11.05681,-10.4345 h -13.35434 v 34.0798 h 6.65324 v -13.5936 h 4.7865 l 6.65323,13.5936 z m -8.04132,-23.6453 c 0,2.6326 -1.9146,4.4993 -4.83437,4.4993 h -6.27031 v -8.9986 h 6.27031 c 2.91977,0 4.83437,1.8668 4.83437,4.4993 z m 35.99445,23.6453 v -5.9352 h -15.79545 v -8.2807 h 13.45006 v -5.9352 h -13.45006 v -7.9935 h 15.79545 v -5.9352 h -22.44869 v 34.0798 z m 28.9583,0 v -5.9352 h -15.79546 v -8.2807 h 13.45007 v -5.9352 h -13.45007 v -7.9935 h 15.79546 v -5.9352 h -22.44869 v 34.0798 z m -138.66488,19.7204 v -5.9352 H 78.869143 v 34.0798 h 6.653235 v -13.8329 h 13.450066 v -5.9353 H 85.522378 v -8.3764 z m 12.44491,28.1446 v -34.0798 h -6.65324 v 34.0798 z m 34.03203,0 v -34.0798 h -6.65324 v 20.8691 l -13.49793,-20.8691 h -5.93526 v 34.0798 h 6.65324 v -20.917 l 13.49793,20.917 z m 32.21316,-13.9765 v -4.978 h -12.87569 v 5.5523 h 6.27032 v 1.2924 c 0,1.8667 -0.52652,3.3984 -1.53168,4.5472 -1.19663,1.2923 -2.77617,1.9146 -4.73864,1.9146 -1.81887,0 -3.25482,-0.5744 -4.25998,-1.771 -1.34022,-1.5796 -1.62741,-2.9198 -1.62741,-9.6209 0,-6.749 0.38292,-7.9935 1.62741,-9.573 1.05303,-1.1966 2.48898,-1.8189 4.25998,-1.8189 3.30269,0 5.31302,1.6753 6.12672,4.978 h 6.70111 c -0.90944,-5.9353 -5.0737,-10.9132 -12.82783,-10.9132 -3.63774,0 -6.7011,1.2445 -9.19008,3.7334 -1.48381,1.4839 -2.39325,3.1591 -2.77617,5.1216 -0.38292,1.9146 -0.57438,4.7386 -0.57438,8.4721 0,3.7335 0.19146,6.5575 0.57438,8.4721 0.38292,1.9146 1.29236,3.6377 2.77617,5.1216 2.48898,2.4889 5.55234,3.7334 9.19008,3.7334 3.8292,0 6.98829,-1.1966 9.62087,-3.877 2.34538,-2.489 3.25482,-5.4088 3.25482,-10.3867 z m 28.6711,13.9765 v -5.9352 h -15.79545 v -8.2807 h 13.45006 v -5.9352 h -13.45006 v -7.9935 h 15.79545 v -5.9352 h -22.44869 v 34.0798 z m 32.30885,0 -7.61053,-14.6945 c 3.30268,-1.1966 6.22245,-4.1643 6.22245,-8.9508 0,-5.6959 -4.11639,-10.4345 -11.05682,-10.4345 h -13.35433 v 34.0798 h 6.65323 v -13.5936 h 4.7865 l 6.65324,13.5936 z m -8.04132,-23.6453 c 0,2.6326 -1.9146,4.4993 -4.83436,4.4993 h -6.27032 v -8.9986 h 6.27032 c 2.91976,0 4.83436,1.8668 4.83436,4.4993 z m -108.79712,61.4587 c 0,-3.0155 -0.81371,-5.5045 -2.63258,-7.2276 -1.43595,-1.3403 -3.39841,-2.2018 -6.50964,-2.6326 l -4.02066,-0.5744 c -1.38808,-0.1915 -2.48898,-0.718 -3.15909,-1.3402 -0.71797,-0.6701 -1.00516,-1.5796 -1.00516,-2.4411 0,-2.3454 1.72314,-4.3079 5.26515,-4.3079 2.24965,0 4.83436,0.2872 6.98829,2.3454 l 4.21212,-4.1642 c -2.91977,-2.8241 -6.31818,-3.9728 -11.00895,-3.9728 -7.37121,0 -11.87052,4.2599 -11.87052,10.3388 0,2.8719 0.8137,5.0737 2.44111,6.7011 1.53168,1.4838 3.68561,2.3932 6.60537,2.824 l 4.11639,0.5744 c 1.57955,0.2393 2.34539,0.5744 3.0155,1.1966 0.71797,0.6701 1.05303,1.6753 1.05303,2.8719 0,2.7283 -2.10606,4.2122 -6.03099,4.2122 -3.15909,0 -6.07886,-0.718 -8.23278,-2.8719 l -4.307853,4.3078 c 3.350553,3.3984 7.275483,4.4993 12.444903,4.4993 7.13188,0 12.63636,-3.7335 12.63636,-10.3388 z m 44.46656,-24.0283 h -6.94042 l -5.31302,21.4914 -6.22245,-21.4914 h -4.97796 l -6.22245,21.4914 -5.26515,-21.4914 h -6.94042 l 9.09435,34.0799 h 5.55234 l 6.27031,-20.6777 6.27032,20.6777 h 5.55234 z m 10.91319,34.0799 v -34.0799 h -6.65324 v 34.0799 z m 32.40462,-23.4538 c 0,-5.7917 -4.21212,-10.6261 -11.24828,-10.6261 h -13.21074 v 34.0799 h 6.65324 v -12.8278 h 6.5575 c 7.03616,0 11.24828,-4.8344 11.24828,-10.626 z m -6.65324,0 c 0,2.7761 -1.9146,4.6429 -4.93009,4.6429 h -6.22245 v -9.3337 h 6.22245 c 3.01549,0 4.93009,1.9146 4.93009,4.6908 z m 34.70213,23.4538 v -5.9352 h -15.79545 v -8.2807 h 13.45007 v -5.9352 h -13.45007 v -7.9935 h 15.79545 v -5.9353 h -22.44868 v 34.0799 z m -100.2293,19.7204 v -5.9353 h -22.44868 v 34.0799 h 6.65323 v -13.833 h 13.45007 v -5.9352 h -13.45007 v -8.3764 z m 31.59091,28.1446 -7.61054,-14.6945 c 3.30269,-1.1967 6.22245,-4.1643 6.22245,-8.9508 0,-5.6959 -4.11639,-10.4346 -11.05681,-10.4346 h -13.35434 v 34.0799 h 6.65324 v -13.5936 h 4.7865 l 6.65323,13.5936 z m -8.04132,-23.6453 c 0,2.6326 -1.9146,4.4993 -4.83437,4.4993 h -6.27031 v -8.9986 h 6.27031 c 2.91977,0 4.83437,1.8667 4.83437,4.4993 z m 37.57399,6.6054 c 0,-5.8874 0.0479,-10.1474 -3.39841,-13.5937 -2.39325,-2.3932 -5.31302,-3.7335 -9.19008,-3.7335 -3.87707,0 -6.8447,1.3403 -9.23795,3.7335 -3.44628,3.4463 -3.35055,7.7063 -3.35055,13.5937 0,5.8874 -0.0957,10.1474 3.35055,13.5936 2.39325,2.3933 5.36088,3.7335 9.23795,3.7335 3.87706,0 6.79683,-1.3402 9.19008,-3.7335 3.44628,-3.4462 3.39841,-7.7062 3.39841,-13.5936 z m -6.65323,0 c 0,6.5575 -0.38292,8.137 -1.67528,9.573 -0.9573,1.1009 -2.44111,1.8188 -4.25998,1.8188 -1.81887,0 -3.35055,-0.7179 -4.30785,-1.8188 -1.29236,-1.436 -1.62741,-3.0155 -1.62741,-9.573 0,-6.5575 0.33505,-8.1371 1.62741,-9.573 0.9573,-1.1009 2.48898,-1.8189 4.30785,-1.8189 1.81887,0 3.30268,0.718 4.25998,1.8189 1.29236,1.4359 1.67528,3.0155 1.67528,9.573 z m 44.32295,17.0399 v -34.0799 h -6.55751 l -8.85502,18.4281 -8.90289,-18.4281 h -6.55751 v 34.0799 h 6.65324 v -19.864 l 6.5575,12.9236 h 4.49931 l 6.50964,-12.9236 v 19.864 z m -125.69328,19.7204 v -5.9353 H 88.394408 v 5.9353 h 8.902891 v 28.1446 h 6.653231 v -28.1446 z m 28.47962,11.1047 c 0,-5.8874 0.0479,-10.1474 -3.39842,-13.5937 -2.39325,-2.3932 -5.31301,-3.7335 -9.19008,-3.7335 -3.87706,0 -6.84469,1.3403 -9.23794,3.7335 -3.44628,3.4463 -3.35055,7.7063 -3.35055,13.5937 0,5.8874 -0.0957,10.1473 3.35055,13.5936 2.39325,2.3933 5.36088,3.7335 9.23794,3.7335 3.87707,0 6.79683,-1.3402 9.19008,-3.7335 3.44628,-3.4463 3.39842,-7.7062 3.39842,-13.5936 z m -6.65324,0 c 0,6.5575 -0.38292,8.137 -1.67527,9.573 -0.9573,1.1009 -2.44112,1.8188 -4.25999,1.8188 -1.81887,0 -3.35055,-0.7179 -4.30785,-1.8188 -1.29235,-1.436 -1.62741,-3.0155 -1.62741,-9.573 0,-6.5575 0.33506,-8.1371 1.62741,-9.573 0.9573,-1.1009 2.48898,-1.8189 4.30785,-1.8189 1.81887,0 3.30269,0.718 4.25999,1.8189 1.29235,1.4359 1.67527,3.0155 1.67527,9.573 z m 37.90904,-6.4139 c 0,-5.7917 -4.21212,-10.6261 -11.24828,-10.6261 h -13.21074 v 34.0799 h 6.65324 v -12.8278 h 6.5575 c 7.03616,0 11.24828,-4.8344 11.24828,-10.626 z m -6.65324,0 c 0,2.7761 -1.9146,4.6429 -4.93009,4.6429 h -6.22245 v -9.3337 h 6.22245 c 3.01549,0 4.93009,1.9146 4.93009,4.6908 z m 45.28033,-4.6908 v -5.9353 h -24.45902 v 5.9353 h 8.90289 v 28.1446 h 6.65324 v -28.1446 z m 28.47961,11.1047 c 0,-5.8874 0.0479,-10.1474 -3.39842,-13.5937 -2.39325,-2.3932 -5.31301,-3.7335 -9.19008,-3.7335 -3.87706,0 -6.84469,1.3403 -9.23794,3.7335 -3.44628,3.4463 -3.35055,7.7063 -3.35055,13.5937 0,5.8874 -0.0957,10.1473 3.35055,13.5936 2.39325,2.3933 5.36088,3.7335 9.23794,3.7335 3.87707,0 6.79683,-1.3402 9.19008,-3.7335 3.44628,-3.4463 3.39842,-7.7062 3.39842,-13.5936 z m -6.65324,0 c 0,6.5575 -0.38292,8.137 -1.67527,9.573 -0.9573,1.1009 -2.44112,1.8188 -4.25999,1.8188 -1.81887,0 -3.35055,-0.7179 -4.30785,-1.8188 -1.29235,-1.436 -1.62741,-3.0155 -1.62741,-9.573 0,-6.5575 0.33506,-8.1371 1.62741,-9.573 0.9573,-1.1009 2.48898,-1.8189 4.30785,-1.8189 1.81887,0 3.30269,0.718 4.25999,1.8189 1.29235,1.4359 1.67527,3.0155 1.67527,9.573 z m -111.28613,47.7214 c 0,-5.1216 0.38292,-9.8124 -3.44628,-13.6416 -2.24965,-2.2496 -5.45661,-3.2548 -8.99862,-3.2548 H 97.009965 v 34.0799 h 12.301305 c 3.54201,0 6.74897,-1.0052 8.99862,-3.2548 3.8292,-3.8292 3.44628,-8.8072 3.44628,-13.9287 z m -6.65323,0 c 0,5.1694 -0.19146,7.6105 -1.43595,9.1422 -1.14876,1.3881 -2.68044,2.106 -4.97796,2.106 h -5.02583 v -22.2093 h 5.02583 c 2.29752,0 3.8292,0.718 4.97796,2.106 1.24449,1.5317 1.43595,3.6856 1.43595,8.8551 z m 37.47831,0.1436 c 0,-5.8874 0.0479,-10.1474 -3.39841,-13.5937 -2.39325,-2.3933 -5.31302,-3.7335 -9.19009,-3.7335 -3.87706,0 -6.84469,1.3402 -9.23794,3.7335 -3.44628,3.4463 -3.35055,7.7063 -3.35055,13.5937 0,5.8874 -0.0957,10.1473 3.35055,13.5936 2.39325,2.3933 5.36088,3.7335 9.23794,3.7335 3.87707,0 6.79684,-1.3402 9.19009,-3.7335 3.44628,-3.4463 3.39841,-7.7062 3.39841,-13.5936 z m -6.65323,0 c 0,6.5575 -0.38292,8.137 -1.67528,9.573 -0.9573,1.1009 -2.44112,1.8188 -4.25999,1.8188 -1.81887,0 -3.35055,-0.7179 -4.30785,-1.8188 -1.29235,-1.436 -1.62741,-3.0155 -1.62741,-9.573 0,-6.5575 0.33506,-8.1371 1.62741,-9.573 0.9573,-1.1009 2.48898,-1.8189 4.30785,-1.8189 1.81887,0 3.30269,0.718 4.25999,1.8189 1.29236,1.4359 1.67528,3.0155 1.67528,9.573 z m 51.16763,-17.04 h -6.94043 l -5.31301,21.4914 -6.22245,-21.4914 h -4.97796 l -6.22245,21.4914 -5.26515,-21.4914 h -6.94043 l 9.09435,34.0799 h 5.55234 l 6.27032,-20.6777 6.27031,20.6777 h 5.55234 z m 30.34637,34.0799 v -34.0799 h -6.65324 v 20.8692 l -13.49793,-20.8692 h -5.93526 v 34.0799 h 6.65324 v -20.917 l 13.49793,20.917 z m -54.8533,13.7851 h -6.94043 l -5.31301,21.4914 -6.22245,-21.4914 h -4.97796 l -6.22245,21.4914 -5.26515,-21.4914 h -6.94043 l 9.09435,34.0799 h 5.55234 l 6.27032,-20.6777 6.27031,20.6777 h 5.55234 z m 10.91318,34.0799 v -34.0799 h -6.65324 v 34.0799 z m 30.05923,0 v -5.9353 h -15.46039 v -28.1446 h -6.65324 v 34.0799 z m 27.52242,0 v -5.9353 h -15.4604 v -28.1446 h -6.65323 v 34.0799 z m -68.49492,47.865 -12.10984,-20.5341 11.29614,-13.5458 h -8.08919 l -12.01411,14.8381 v -14.8381 h -6.65324 v 34.0799 h 6.65324 v -10.2431 l 4.40358,-5.2652 8.75929,15.5083 z m 10.91327,0 v -34.0799 h -6.65324 v 34.0799 z m 30.05923,0 v -5.9353 h -15.46039 v -28.1446 h -6.65324 v 34.0799 z m 27.52241,0 v -5.9353 h -15.46039 v -28.1446 h -6.65324 v 34.0799 z m -125.74127,47.865 -12.4449,-34.0799 h -5.217286 l -12.397036,34.0799 h 6.940425 l 2.058196,-6.031 h 12.109841 l 2.01033,6.031 z m -10.72176,-11.6312 h -8.472106 l 4.307846,-12.3971 z m 38.38774,1.1487 h -6.74896 c -0.71798,2.9198 -2.53685,4.8344 -5.7438,4.8344 -1.81887,0 -3.25482,-0.5744 -4.25999,-1.771 -1.38808,-1.4838 -1.67527,-3.0155 -1.67527,-9.6209 0,-6.6053 0.28719,-8.137 1.67527,-9.6208 1.00517,-1.1967 2.44112,-1.771 4.25999,-1.771 3.20695,0 5.02582,1.9146 5.7438,4.8343 h 6.74896 c -1.14876,-6.9404 -5.98312,-10.7696 -12.54063,-10.7696 -3.63774,0 -6.7011,1.2445 -9.19008,3.7335 -1.48381,1.4838 -2.39325,3.1591 -2.77617,5.1215 -0.38292,1.9146 -0.57438,4.7387 -0.57438,8.4721 0,3.7335 0.19146,6.5575 0.57438,8.4721 0.38292,1.9146 1.29236,3.6378 2.77617,5.1216 2.48898,2.489 5.55234,3.7335 9.19008,3.7335 6.50964,0 11.39187,-3.8292 12.54063,-10.7697 z m 26.70869,-17.6622 v -5.9352 h -24.45902 v 5.9352 h 8.9029 v 28.1447 h 6.65323 v -28.1447 z m 12.06194,28.1447 v -34.0799 h -6.65323 v 34.0799 z m 31.63878,-34.0799 h -6.94042 l -6.8447,22.2094 -6.84469,-22.2094 h -6.89256 l 11.24827,34.0799 h 4.97796 z m 26.56505,34.0799 v -5.9353 h -15.79545 v -8.2806 h 13.45006 v -5.9353 h -13.45006 v -7.9935 h 15.79545 v -5.9352 h -22.44869 v 34.0799 z m -57.82099,47.865 -12.4449,-34.0799 h -5.21729 l -12.39704,34.0799 h 6.94043 l 2.0582,-6.031 h 12.10984 l 2.01033,6.031 z m -10.72176,-11.6312 h -8.47211 l 4.30785,-12.3971 z m 39.39292,-11.8227 c 0,-5.7917 -4.21212,-10.626 -11.24828,-10.626 h -13.21074 v 34.0799 h 6.65324 v -12.8279 h 6.5575 c 7.03616,0 11.24828,-4.8343 11.24828,-10.626 z m -6.65324,0 c 0,2.7762 -1.9146,4.6429 -4.93009,4.6429 h -6.22245 v -9.3337 h 6.22245 c 3.01549,0 4.93009,1.9146 4.93009,4.6908 z m 36.71247,0 c 0,-5.7917 -4.21212,-10.626 -11.24827,-10.626 h -13.21075 v 34.0799 h 6.65324 v -12.8279 h 6.55751 c 7.03615,0 11.24827,-4.8343 11.24827,-10.626 z m -6.65323,0 c 0,2.7762 -1.9146,4.6429 -4.9301,4.6429 h -6.22245 v -9.3337 h 6.22245 c 3.0155,0 4.9301,1.9146 4.9301,4.6908 z"
         id="text1-6-6-4"
         transform="matrix(0.08844313,0,0,0.08844335,11.195612,-70.727897)"
         aria-label="THREE FINGER SWIPE FROM TOP TO DOWN &#10;WILL KILL&#10;ACTIVE APP" /><path
         id="rect4"
         style="fill:none;stroke:#000000;stroke-width:1.5365;stroke-linecap:round;stroke-linejoin:round"
         d="M 4.0259094,0.76824999 H 30.369916 c 1.804743,0 3.257659,1.45291611 3.257659,3.25765941 V 154.72409 c 0,1.80474 -1.452916,3.25766 -3.257659,3.25766 H 4.0259094 c -1.8047433,0 -3.25765941,-1.45292 -3.25765941,-3.25766 V 4.0259094 c 0,-1.8047433 1.45291611,-3.25765941 3.25765941,-3.25765941 z" /><path
         id="path4"
         style="fill:none;stroke:#000000;stroke-width:1.67137;stroke-linecap:round;stroke-linejoin:round"
         d="M 5.6853502,4.5820761 A 0.83568317,0.83568525 0 0 1 4.8496671,5.4177613 0.83568317,0.83568525 0 0 1 4.0139839,4.5820761 0.83568317,0.83568525 0 0 1 4.8496671,3.7463908 0.83568317,0.83568525 0 0 1 5.6853502,4.5820761 Z" /></g></g></svg>
