<?xml version="1.0" encoding="UTF-8" standalone="no"?>
<!-- Created with Inkscape (http://www.inkscape.org/) -->

<svg
   width="133.75301"
   height="400"
   viewBox="0 0 35.388816 105.83333"
   version="1.1"
   id="svg1"
   xml:space="preserve"
   inkscape:version="1.4 (e7c3feb100, 2024-10-09)"
   sodipodi:docname="gestures.svg"
   xmlns:inkscape="http://www.inkscape.org/namespaces/inkscape"
   xmlns:sodipodi="http://sodipodi.sourceforge.net/DTD/sodipodi-0.dtd"
   xmlns="http://www.w3.org/2000/svg"
   xmlns:svg="http://www.w3.org/2000/svg"><sodipodi:namedview
     id="namedview1"
     pagecolor="#ffffff"
     bordercolor="#000000"
     borderopacity="0.25"
     inkscape:showpageshadow="2"
     inkscape:pageopacity="0.0"
     inkscape:pagecheckerboard="0"
     inkscape:deskcolor="#d1d1d1"
     inkscape:document-units="mm"
     inkscape:zoom="1.8696268"
     inkscape:cx="171.95945"
     inkscape:cy="194.15639"
     inkscape:window-width="1680"
     inkscape:window-height="986"
     inkscape:window-x="0"
     inkscape:window-y="0"
     inkscape:window-maximized="1"
     inkscape:current-layer="layer1" /><defs
     id="defs1"><rect
       x="18.153957"
       y="399.38705"
       width="258.69388"
       height="363.07913"
       id="rect2" /><rect
       x="23.534107"
       y="1006.618"
       width="301.15688"
       height="136.42626"
       id="rect1" /><rect
       x="23.534107"
       y="1006.618"
       width="547.70288"
       height="48.672813"
       id="rect1-9" /><rect
       x="23.534107"
       y="1006.618"
       width="152.22877"
       height="433.88596"
       id="rect1-9-7" /><rect
       x="23.534107"
       y="1006.618"
       width="157.88745"
       height="393.40401"
       id="rect1-9-7-1" /><rect
       x="23.534107"
       y="1006.618"
       width="301.15689"
       height="136.42625"
       id="rect1-6" /></defs><g
     inkscape:label="Taso 1"
     inkscape:groupmode="layer"
     id="layer1"><path
       style="fill:#030303;stroke-width:0.118567"
       d="m 25.295422,103.15236 h -0.03128 v -0.61701 -0.61701 H 13.293515 1.3229167 v -0.36708 -0.36709 H 13.293515 25.264124 v -0.61831 -0.618311 l 0.05327,0.0052 0.05327,0.0052 4.104479,0.795981 4.104473,0.79598 -0.04682,0.0107 -0.04682,0.0107 -4.079661,0.79055 -4.079653,0.79056 z"
       id="path1"
       inkscape:export-filename="tweak.png"
       inkscape:export-xdpi="28.230381"
       inkscape:export-ydpi="28.230381" /><path
       style="fill:#030303;stroke-width:0.118567"
       d="m 10.136278,96.033822 h 0.03128 v -0.61701 -0.61701 h 11.970627 11.970598 v -0.36708 -0.36709 H 22.138185 10.167576 v -0.61831 -0.61831 l -0.05327,0.005 -0.05327,0.005 -4.1044797,0.79598 -4.104473,0.79598 0.04682,0.0107 0.04682,0.0107 4.079661,0.79055 4.0796537,0.79056 z"
       id="path1-3"
       inkscape:export-filename="tweak.png"
       inkscape:export-xdpi="28.230381"
       inkscape:export-ydpi="28.230381" /><path
       style="fill:#030303;stroke-width:0.0877281"
       d="m 9.9280703,14.005184 v -0.0164 H 9.2835246 8.6389752 V 7.7154243 1.442078 H 8.2555101 7.8720461 V 7.7154243 13.988774 H 7.2261417 6.5802332 l 0.0054,0.02792 0.0054,0.02792 0.831501,2.151004 0.8315019,2.151004 0.01115,-0.02454 0.01115,-0.02454 0.825835,-2.138 0.8258372,-2.137994 z"
       id="path1-2-6" /><path
       style="fill:#030303;stroke-width:0.0877281"
       d="m 13.287253,14.007624 v -0.0164 h -0.644545 -0.64455 V 7.7178693 1.444523 H 11.614693 11.231229 V 7.7178693 13.991218 H 10.585325 9.9394173 l 0.0054,0.02792 0.0054,0.02792 0.8314997,2.151003 0.831502,2.151004 0.01115,-0.02453 0.01115,-0.02454 0.825836,-2.138001 0.825837,-2.137994 z"
       id="path1-2-6-9" /><path
       style="fill:#030303;stroke-width:0.0877281"
       d="m 24.26467,14.005184 v -0.0164 H 23.620126 22.975575 V 7.7154243 1.442078 H 22.59211 22.208646 v 6.2733463 6.2733497 h -0.645905 -0.645908 l 0.0054,0.02792 0.0055,0.02792 0.8315,2.151004 0.8315,2.151004 0.01117,-0.02454 0.01116,-0.02454 0.825834,-2.138 0.825837,-2.137994 z"
       id="path1-2-6-3" /><path
       style="fill:#030303;stroke-width:0.0877281"
       d="m 27.623854,14.007624 v -0.0164 h -0.644545 -0.64455 V 7.7178693 1.444523 H 25.951294 25.56783 v 6.2733463 6.2733487 h -0.645905 -0.645907 l 0.0055,0.02792 0.0055,0.02792 0.831501,2.151003 0.831499,2.151004 0.01116,-0.02453 0.01116,-0.02454 0.825834,-2.138001 0.82584,-2.137994 z"
       id="path1-2-6-9-7" /><path
       style="fill:#030303;stroke-width:0.0877281"
       d="m 31.004136,14.005184 v -0.0164 H 30.359588 29.715039 V 7.7154243 1.442078 h -0.383462 -0.383468 v 6.2733463 6.2733497 h -0.645902 -0.64591 l 0.0055,0.02792 0.0054,0.02792 0.831501,2.151004 0.831499,2.151004 0.01117,-0.02453 0.01116,-0.02454 0.825837,-2.138 0.825836,-2.137994 z"
       id="path1-2-6-9-7-2" /><text
       xml:space="preserve"
       transform="matrix(0.08466455,0,0,0.08466476,-0.79603607,11.106011)"
       id="text1"
       style="font-weight:bold;font-size:29.1674px;line-height:1;font-family:DINOT;-inkscape-font-specification:'DINOT Bold';text-align:start;writing-mode:lr-tb;direction:ltr;white-space:pre;shape-inside:url(#rect1);display:inline;fill:none;stroke:#ffffff;stroke-width:3.40157;stroke-linecap:round;stroke-linejoin:round"
       x="265.19406"
       y="0"><tspan
         x="60.534502"
         y="1028.9011"
         id="tspan7"><tspan
           style="text-align:center;text-anchor:middle;fill:#000000;stroke:none"
           id="tspan6">SWITCH TO NEXT </tspan></tspan><tspan
         x="40.248536"
         y="1058.0684"
         id="tspan9"><tspan
           style="text-align:center;text-anchor:middle;fill:#000000;stroke:none"
           id="tspan8">OPEN APP AT RIGHT</tspan></tspan></text><text
       xml:space="preserve"
       transform="matrix(0.08466455,0,0,0.08466476,6.8915505,4.0723186)"
       id="text1-5"
       style="font-weight:bold;font-size:29.1674px;line-height:1;font-family:DINOT;-inkscape-font-specification:'DINOT Bold';text-align:start;writing-mode:lr-tb;direction:ltr;white-space:pre;shape-inside:url(#rect1-6);display:inline;fill:none;stroke:#ffffff;stroke-width:3.40157;stroke-linecap:round;stroke-linejoin:round"
       x="265.19406"
       y="0"><tspan
         x="60.534502"
         y="1028.9011"
         id="tspan11"><tspan
           style="text-align:center;text-anchor:middle;fill:#000000;stroke:none"
           id="tspan10">SWITCH TO NEXT </tspan></tspan><tspan
         x="47.700774"
         y="1058.0684"
         id="tspan13"><tspan
           style="text-align:center;text-anchor:middle;fill:#000000;stroke:none"
           id="tspan12">OPEN APP AT LEFT</tspan></tspan></text><text
       xml:space="preserve"
       transform="matrix(0.08844313,0,0,0.08844335,1.2132844,-70.102217)"
       id="text1-6-6"
       style="font-weight:bold;font-size:27.9212px;line-height:1;font-family:DINOT;-inkscape-font-specification:'DINOT Bold';text-align:start;writing-mode:lr-tb;direction:ltr;white-space:pre;shape-inside:url(#rect1-9-7);display:inline;fill:none;stroke:#ffffff;stroke-width:3.40157;stroke-linecap:round;stroke-linejoin:round"
       x="51.919998"
       y="0"><tspan
         x="70.442902"
         y="1027.949"
         id="tspan15"><tspan
           style="text-align:center;text-anchor:middle;fill:#000000;stroke:none"
           id="tspan14">TWO </tspan></tspan><tspan
         x="50.758432"
         y="1055.8701"
         id="tspan17"><tspan
           style="text-align:center;text-anchor:middle;fill:#000000;stroke:none"
           id="tspan16">FINGER </tspan></tspan><tspan
         x="57.543284"
         y="1083.7913"
         id="tspan19"><tspan
           style="text-align:center;text-anchor:middle;fill:#000000;stroke:none"
           id="tspan18">SWIPE </tspan></tspan><tspan
         x="33.279776"
         y="1111.7124"
         id="tspan21"><tspan
           style="text-align:center;text-anchor:middle;fill:#000000;stroke:none"
           id="tspan20">FROM TOP </tspan></tspan><tspan
         x="36.127745"
         y="1139.6336"
         id="tspan23"><tspan
           style="text-align:center;text-anchor:middle;fill:#000000;stroke:none"
           id="tspan22">TO DOWN 
</tspan></tspan><tspan
         x="66.952699"
         y="1167.5547"
         id="tspan25"><tspan
           style="text-align:center;text-anchor:middle;fill:#000000;stroke:none"
           id="tspan24">WILL </tspan></tspan><tspan
         x="33.977769"
         y="1195.4758"
         id="tspan27"><tspan
           style="text-align:center;text-anchor:middle;fill:#000000;stroke:none"
           id="tspan26">SIMULATE </tspan></tspan><tspan
         x="49.655538"
         y="1223.397"
         id="tspan29"><tspan
           style="text-align:center;text-anchor:middle;fill:#000000;stroke:none"
           id="tspan28">CTRL+A</tspan></tspan></text><text
       xml:space="preserve"
       transform="matrix(0.08844313,0,0,0.08844335,16.499183,-70.102217)"
       id="text1-6-6-4"
       style="font-weight:bold;font-size:27.9212px;line-height:1;font-family:DINOT;-inkscape-font-specification:'DINOT Bold';text-align:start;writing-mode:lr-tb;direction:ltr;white-space:pre;shape-inside:url(#rect1-9-7-1);display:inline;fill:none;stroke:#ffffff;stroke-width:3.40157;stroke-linecap:round;stroke-linejoin:round"
       x="51.919998"
       y="0"><tspan
         x="58.920509"
         y="1027.949"
         id="tspan31"><tspan
           style="text-align:center;text-anchor:middle;fill:#000000;stroke:none"
           id="tspan30">THREE </tspan></tspan><tspan
         x="53.587534"
         y="1055.8701"
         id="tspan33"><tspan
           style="text-align:center;text-anchor:middle;fill:#000000;stroke:none"
           id="tspan32">FINGER </tspan></tspan><tspan
         x="60.372386"
         y="1083.7913"
         id="tspan35"><tspan
           style="text-align:center;text-anchor:middle;fill:#000000;stroke:none"
           id="tspan34">SWIPE </tspan></tspan><tspan
         x="36.108878"
         y="1111.7124"
         id="tspan37"><tspan
           style="text-align:center;text-anchor:middle;fill:#000000;stroke:none"
           id="tspan36">FROM TOP </tspan></tspan><tspan
         x="38.956847"
         y="1139.6336"
         id="tspan39"><tspan
           style="text-align:center;text-anchor:middle;fill:#000000;stroke:none"
           id="tspan38">TO DOWN 
</tspan></tspan><tspan
         x="36.946426"
         y="1167.5547"
         id="tspan41"><tspan
           style="text-align:center;text-anchor:middle;fill:#000000;stroke:none"
           id="tspan40">WILL KILL
</tspan></tspan><tspan
         x="24.99622"
         y="1195.4758"
         id="tspan43"><tspan
           style="text-align:center;text-anchor:middle;fill:#000000;stroke:none"
           id="tspan42">CURRENTLY </tspan></tspan><tspan
         x="26.866925"
         y="1223.397"
         id="tspan45"><tspan
           style="text-align:center;text-anchor:middle;fill:#000000;stroke:none"
           id="tspan44">ACTIVE APP</tspan></tspan></text><text
       xml:space="preserve"
       transform="scale(0.26458333)"
       id="text2"
       style="font-weight:bold;font-size:16px;line-height:1;font-family:DINOT;-inkscape-font-specification:'DINOT Bold';text-align:start;writing-mode:lr-tb;direction:ltr;white-space:pre;shape-inside:url(#rect2);display:inline;fill:#000000;fill-opacity:1;stroke:none;stroke-width:3.40157;stroke-linecap:round;stroke-linejoin:round" /><rect
       style="fill:none;fill-opacity:1;stroke:#000000;stroke-width:2.35103;stroke-linecap:round;stroke-linejoin:round;stroke-dasharray:none;stroke-opacity:1"
       id="rect4"
       width="33.037792"
       height="103.48231"
       x="1.1755102"
       y="1.1755102"
       rx="3.2753522" /><ellipse
       style="fill:none;fill-opacity:1;stroke:#000000;stroke-width:1.67137;stroke-linecap:round;stroke-linejoin:round;stroke-dasharray:none;stroke-opacity:1"
       id="path4"
       cx="4.8496671"
       cy="4.5820761"
       rx="0.83568317"
       ry="0.83568525" /></g></svg>
